<svg width="573" height="429" viewBox="0 0 573 429" fill="none" xmlns="http://www.w3.org/2000/svg">
<path d="M495.913 245.157L475.907 119.336L262.364 268.101L282.37 393.921L495.913 245.157Z" fill="url(#paint0_radial_220_47762)"/>
<path d="M500.693 242.555L480.892 118.018L264.128 268.303L283.929 392.84L500.693 242.555Z" fill="url(#paint1_linear_220_47762)"/>
<path d="M500.693 242.555L480.892 118.018L264.128 268.303L283.929 392.84L500.693 242.555Z" fill="url(#paint2_linear_220_47762)"/>
<path d="M496.015 245.799L476.213 121.262L264.128 268.303L283.929 392.84L496.015 245.799Z" fill="url(#paint3_radial_220_47762)"/>
<path d="M262.364 268.101L475.907 119.336L476.213 121.262L264.128 268.303L283.928 392.835L282.37 393.921L262.568 269.385L262.364 268.101Z" fill="url(#paint4_radial_220_47762)"/>
<path d="M282.268 393.278L496.015 245.798L495.709 243.872L283.623 390.913L263.822 266.381L262.262 267.458L282.064 391.995L282.268 393.278Z" fill="url(#paint5_radial_220_47762)"/>
<mask id="mask0_220_47762" style="mask-type:alpha" maskUnits="userSpaceOnUse" x="264" y="121" width="233" height="272">
<path d="M496.015 245.799L476.213 121.262L264.127 268.303L283.929 392.84L496.015 245.799Z" fill="url(#paint6_linear_220_47762)"/>
</mask>
<g mask="url(#mask0_220_47762)">
<g filter="url(#filter0_f_220_47762)">
<ellipse cx="75.4762" cy="94.8796" rx="75.4762" ry="94.8796" transform="matrix(-0.135234 -0.850523 -0.821807 0.569767 367.845 289.046)" fill="url(#paint7_radial_220_47762)"/>
</g>
</g>
<path d="M477.27 120.461L335.357 3.24399L122.436 151.964L264.348 269.182L477.27 120.461Z" fill="url(#paint8_radial_220_47762)"/>
<path d="M482.672 117.815L342.207 1.79423L125.443 152.079L265.908 268.1L482.672 117.815Z" fill="url(#paint9_linear_220_47762)"/>
<path d="M482.672 117.815L342.207 1.79401L125.443 152.079L265.908 268.1L482.672 117.815Z" fill="url(#paint10_linear_220_47762)"/>
<path d="M477.994 121.059L337.529 5.03812L125.443 152.079L265.908 268.1L477.994 121.059Z" fill="url(#paint11_radial_220_47762)"/>
<path d="M122.436 151.964L335.357 3.24399L337.529 5.03815L125.443 152.079L265.903 268.096L264.348 269.182L123.884 153.16L122.436 151.964Z" fill="url(#paint12_radial_220_47762)"/>
<path d="M263.624 268.583L477.994 121.059L475.821 119.265L263.736 266.306L123.276 150.289L121.711 151.366L262.176 267.387L263.624 268.583Z" fill="url(#paint13_radial_220_47762)"/>
<mask id="mask1_220_47762" style="mask-type:alpha" maskUnits="userSpaceOnUse" x="125" y="5" width="353" height="264">
<path d="M477.994 121.06L337.529 5.03837L125.443 152.079L265.908 268.101L477.994 121.06Z" fill="url(#paint14_linear_220_47762)"/>
</mask>
<g mask="url(#mask1_220_47762)">
<g filter="url(#filter1_f_220_47762)">
<ellipse cx="93.9096" cy="94.8796" rx="93.9096" ry="94.8796" transform="matrix(-0.771002 -0.636833 -0.821807 0.569767 310.017 167.117)" fill="url(#paint15_radial_220_47762)"/>
</g>
</g>
<path d="M354.613 129.798L334.607 3.97729L121.064 152.742L141.07 278.562L354.613 129.798Z" fill="url(#paint16_radial_220_47762)"/>
<path d="M359.393 127.197L339.591 2.65997L122.827 152.945L142.629 277.481L359.393 127.197Z" fill="url(#paint17_linear_220_47762)"/>
<path d="M359.393 127.197L339.591 2.65972L122.827 152.944L142.629 277.481L359.393 127.197Z" fill="url(#paint18_linear_220_47762)"/>
<path d="M354.715 130.44L334.913 5.90313L122.828 152.944L142.629 277.481L354.715 130.44Z" fill="url(#paint19_radial_220_47762)"/>
<path d="M121.064 152.742L334.607 3.97729L334.913 5.90314L122.828 152.944L142.628 277.476L141.07 278.562L121.268 154.025L121.064 152.742Z" fill="url(#paint20_radial_220_47762)"/>
<path d="M140.968 277.92L354.715 130.44L354.409 128.514L142.323 275.555L122.522 151.023L120.962 152.099L140.764 276.636L140.968 277.92Z" fill="url(#paint21_radial_220_47762)"/>
<mask id="mask2_220_47762" style="mask-type:alpha" maskUnits="userSpaceOnUse" x="122" y="5" width="233" height="273">
<path d="M354.715 130.44L334.913 5.90312L122.827 152.944L142.629 277.481L354.715 130.44Z" fill="url(#paint22_linear_220_47762)"/>
</mask>
<g mask="url(#mask2_220_47762)">
<g filter="url(#filter2_f_220_47762)">
<ellipse cx="75.4762" cy="94.8796" rx="75.4762" ry="94.8796" transform="matrix(-0.135234 -0.850523 -0.821807 0.569767 226.545 173.688)" fill="url(#paint23_radial_220_47762)"/>
</g>
</g>
<path d="M494.401 245.818L352.488 128.601L139.567 277.321L281.479 394.538L494.401 245.818Z" fill="url(#paint24_radial_220_47762)"/>
<path d="M499.803 243.172L359.338 127.151L142.574 277.436L283.039 393.457L499.803 243.172Z" fill="url(#paint25_linear_220_47762)"/>
<path d="M499.803 243.172L359.338 127.151L142.574 277.435L283.039 393.457L499.803 243.172Z" fill="url(#paint26_linear_220_47762)"/>
<path d="M495.125 246.416L354.66 130.395L142.574 277.436L283.039 393.457L495.125 246.416Z" fill="url(#paint27_radial_220_47762)"/>
<path d="M139.567 277.321L352.488 128.601L354.66 130.395L142.574 277.436L283.034 393.453L281.479 394.538L141.015 278.517L139.567 277.321Z" fill="url(#paint28_radial_220_47762)"/>
<path d="M280.755 393.94L495.124 246.415L492.952 244.621L280.866 391.662L140.407 275.646L138.842 276.722L279.307 392.744L280.755 393.94Z" fill="url(#paint29_radial_220_47762)"/>
<mask id="mask3_220_47762" style="mask-type:alpha" maskUnits="userSpaceOnUse" x="142" y="130" width="354" height="264">
<path d="M495.125 246.416L354.66 130.395L142.574 277.436L283.039 393.457L495.125 246.416Z" fill="url(#paint30_linear_220_47762)"/>
</mask>
<g mask="url(#mask3_220_47762)">
<g filter="url(#filter3_f_220_47762)">
<ellipse cx="93.9096" cy="94.8796" rx="93.9096" ry="94.8796" transform="matrix(-0.771002 -0.636833 -0.821807 0.569767 327.148 292.474)" fill="url(#paint31_radial_220_47762)"/>
</g>
</g>
<path d="M77.0868 182.895L97.0925 308.716L310.636 159.951L290.63 34.1307L77.0868 182.895Z" fill="url(#paint32_radial_220_47762)"/>
<path d="M72.3065 185.496L92.108 310.033L308.872 159.749L289.071 35.2117L72.3065 185.496Z" fill="url(#paint33_linear_220_47762)"/>
<path d="M72.3065 185.496L92.1081 310.033L308.872 159.749L289.071 35.2117L72.3065 185.496Z" fill="url(#paint34_linear_220_47762)"/>
<path d="M76.9847 182.253L96.7863 306.79L308.872 159.749L289.07 35.2119L76.9847 182.253Z" fill="url(#paint35_radial_220_47762)"/>
<path d="M310.636 159.951L97.0925 308.716L96.7863 306.79L308.872 159.749L289.071 35.2165L290.63 34.1307L310.431 158.667L310.636 159.951Z" fill="url(#paint36_radial_220_47762)"/>
<path d="M290.732 34.7728L76.9848 182.253L77.291 184.179L289.377 37.1379L309.178 161.67L310.738 160.594L290.936 36.0567L290.732 34.7728Z" fill="url(#paint37_radial_220_47762)"/>
<mask id="mask4_220_47762" style="mask-type:alpha" maskUnits="userSpaceOnUse" x="76" y="35" width="233" height="272">
<path d="M76.9855 182.253L96.787 306.79L308.873 159.749L289.071 35.2119L76.9855 182.253Z" fill="url(#paint38_linear_220_47762)"/>
</mask>
<g mask="url(#mask4_220_47762)">
<g filter="url(#filter4_f_220_47762)">
<ellipse cx="75.4762" cy="94.8796" rx="75.4762" ry="94.8796" transform="matrix(0.135234 0.850523 0.821807 -0.569767 205.155 139.005)" fill="url(#paint39_radial_220_47762)"/>
</g>
</g>
<path d="M95.7303 307.59L237.643 424.807L450.564 276.087L308.651 158.87L95.7303 307.59Z" fill="url(#paint40_radial_220_47762)"/>
<path d="M90.3278 310.235L230.793 426.256L447.557 275.972L307.092 159.95L90.3278 310.235Z" fill="url(#paint41_linear_220_47762)"/>
<path d="M90.3278 310.235L230.793 426.257L447.557 275.972L307.092 159.95L90.3278 310.235Z" fill="url(#paint42_linear_220_47762)"/>
<path d="M95.0062 306.992L235.471 423.013L447.557 275.972L307.092 159.951L95.0062 306.992Z" fill="url(#paint43_radial_220_47762)"/>
<path d="M450.564 276.087L237.643 424.807L235.471 423.013L447.557 275.972L307.097 159.955L308.651 158.87L449.116 274.891L450.564 276.087Z" fill="url(#paint44_radial_220_47762)"/>
<path d="M309.375 159.467L95.0061 306.991L97.1782 308.785L309.264 161.744L449.723 277.761L451.288 276.684L310.823 160.663L309.375 159.467Z" fill="url(#paint45_radial_220_47762)"/>
<mask id="mask5_220_47762" style="mask-type:alpha" maskUnits="userSpaceOnUse" x="95" y="159" width="353" height="265">
<path d="M95.0059 306.991L235.471 423.012L447.556 275.971L307.092 159.95L95.0059 306.991Z" fill="url(#paint46_linear_220_47762)"/>
</mask>
<g mask="url(#mask5_220_47762)">
<g filter="url(#filter5_f_220_47762)">
<ellipse cx="93.9096" cy="94.8796" rx="93.9096" ry="94.8796" transform="matrix(0.771002 0.636833 0.821807 -0.569767 262.983 260.934)" fill="url(#paint47_radial_220_47762)"/>
</g>
</g>
<path d="M218.386 298.253L238.392 424.073L451.935 275.309L431.929 149.488L218.386 298.253Z" fill="url(#paint48_radial_220_47762)"/>
<path d="M213.606 300.854L233.407 425.391L450.172 275.106L430.37 150.569L213.606 300.854Z" fill="url(#paint49_linear_220_47762)"/>
<path d="M213.606 300.854L233.408 425.391L450.172 275.106L430.37 150.569L213.606 300.854Z" fill="url(#paint50_linear_220_47762)"/>
<path d="M218.284 297.611L238.086 422.147L450.171 275.106L430.37 150.57L218.284 297.611Z" fill="url(#paint51_radial_220_47762)"/>
<path d="M451.935 275.309L238.392 424.073L238.086 422.147L450.171 275.106L430.371 150.574L431.929 149.488L451.731 274.025L451.935 275.309Z" fill="url(#paint52_radial_220_47762)"/>
<path d="M432.032 150.131L218.284 297.611L218.59 299.537L430.676 152.496L450.477 277.028L452.037 275.951L432.236 151.415L432.032 150.131Z" fill="url(#paint53_radial_220_47762)"/>
<mask id="mask6_220_47762" style="mask-type:alpha" maskUnits="userSpaceOnUse" x="218" y="150" width="233" height="273">
<path d="M218.285 297.611L238.086 422.147L450.172 275.106L430.37 150.57L218.285 297.611Z" fill="url(#paint54_linear_220_47762)"/>
</mask>
<g mask="url(#mask6_220_47762)">
<g filter="url(#filter6_f_220_47762)">
<ellipse cx="75.4762" cy="94.8796" rx="75.4762" ry="94.8796" transform="matrix(0.135234 0.850523 0.821807 -0.569767 346.455 254.362)" fill="url(#paint55_radial_220_47762)"/>
</g>
</g>
<path d="M78.599 182.234L220.512 299.451L433.433 150.731L291.52 33.5132L78.599 182.234Z" fill="url(#paint56_radial_220_47762)"/>
<path d="M73.1969 184.88L213.662 300.901L430.426 150.617L289.961 34.5955L73.1969 184.88Z" fill="url(#paint57_linear_220_47762)"/>
<path d="M73.1969 184.88L213.662 300.902L430.426 150.617L289.961 34.5955L73.1969 184.88Z" fill="url(#paint58_linear_220_47762)"/>
<path d="M77.875 181.635L218.34 297.657L430.425 150.616L289.961 34.5944L77.875 181.635Z" fill="url(#paint59_radial_220_47762)"/>
<path d="M433.433 150.731L220.512 299.451L218.34 297.657L430.425 150.616L289.966 34.5988L291.52 33.5132L431.985 149.534L433.433 150.731Z" fill="url(#paint60_radial_220_47762)"/>
<path d="M292.244 34.1119L77.8752 181.636L80.0474 183.43L292.133 36.3891L432.593 152.406L434.157 151.329L293.693 35.308L292.244 34.1119Z" fill="url(#paint61_radial_220_47762)"/>
<mask id="mask7_220_47762" style="mask-type:alpha" maskUnits="userSpaceOnUse" x="77" y="34" width="354" height="264">
<path d="M77.875 181.635L218.34 297.657L430.425 150.616L289.961 34.5944L77.875 181.635Z" fill="url(#paint62_linear_220_47762)"/>
</mask>
<g mask="url(#mask7_220_47762)">
<g filter="url(#filter7_f_220_47762)">
<ellipse cx="93.9096" cy="94.8796" rx="93.9096" ry="94.8796" transform="matrix(0.771002 0.636833 0.821807 -0.569767 245.851 135.577)" fill="url(#paint63_radial_220_47762)"/>
</g>
</g>
<defs>
<filter id="filter0_f_220_47762" x="131.525" y="125.492" width="296.28" height="306.839" filterUnits="userSpaceOnUse" color-interpolation-filters="sRGB">
<feFlood flood-opacity="0" result="BackgroundImageFix"/>
<feBlend mode="normal" in="SourceGraphic" in2="BackgroundImageFix" result="shape"/>
<feGaussianBlur stdDeviation="34.7466" result="effect1_foregroundBlur_220_47762"/>
</filter>
<filter id="filter1_f_220_47762" x="-16.2589" y="11.261" width="351.798" height="300.22" filterUnits="userSpaceOnUse" color-interpolation-filters="sRGB">
<feFlood flood-opacity="0" result="BackgroundImageFix"/>
<feBlend mode="normal" in="SourceGraphic" in2="BackgroundImageFix" result="shape"/>
<feGaussianBlur stdDeviation="34.7466" result="effect1_foregroundBlur_220_47762"/>
</filter>
<filter id="filter2_f_220_47762" x="-9.77474" y="10.1338" width="296.28" height="306.839" filterUnits="userSpaceOnUse" color-interpolation-filters="sRGB">
<feFlood flood-opacity="0" result="BackgroundImageFix"/>
<feBlend mode="normal" in="SourceGraphic" in2="BackgroundImageFix" result="shape"/>
<feGaussianBlur stdDeviation="34.7466" result="effect1_foregroundBlur_220_47762"/>
</filter>
<filter id="filter3_f_220_47762" x="0.872108" y="136.618" width="351.798" height="300.22" filterUnits="userSpaceOnUse" color-interpolation-filters="sRGB">
<feFlood flood-opacity="0" result="BackgroundImageFix"/>
<feBlend mode="normal" in="SourceGraphic" in2="BackgroundImageFix" result="shape"/>
<feGaussianBlur stdDeviation="34.7466" result="effect1_foregroundBlur_220_47762"/>
</filter>
<filter id="filter4_f_220_47762" x="145.195" y="-4.27975" width="296.28" height="306.839" filterUnits="userSpaceOnUse" color-interpolation-filters="sRGB">
<feFlood flood-opacity="0" result="BackgroundImageFix"/>
<feBlend mode="normal" in="SourceGraphic" in2="BackgroundImageFix" result="shape"/>
<feGaussianBlur stdDeviation="34.7466" result="effect1_foregroundBlur_220_47762"/>
</filter>
<filter id="filter5_f_220_47762" x="237.46" y="116.569" width="351.798" height="300.22" filterUnits="userSpaceOnUse" color-interpolation-filters="sRGB">
<feFlood flood-opacity="0" result="BackgroundImageFix"/>
<feBlend mode="normal" in="SourceGraphic" in2="BackgroundImageFix" result="shape"/>
<feGaussianBlur stdDeviation="34.7466" result="effect1_foregroundBlur_220_47762"/>
</filter>
<filter id="filter6_f_220_47762" x="286.494" y="111.078" width="296.28" height="306.839" filterUnits="userSpaceOnUse" color-interpolation-filters="sRGB">
<feFlood flood-opacity="0" result="BackgroundImageFix"/>
<feBlend mode="normal" in="SourceGraphic" in2="BackgroundImageFix" result="shape"/>
<feGaussianBlur stdDeviation="34.7466" result="effect1_foregroundBlur_220_47762"/>
</filter>
<filter id="filter7_f_220_47762" x="220.329" y="-8.78732" width="351.798" height="300.22" filterUnits="userSpaceOnUse" color-interpolation-filters="sRGB">
<feFlood flood-opacity="0" result="BackgroundImageFix"/>
<feBlend mode="normal" in="SourceGraphic" in2="BackgroundImageFix" result="shape"/>
<feGaussianBlur stdDeviation="34.7466" result="effect1_foregroundBlur_220_47762"/>
</filter>
<radialGradient id="paint0_radial_220_47762" cx="0" cy="0" r="1" gradientUnits="userSpaceOnUse" gradientTransform="translate(262.364 268.101) rotate(0.584307) scale(198.573 258.067)">
<stop stop-color="#00FFF6" stop-opacity="0.2"/>
<stop offset="0.201199" stop-color="#63E4F7" stop-opacity="0.05"/>
<stop offset="0.451851" stop-color="#63E4F7" stop-opacity="0"/>
</radialGradient>
<linearGradient id="paint1_linear_220_47762" x1="273.722" y1="328.646" x2="508.448" y2="291.324" gradientUnits="userSpaceOnUse">
<stop stop-color="#04F6FF" stop-opacity="0.2"/>
<stop offset="0.201199" stop-color="#63E4F7" stop-opacity="0.05"/>
<stop offset="0.322438" stop-color="#63E4F7" stop-opacity="0"/>
</linearGradient>
<linearGradient id="paint2_linear_220_47762" x1="274.335" y1="332.497" x2="509.06" y2="295.176" gradientUnits="userSpaceOnUse">
<stop stop-color="#04F6FF" stop-opacity="0.2"/>
<stop offset="0.0718237" stop-color="#63E4F7" stop-opacity="0.05"/>
<stop offset="0.252538" stop-color="#63E4F7" stop-opacity="0"/>
</linearGradient>
<radialGradient id="paint3_radial_220_47762" cx="0" cy="0" r="1" gradientUnits="userSpaceOnUse" gradientTransform="translate(258.837 267.695) rotate(-22.2135) scale(316.105 255.668)">
<stop stop-color="#63E4F7" stop-opacity="0.2"/>
<stop offset="0.0882064" stop-color="#63E4F7" stop-opacity="0.1"/>
<stop offset="0.365249" stop-color="#63E4F7" stop-opacity="0.05"/>
<stop offset="0.614337" stop-color="#63E4F7" stop-opacity="0"/>
</radialGradient>
<radialGradient id="paint4_radial_220_47762" cx="0" cy="0" r="1" gradientUnits="userSpaceOnUse" gradientTransform="translate(262.364 268.101) rotate(0.584307) scale(198.573 258.067)">
<stop stop-color="#66B7BC"/>
<stop offset="0.385958" stop-color="#63E4F7" stop-opacity="0.05"/>
<stop offset="0.632008" stop-color="#63E4F7" stop-opacity="0"/>
</radialGradient>
<radialGradient id="paint5_radial_220_47762" cx="0" cy="0" r="1" gradientUnits="userSpaceOnUse" gradientTransform="translate(282.268 393.278) rotate(-57.577) scale(295.714 173.293)">
<stop stop-color="#66B7BC"/>
<stop offset="0.385958" stop-color="#63E4F7" stop-opacity="0.05"/>
<stop offset="0.632008" stop-color="#63E4F7" stop-opacity="0"/>
</radialGradient>
<linearGradient id="paint6_linear_220_47762" x1="258.837" y1="267.695" x2="448.654" y2="352.192" gradientUnits="userSpaceOnUse">
<stop stop-color="white" stop-opacity="0.5"/>
<stop offset="1" stop-color="white" stop-opacity="0"/>
</linearGradient>
<radialGradient id="paint7_radial_220_47762" cx="0" cy="0" r="1" gradientUnits="userSpaceOnUse" gradientTransform="translate(75.4762 94.8796) rotate(90) scale(94.8796 75.4762)">
<stop stop-color="#04F6FF"/>
<stop offset="1" stop-color="#04F6FF" stop-opacity="0"/>
</radialGradient>
<radialGradient id="paint8_radial_220_47762" cx="0" cy="0" r="1" gradientUnits="userSpaceOnUse" gradientTransform="translate(122.436 151.964) rotate(-1.17596) scale(320.538 246.756)">
<stop stop-color="#00FFF6" stop-opacity="0.2"/>
<stop offset="0.201199" stop-color="#63E4F7" stop-opacity="0.05"/>
<stop offset="0.451851" stop-color="#63E4F7" stop-opacity="0"/>
</radialGradient>
<linearGradient id="paint9_linear_220_47762" x1="193.503" y1="208.295" x2="355.203" y2="12.5285" gradientUnits="userSpaceOnUse">
<stop stop-color="#04F6FF" stop-opacity="0.2"/>
<stop offset="0.201199" stop-color="#63E4F7" stop-opacity="0.05"/>
<stop offset="0.322438" stop-color="#63E4F7" stop-opacity="0"/>
</linearGradient>
<linearGradient id="paint10_linear_220_47762" x1="197.848" y1="211.884" x2="359.547" y2="16.1168" gradientUnits="userSpaceOnUse">
<stop stop-color="#04F6FF" stop-opacity="0.2"/>
<stop offset="0.0718237" stop-color="#63E4F7" stop-opacity="0.05"/>
<stop offset="0.252538" stop-color="#63E4F7" stop-opacity="0"/>
</linearGradient>
<radialGradient id="paint11_radial_220_47762" cx="0" cy="0" r="1" gradientUnits="userSpaceOnUse" gradientTransform="translate(116.421 151.734) rotate(-18.8343) scale(386.088 323.085)">
<stop stop-color="#63E4F7" stop-opacity="0.2"/>
<stop offset="0.0882064" stop-color="#63E4F7" stop-opacity="0.1"/>
<stop offset="0.365249" stop-color="#63E4F7" stop-opacity="0.05"/>
<stop offset="0.614337" stop-color="#63E4F7" stop-opacity="0"/>
</radialGradient>
<radialGradient id="paint12_radial_220_47762" cx="0" cy="0" r="1" gradientUnits="userSpaceOnUse" gradientTransform="translate(122.436 151.964) rotate(-1.17596) scale(320.538 246.756)">
<stop stop-color="#66B7BC"/>
<stop offset="0.385958" stop-color="#63E4F7" stop-opacity="0.05"/>
<stop offset="0.632008" stop-color="#63E4F7" stop-opacity="0"/>
</radialGradient>
<radialGradient id="paint13_radial_220_47762" cx="0" cy="0" r="1" gradientUnits="userSpaceOnUse" gradientTransform="translate(263.624 268.583) rotate(-81.3547) scale(243.783 324.448)">
<stop stop-color="#66B7BC"/>
<stop offset="0.385958" stop-color="#63E4F7" stop-opacity="0.05"/>
<stop offset="0.632008" stop-color="#63E4F7" stop-opacity="0"/>
</radialGradient>
<linearGradient id="paint14_linear_220_47762" x1="116.421" y1="151.735" x2="473.317" y2="92.7594" gradientUnits="userSpaceOnUse">
<stop stop-color="white" stop-opacity="0.5"/>
<stop offset="1" stop-color="white" stop-opacity="0"/>
</linearGradient>
<radialGradient id="paint15_radial_220_47762" cx="0" cy="0" r="1" gradientUnits="userSpaceOnUse" gradientTransform="translate(93.9096 94.8796) rotate(90) scale(94.8796 93.9096)">
<stop stop-color="#04F6FF"/>
<stop offset="1" stop-color="#04F6FF" stop-opacity="0"/>
</radialGradient>
<radialGradient id="paint16_radial_220_47762" cx="0" cy="0" r="1" gradientUnits="userSpaceOnUse" gradientTransform="translate(121.064 152.742) rotate(0.584307) scale(198.573 258.067)">
<stop stop-color="#00FFF6" stop-opacity="0.2"/>
<stop offset="0.201199" stop-color="#63E4F7" stop-opacity="0.05"/>
<stop offset="0.451851" stop-color="#63E4F7" stop-opacity="0"/>
</radialGradient>
<linearGradient id="paint17_linear_220_47762" x1="132.422" y1="213.287" x2="367.147" y2="175.966" gradientUnits="userSpaceOnUse">
<stop stop-color="#04F6FF" stop-opacity="0.2"/>
<stop offset="0.201199" stop-color="#63E4F7" stop-opacity="0.05"/>
<stop offset="0.322438" stop-color="#63E4F7" stop-opacity="0"/>
</linearGradient>
<linearGradient id="paint18_linear_220_47762" x1="133.034" y1="217.139" x2="367.76" y2="179.817" gradientUnits="userSpaceOnUse">
<stop stop-color="#04F6FF" stop-opacity="0.2"/>
<stop offset="0.0718237" stop-color="#63E4F7" stop-opacity="0.05"/>
<stop offset="0.252538" stop-color="#63E4F7" stop-opacity="0"/>
</linearGradient>
<radialGradient id="paint19_radial_220_47762" cx="0" cy="0" r="1" gradientUnits="userSpaceOnUse" gradientTransform="translate(117.537 152.336) rotate(-22.2135) scale(316.105 255.668)">
<stop stop-color="#63E4F7" stop-opacity="0.2"/>
<stop offset="0.0882064" stop-color="#63E4F7" stop-opacity="0.1"/>
<stop offset="0.365249" stop-color="#63E4F7" stop-opacity="0.05"/>
<stop offset="0.614337" stop-color="#63E4F7" stop-opacity="0"/>
</radialGradient>
<radialGradient id="paint20_radial_220_47762" cx="0" cy="0" r="1" gradientUnits="userSpaceOnUse" gradientTransform="translate(121.064 152.742) rotate(0.584307) scale(198.573 258.067)">
<stop stop-color="#66B7BC"/>
<stop offset="0.385958" stop-color="#63E4F7" stop-opacity="0.05"/>
<stop offset="0.632008" stop-color="#63E4F7" stop-opacity="0"/>
</radialGradient>
<radialGradient id="paint21_radial_220_47762" cx="0" cy="0" r="1" gradientUnits="userSpaceOnUse" gradientTransform="translate(140.968 277.92) rotate(-57.577) scale(295.714 173.293)">
<stop stop-color="#66B7BC"/>
<stop offset="0.385958" stop-color="#63E4F7" stop-opacity="0.05"/>
<stop offset="0.632008" stop-color="#63E4F7" stop-opacity="0"/>
</radialGradient>
<linearGradient id="paint22_linear_220_47762" x1="117.537" y1="152.336" x2="307.354" y2="236.833" gradientUnits="userSpaceOnUse">
<stop stop-color="white" stop-opacity="0.5"/>
<stop offset="1" stop-color="white" stop-opacity="0"/>
</linearGradient>
<radialGradient id="paint23_radial_220_47762" cx="0" cy="0" r="1" gradientUnits="userSpaceOnUse" gradientTransform="translate(75.4762 94.8796) rotate(90) scale(94.8796 75.4762)">
<stop stop-color="#04F6FF"/>
<stop offset="1" stop-color="#04F6FF" stop-opacity="0"/>
</radialGradient>
<radialGradient id="paint24_radial_220_47762" cx="0" cy="0" r="1" gradientUnits="userSpaceOnUse" gradientTransform="translate(139.567 277.321) rotate(-1.17596) scale(320.538 246.756)">
<stop stop-color="#00FFF6" stop-opacity="0.2"/>
<stop offset="0.201199" stop-color="#63E4F7" stop-opacity="0.05"/>
<stop offset="0.451851" stop-color="#63E4F7" stop-opacity="0"/>
</radialGradient>
<linearGradient id="paint25_linear_220_47762" x1="210.634" y1="333.652" x2="372.334" y2="137.885" gradientUnits="userSpaceOnUse">
<stop stop-color="#04F6FF" stop-opacity="0.2"/>
<stop offset="0.201199" stop-color="#63E4F7" stop-opacity="0.05"/>
<stop offset="0.322438" stop-color="#63E4F7" stop-opacity="0"/>
</linearGradient>
<linearGradient id="paint26_linear_220_47762" x1="214.978" y1="337.24" x2="376.678" y2="141.473" gradientUnits="userSpaceOnUse">
<stop stop-color="#04F6FF" stop-opacity="0.2"/>
<stop offset="0.0718237" stop-color="#63E4F7" stop-opacity="0.05"/>
<stop offset="0.252538" stop-color="#63E4F7" stop-opacity="0"/>
</linearGradient>
<radialGradient id="paint27_radial_220_47762" cx="0" cy="0" r="1" gradientUnits="userSpaceOnUse" gradientTransform="translate(133.552 277.091) rotate(-18.8343) scale(386.088 323.085)">
<stop stop-color="#63E4F7" stop-opacity="0.2"/>
<stop offset="0.0882064" stop-color="#63E4F7" stop-opacity="0.1"/>
<stop offset="0.365249" stop-color="#63E4F7" stop-opacity="0.05"/>
<stop offset="0.614337" stop-color="#63E4F7" stop-opacity="0"/>
</radialGradient>
<radialGradient id="paint28_radial_220_47762" cx="0" cy="0" r="1" gradientUnits="userSpaceOnUse" gradientTransform="translate(139.567 277.321) rotate(-1.17596) scale(320.538 246.756)">
<stop stop-color="#66B7BC"/>
<stop offset="0.385958" stop-color="#63E4F7" stop-opacity="0.05"/>
<stop offset="0.632008" stop-color="#63E4F7" stop-opacity="0"/>
</radialGradient>
<radialGradient id="paint29_radial_220_47762" cx="0" cy="0" r="1" gradientUnits="userSpaceOnUse" gradientTransform="translate(280.755 393.94) rotate(-81.3547) scale(243.783 324.448)">
<stop stop-color="#66B7BC"/>
<stop offset="0.385958" stop-color="#63E4F7" stop-opacity="0.05"/>
<stop offset="0.632008" stop-color="#63E4F7" stop-opacity="0"/>
</radialGradient>
<linearGradient id="paint30_linear_220_47762" x1="133.552" y1="277.091" x2="490.448" y2="218.116" gradientUnits="userSpaceOnUse">
<stop stop-color="white" stop-opacity="0.5"/>
<stop offset="1" stop-color="white" stop-opacity="0"/>
</linearGradient>
<radialGradient id="paint31_radial_220_47762" cx="0" cy="0" r="1" gradientUnits="userSpaceOnUse" gradientTransform="translate(93.9096 94.8796) rotate(90) scale(94.8796 93.9096)">
<stop stop-color="#04F6FF"/>
<stop offset="1" stop-color="#04F6FF" stop-opacity="0"/>
</radialGradient>
<radialGradient id="paint32_radial_220_47762" cx="0" cy="0" r="1" gradientUnits="userSpaceOnUse" gradientTransform="translate(310.636 159.951) rotate(-179.416) scale(198.573 258.067)">
<stop stop-color="#00FFF6" stop-opacity="0.2"/>
<stop offset="0.201199" stop-color="#63E4F7" stop-opacity="0.05"/>
<stop offset="0.451851" stop-color="#63E4F7" stop-opacity="0"/>
</radialGradient>
<linearGradient id="paint33_linear_220_47762" x1="299.278" y1="99.4059" x2="64.5522" y2="136.728" gradientUnits="userSpaceOnUse">
<stop stop-color="#04F6FF" stop-opacity="0.2"/>
<stop offset="0.201199" stop-color="#63E4F7" stop-opacity="0.05"/>
<stop offset="0.322438" stop-color="#63E4F7" stop-opacity="0"/>
</linearGradient>
<linearGradient id="paint34_linear_220_47762" x1="298.665" y1="95.5543" x2="63.9398" y2="132.876" gradientUnits="userSpaceOnUse">
<stop stop-color="#04F6FF" stop-opacity="0.2"/>
<stop offset="0.0718237" stop-color="#63E4F7" stop-opacity="0.05"/>
<stop offset="0.252538" stop-color="#63E4F7" stop-opacity="0"/>
</linearGradient>
<radialGradient id="paint35_radial_220_47762" cx="0" cy="0" r="1" gradientUnits="userSpaceOnUse" gradientTransform="translate(314.163 160.357) rotate(157.787) scale(316.105 255.668)">
<stop stop-color="#63E4F7" stop-opacity="0.2"/>
<stop offset="0.0882064" stop-color="#63E4F7" stop-opacity="0.1"/>
<stop offset="0.365249" stop-color="#63E4F7" stop-opacity="0.05"/>
<stop offset="0.614337" stop-color="#63E4F7" stop-opacity="0"/>
</radialGradient>
<radialGradient id="paint36_radial_220_47762" cx="0" cy="0" r="1" gradientUnits="userSpaceOnUse" gradientTransform="translate(310.636 159.951) rotate(-179.416) scale(198.573 258.067)">
<stop stop-color="#66B7BC"/>
<stop offset="0.385958" stop-color="#63E4F7" stop-opacity="0.05"/>
<stop offset="0.632008" stop-color="#63E4F7" stop-opacity="0"/>
</radialGradient>
<radialGradient id="paint37_radial_220_47762" cx="0" cy="0" r="1" gradientUnits="userSpaceOnUse" gradientTransform="translate(290.732 34.773) rotate(122.423) scale(295.714 173.293)">
<stop stop-color="#66B7BC"/>
<stop offset="0.385958" stop-color="#63E4F7" stop-opacity="0.05"/>
<stop offset="0.632008" stop-color="#63E4F7" stop-opacity="0"/>
</radialGradient>
<linearGradient id="paint38_linear_220_47762" x1="314.163" y1="160.357" x2="124.346" y2="75.8599" gradientUnits="userSpaceOnUse">
<stop stop-color="white" stop-opacity="0.5"/>
<stop offset="1" stop-color="white" stop-opacity="0"/>
</linearGradient>
<radialGradient id="paint39_radial_220_47762" cx="0" cy="0" r="1" gradientUnits="userSpaceOnUse" gradientTransform="translate(75.4762 94.8796) rotate(90) scale(94.8796 75.4762)">
<stop stop-color="#04F6FF"/>
<stop offset="1" stop-color="#04F6FF" stop-opacity="0"/>
</radialGradient>
<radialGradient id="paint40_radial_220_47762" cx="0" cy="0" r="1" gradientUnits="userSpaceOnUse" gradientTransform="translate(450.564 276.087) rotate(178.824) scale(320.538 246.756)">
<stop stop-color="#00FFF6" stop-opacity="0.2"/>
<stop offset="0.201199" stop-color="#63E4F7" stop-opacity="0.05"/>
<stop offset="0.451851" stop-color="#63E4F7" stop-opacity="0"/>
</radialGradient>
<linearGradient id="paint41_linear_220_47762" x1="379.496" y1="219.755" x2="217.797" y2="415.522" gradientUnits="userSpaceOnUse">
<stop stop-color="#04F6FF" stop-opacity="0.2"/>
<stop offset="0.201199" stop-color="#63E4F7" stop-opacity="0.05"/>
<stop offset="0.322438" stop-color="#63E4F7" stop-opacity="0"/>
</linearGradient>
<linearGradient id="paint42_linear_220_47762" x1="375.152" y1="216.167" x2="213.452" y2="411.934" gradientUnits="userSpaceOnUse">
<stop stop-color="#04F6FF" stop-opacity="0.2"/>
<stop offset="0.0718237" stop-color="#63E4F7" stop-opacity="0.05"/>
<stop offset="0.252538" stop-color="#63E4F7" stop-opacity="0"/>
</linearGradient>
<radialGradient id="paint43_radial_220_47762" cx="0" cy="0" r="1" gradientUnits="userSpaceOnUse" gradientTransform="translate(456.579 276.317) rotate(161.166) scale(386.088 323.085)">
<stop stop-color="#63E4F7" stop-opacity="0.2"/>
<stop offset="0.0882064" stop-color="#63E4F7" stop-opacity="0.1"/>
<stop offset="0.365249" stop-color="#63E4F7" stop-opacity="0.05"/>
<stop offset="0.614337" stop-color="#63E4F7" stop-opacity="0"/>
</radialGradient>
<radialGradient id="paint44_radial_220_47762" cx="0" cy="0" r="1" gradientUnits="userSpaceOnUse" gradientTransform="translate(450.564 276.087) rotate(178.824) scale(320.538 246.756)">
<stop stop-color="#66B7BC"/>
<stop offset="0.385958" stop-color="#63E4F7" stop-opacity="0.05"/>
<stop offset="0.632008" stop-color="#63E4F7" stop-opacity="0"/>
</radialGradient>
<radialGradient id="paint45_radial_220_47762" cx="0" cy="0" r="1" gradientUnits="userSpaceOnUse" gradientTransform="translate(309.375 159.467) rotate(98.6453) scale(243.783 324.448)">
<stop stop-color="#66B7BC"/>
<stop offset="0.385958" stop-color="#63E4F7" stop-opacity="0.05"/>
<stop offset="0.632008" stop-color="#63E4F7" stop-opacity="0"/>
</radialGradient>
<linearGradient id="paint46_linear_220_47762" x1="456.579" y1="276.316" x2="99.6823" y2="335.291" gradientUnits="userSpaceOnUse">
<stop stop-color="white" stop-opacity="0.5"/>
<stop offset="1" stop-color="white" stop-opacity="0"/>
</linearGradient>
<radialGradient id="paint47_radial_220_47762" cx="0" cy="0" r="1" gradientUnits="userSpaceOnUse" gradientTransform="translate(93.9096 94.8796) rotate(90) scale(94.8796 93.9096)">
<stop stop-color="#04F6FF"/>
<stop offset="1" stop-color="#04F6FF" stop-opacity="0"/>
</radialGradient>
<radialGradient id="paint48_radial_220_47762" cx="0" cy="0" r="1" gradientUnits="userSpaceOnUse" gradientTransform="translate(451.935 275.309) rotate(-179.416) scale(198.573 258.067)">
<stop stop-color="#00FFF6" stop-opacity="0.2"/>
<stop offset="0.201199" stop-color="#63E4F7" stop-opacity="0.05"/>
<stop offset="0.451851" stop-color="#63E4F7" stop-opacity="0"/>
</radialGradient>
<linearGradient id="paint49_linear_220_47762" x1="440.577" y1="214.764" x2="205.852" y2="252.085" gradientUnits="userSpaceOnUse">
<stop stop-color="#04F6FF" stop-opacity="0.2"/>
<stop offset="0.201199" stop-color="#63E4F7" stop-opacity="0.05"/>
<stop offset="0.322438" stop-color="#63E4F7" stop-opacity="0"/>
</linearGradient>
<linearGradient id="paint50_linear_220_47762" x1="439.965" y1="210.912" x2="205.239" y2="248.234" gradientUnits="userSpaceOnUse">
<stop stop-color="#04F6FF" stop-opacity="0.2"/>
<stop offset="0.0718237" stop-color="#63E4F7" stop-opacity="0.05"/>
<stop offset="0.252538" stop-color="#63E4F7" stop-opacity="0"/>
</linearGradient>
<radialGradient id="paint51_radial_220_47762" cx="0" cy="0" r="1" gradientUnits="userSpaceOnUse" gradientTransform="translate(455.462 275.714) rotate(157.787) scale(316.105 255.668)">
<stop stop-color="#63E4F7" stop-opacity="0.2"/>
<stop offset="0.0882064" stop-color="#63E4F7" stop-opacity="0.1"/>
<stop offset="0.365249" stop-color="#63E4F7" stop-opacity="0.05"/>
<stop offset="0.614337" stop-color="#63E4F7" stop-opacity="0"/>
</radialGradient>
<radialGradient id="paint52_radial_220_47762" cx="0" cy="0" r="1" gradientUnits="userSpaceOnUse" gradientTransform="translate(451.935 275.309) rotate(-179.416) scale(198.573 258.067)">
<stop stop-color="#66B7BC"/>
<stop offset="0.385958" stop-color="#63E4F7" stop-opacity="0.05"/>
<stop offset="0.632008" stop-color="#63E4F7" stop-opacity="0"/>
</radialGradient>
<radialGradient id="paint53_radial_220_47762" cx="0" cy="0" r="1" gradientUnits="userSpaceOnUse" gradientTransform="translate(432.031 150.131) rotate(122.423) scale(295.714 173.293)">
<stop stop-color="#66B7BC"/>
<stop offset="0.385958" stop-color="#63E4F7" stop-opacity="0.05"/>
<stop offset="0.632008" stop-color="#63E4F7" stop-opacity="0"/>
</radialGradient>
<linearGradient id="paint54_linear_220_47762" x1="455.463" y1="275.714" x2="265.645" y2="191.218" gradientUnits="userSpaceOnUse">
<stop stop-color="white" stop-opacity="0.5"/>
<stop offset="1" stop-color="white" stop-opacity="0"/>
</linearGradient>
<radialGradient id="paint55_radial_220_47762" cx="0" cy="0" r="1" gradientUnits="userSpaceOnUse" gradientTransform="translate(75.4762 94.8796) rotate(90) scale(94.8796 75.4762)">
<stop stop-color="#04F6FF"/>
<stop offset="1" stop-color="#04F6FF" stop-opacity="0"/>
</radialGradient>
<radialGradient id="paint56_radial_220_47762" cx="0" cy="0" r="1" gradientUnits="userSpaceOnUse" gradientTransform="translate(433.433 150.73) rotate(178.824) scale(320.538 246.756)">
<stop stop-color="#00FFF6" stop-opacity="0.2"/>
<stop offset="0.201199" stop-color="#63E4F7" stop-opacity="0.05"/>
<stop offset="0.451851" stop-color="#63E4F7" stop-opacity="0"/>
</radialGradient>
<linearGradient id="paint57_linear_220_47762" x1="362.366" y1="94.4002" x2="200.666" y2="290.167" gradientUnits="userSpaceOnUse">
<stop stop-color="#04F6FF" stop-opacity="0.2"/>
<stop offset="0.201199" stop-color="#63E4F7" stop-opacity="0.05"/>
<stop offset="0.322438" stop-color="#63E4F7" stop-opacity="0"/>
</linearGradient>
<linearGradient id="paint58_linear_220_47762" x1="358.021" y1="90.8119" x2="196.322" y2="286.579" gradientUnits="userSpaceOnUse">
<stop stop-color="#04F6FF" stop-opacity="0.2"/>
<stop offset="0.0718237" stop-color="#63E4F7" stop-opacity="0.05"/>
<stop offset="0.252538" stop-color="#63E4F7" stop-opacity="0"/>
</linearGradient>
<radialGradient id="paint59_radial_220_47762" cx="0" cy="0" r="1" gradientUnits="userSpaceOnUse" gradientTransform="translate(439.448 150.96) rotate(161.166) scale(386.088 323.085)">
<stop stop-color="#63E4F7" stop-opacity="0.2"/>
<stop offset="0.0882064" stop-color="#63E4F7" stop-opacity="0.1"/>
<stop offset="0.365249" stop-color="#63E4F7" stop-opacity="0.05"/>
<stop offset="0.614337" stop-color="#63E4F7" stop-opacity="0"/>
</radialGradient>
<radialGradient id="paint60_radial_220_47762" cx="0" cy="0" r="1" gradientUnits="userSpaceOnUse" gradientTransform="translate(433.433 150.73) rotate(178.824) scale(320.538 246.756)">
<stop stop-color="#66B7BC"/>
<stop offset="0.385958" stop-color="#63E4F7" stop-opacity="0.05"/>
<stop offset="0.632008" stop-color="#63E4F7" stop-opacity="0"/>
</radialGradient>
<radialGradient id="paint61_radial_220_47762" cx="0" cy="0" r="1" gradientUnits="userSpaceOnUse" gradientTransform="translate(292.244 34.112) rotate(98.6453) scale(243.783 324.448)">
<stop stop-color="#66B7BC"/>
<stop offset="0.385958" stop-color="#63E4F7" stop-opacity="0.05"/>
<stop offset="0.632008" stop-color="#63E4F7" stop-opacity="0"/>
</radialGradient>
<linearGradient id="paint62_linear_220_47762" x1="439.448" y1="150.96" x2="82.5515" y2="209.936" gradientUnits="userSpaceOnUse">
<stop stop-color="white" stop-opacity="0.5"/>
<stop offset="1" stop-color="white" stop-opacity="0"/>
</linearGradient>
<radialGradient id="paint63_radial_220_47762" cx="0" cy="0" r="1" gradientUnits="userSpaceOnUse" gradientTransform="translate(93.9096 94.8796) rotate(90) scale(94.8796 93.9096)">
<stop stop-color="#04F6FF"/>
<stop offset="1" stop-color="#04F6FF" stop-opacity="0"/>
</radialGradient>
</defs>
</svg>
