<svg width="588" height="137" viewBox="0 0 588 137" fill="none" xmlns="http://www.w3.org/2000/svg">
<path d="M14.5365 0.694332L14.5365 136.789L658.835 136.095L658.835 -2.3757e-06L14.5365 0.694332Z" fill="url(#paint0_radial_137_39894)"/>
<path d="M0.427979 -3.05176e-05L0.427973 134.706L654.132 134.706L654.132 -1.96488e-06L0.427979 -3.05176e-05Z" fill="url(#paint1_linear_137_39894)"/>
<path d="M0.427979 -3.05176e-05L0.427973 134.706L654.132 134.707L654.132 -1.96488e-06L0.427979 -3.05176e-05Z" fill="url(#paint2_linear_137_39894)"/>
<path d="M14.5365 -3.05176e-05L14.5365 134.706L654.132 134.706L654.132 -2.58111e-06L14.5365 -3.05176e-05Z" fill="url(#paint3_radial_137_39894)"/>
<path d="M658.835 136.095L14.5365 136.789L14.5365 134.706L654.132 134.706L654.132 0.00506576L658.835 -2.3757e-06L658.835 134.706L658.835 136.095Z" fill="url(#paint4_radial_137_39894)"/>
<path d="M658.835 0.694318L14.5364 -7.62939e-05L14.5364 2.08302L654.132 2.08305L654.132 136.784L658.835 136.789L658.835 2.08305L658.835 0.694318Z" fill="url(#paint5_radial_137_39894)"/>
<mask id="mask0_137_39894" style="mask-type:alpha" maskUnits="userSpaceOnUse" x="14" y="0" width="641" height="135">
<path d="M14.5355 -3.05176e-05L14.5355 134.706L654.131 134.706L654.131 -2.58111e-06L14.5355 -3.05176e-05Z" fill="url(#paint6_linear_137_39894)"/>
</mask>
<g mask="url(#mask0_137_39894)">
<g filter="url(#filter0_f_137_39894)">
<ellipse cx="69.4362" cy="235.146" rx="69.4362" ry="235.146" transform="matrix(-4.37445e-08 1 1 4.36783e-08 381.364 44.4393)" fill="url(#paint7_radial_137_39894)"/>
</g>
</g>
<defs>
<filter id="filter0_f_137_39894" x="279.32" y="-57.6052" width="674.38" height="342.962" filterUnits="userSpaceOnUse" color-interpolation-filters="sRGB">
<feFlood flood-opacity="0" result="BackgroundImageFix"/>
<feBlend mode="normal" in="SourceGraphic" in2="BackgroundImageFix" result="shape"/>
<feGaussianBlur stdDeviation="51.0223" result="effect1_foregroundBlur_137_39894"/>
</filter>
<radialGradient id="paint0_radial_137_39894" cx="0" cy="0" r="1" gradientUnits="userSpaceOnUse" gradientTransform="translate(658.835 136.095) rotate(-165.816) scale(555.415 271.084)">
<stop stop-color="#00FF90" stop-opacity="0.2"/>
<stop offset="0.201199" stop-color="#63F7CF" stop-opacity="0.05"/>
<stop offset="0.451851" stop-color="#63F7CF" stop-opacity="0"/>
</radialGradient>
<linearGradient id="paint1_linear_137_39894" x1="654.132" y1="69.4362" x2="0.427991" y2="69.4363" gradientUnits="userSpaceOnUse">
<stop stop-color="#04FFA4" stop-opacity="0.2"/>
<stop offset="0.201199" stop-color="#63F7CF" stop-opacity="0.05"/>
<stop offset="0.322438" stop-color="#63F7CF" stop-opacity="0"/>
</linearGradient>
<linearGradient id="paint2_linear_137_39894" x1="654.132" y1="65.27" x2="0.42799" y2="65.2702" gradientUnits="userSpaceOnUse">
<stop stop-color="#04FFA4" stop-opacity="0.2"/>
<stop offset="0.0718237" stop-color="#63F7CF" stop-opacity="0.05"/>
<stop offset="0.252538" stop-color="#63F7CF" stop-opacity="0"/>
</linearGradient>
<radialGradient id="paint3_radial_137_39894" cx="0" cy="0" r="1" gradientUnits="userSpaceOnUse" gradientTransform="translate(668.241 138.872) rotate(-174.518) scale(850.413 279.22)">
<stop stop-color="#63F7CF" stop-opacity="0.2"/>
<stop offset="0.0882064" stop-color="#63F7CF" stop-opacity="0.1"/>
<stop offset="0.365249" stop-color="#63F7CF" stop-opacity="0.05"/>
<stop offset="0.614337" stop-color="#63F7CF" stop-opacity="0"/>
</radialGradient>
<radialGradient id="paint4_radial_137_39894" cx="0" cy="0" r="1" gradientUnits="userSpaceOnUse" gradientTransform="translate(658.835 136.095) rotate(-165.816) scale(555.415 271.084)">
<stop stop-color="#66BC9E"/>
<stop offset="0.385958" stop-color="#63F7CF" stop-opacity="0.05"/>
<stop offset="0.632008" stop-color="#63F7CF" stop-opacity="0"/>
</radialGradient>
<radialGradient id="paint5_radial_137_39894" cx="0" cy="0" r="1" gradientUnits="userSpaceOnUse" gradientTransform="translate(658.835 0.694408) rotate(165.816) scale(555.415 271.084)">
<stop stop-color="#66BC9E"/>
<stop offset="0.385958" stop-color="#63F7CF" stop-opacity="0.05"/>
<stop offset="0.632008" stop-color="#63F7CF" stop-opacity="0"/>
</radialGradient>
<linearGradient id="paint6_linear_137_39894" x1="668.24" y1="138.872" x2="525.206" y2="-209.606" gradientUnits="userSpaceOnUse">
<stop stop-color="white" stop-opacity="0.5"/>
<stop offset="1" stop-color="white" stop-opacity="0"/>
</linearGradient>
<radialGradient id="paint7_radial_137_39894" cx="0" cy="0" r="1" gradientUnits="userSpaceOnUse" gradientTransform="translate(69.4362 235.146) rotate(90) scale(235.146 69.4362)">
<stop stop-color="#04FFA4"/>
<stop offset="1" stop-color="#04FFA4" stop-opacity="0"/>
</radialGradient>
</defs>
</svg>
