<svg width="462" height="444" viewBox="0 0 462 444" fill="none" xmlns="http://www.w3.org/2000/svg">
<path opacity="0.28" d="M232.199 442.111L1.58208 312.599C1.32544 312.455 1.32358 312.086 1.57875 311.939L232.195 179.343C232.313 179.276 232.458 179.276 232.575 179.344L460.43 311.94C460.683 312.087 460.681 312.453 460.427 312.598L232.572 442.11C232.456 442.176 232.315 442.176 232.199 442.111Z" fill="url(#paint0_linear_771_92868)" fill-opacity="0.42" stroke="url(#paint1_linear_771_92868)" stroke-width="1.89682"/>
<path d="M231.999 226.082L88.4849 141.904C88.2365 141.758 88.2347 141.399 88.4816 141.251L231.996 55.0688C232.117 54.9963 232.268 54.9967 232.388 55.0699L374.184 141.252C374.429 141.401 374.427 141.756 374.181 141.903L232.385 226.081C232.266 226.151 232.119 226.152 231.999 226.082Z" fill="url(#paint2_linear_771_92868)" stroke="url(#paint3_linear_771_92868)" stroke-width="1.13809"/>
<path d="M231.999 391.646L88.4849 307.468C88.2365 307.323 88.2347 306.964 88.4816 306.816L231.996 220.634C232.117 220.561 232.268 220.561 232.388 220.635L374.184 306.817C374.429 306.966 374.427 307.321 374.181 307.467L232.385 391.645C232.266 391.716 232.119 391.716 231.999 391.646Z" fill="url(#paint4_linear_771_92868)" stroke="url(#paint5_linear_771_92868)" stroke-width="1.13809"/>
<path opacity="0.6" d="M375.596 141.239L375.596 305.567C375.596 305.7 375.526 305.824 375.412 305.892L231.799 392.066C231.545 392.219 231.222 392.034 231.225 391.737L232.945 225.406C232.946 225.273 233.016 225.151 233.13 225.083L375.023 140.913C375.276 140.763 375.596 140.945 375.596 141.239Z" fill="url(#paint6_linear_771_92868)" stroke="url(#paint7_linear_771_92868)" stroke-width="1.13809"/>
<path opacity="0.6" d="M87.9336 141.237L87.9336 305.444C87.9336 305.577 88.0034 305.701 88.1175 305.769L231.3 391.851C231.553 392.004 231.875 391.821 231.875 391.526L231.875 225.616C231.875 225.482 231.804 225.358 231.688 225.289L88.5056 140.91C88.2527 140.761 87.9336 140.943 87.9336 141.237Z" fill="url(#paint8_linear_771_92868)" stroke="url(#paint9_linear_771_92868)" stroke-width="1.13809"/>
<path d="M234.794 99.7637L164.466 61.8975C164.202 61.7551 164.2 61.3763 164.463 61.2312L234.791 22.4634C234.905 22.4003 235.044 22.4006 235.159 22.4644L304.644 61.2322C304.905 61.3777 304.903 61.7537 304.641 61.8966L235.155 99.7628C235.043 99.8242 234.907 99.8245 234.794 99.7637Z" fill="url(#paint10_linear_771_92868)" stroke="url(#paint11_linear_771_92868)" stroke-width="1.13809"/>
<path d="M232.298 50.0153L185.22 26.1746C184.944 26.0349 184.942 25.6417 185.217 25.4994L232.294 1.09108C232.404 1.03401 232.535 1.03433 232.645 1.09195L279.159 25.5002C279.431 25.6431 279.429 26.0335 279.156 26.1738L232.642 50.0144C232.534 50.0698 232.406 50.0701 232.298 50.0153Z" fill="url(#paint12_linear_771_92868)" stroke="url(#paint13_linear_771_92868)" stroke-opacity="0.65" stroke-width="1.13809"/>
<path d="M234.374 321.532L35.467 210.005C35.2101 209.861 35.2082 209.492 35.4637 209.345L234.37 95.1637C234.488 95.0962 234.633 95.0966 234.75 95.1647L431.274 209.346C431.528 209.494 431.526 209.86 431.271 210.004L234.747 321.531C234.631 321.596 234.49 321.597 234.374 321.532Z" fill="url(#paint14_linear_771_92868)" fill-opacity="0.7" stroke="url(#paint15_linear_771_92868)" stroke-opacity="0.44" stroke-width="1.89682"/>
<path opacity="0.6" d="M232.176 369.451L5.29604 242.139C5.03924 241.995 5.03738 241.626 5.29271 241.48L232.172 111.137C232.29 111.069 232.435 111.07 232.552 111.138L456.715 241.481C456.968 241.628 456.966 241.994 456.711 242.138L232.549 369.45C232.433 369.516 232.292 369.516 232.176 369.451Z" fill="url(#paint16_linear_771_92868)" fill-opacity="0.7" stroke="url(#paint17_linear_771_92868)" stroke-width="1.89682"/>
<path opacity="0.6" d="M231.996 420.487L35.2199 310.078C34.9631 309.934 34.9612 309.565 35.2166 309.418L231.993 196.38C232.11 196.312 232.255 196.313 232.372 196.381L426.792 309.419C427.045 309.566 427.043 309.932 426.789 310.077L232.369 420.486C232.254 420.552 232.112 420.552 231.996 420.487Z" fill="url(#paint18_linear_771_92868)" fill-opacity="0.42" stroke="url(#paint19_linear_771_92868)" stroke-width="1.89682"/>
<defs>
<linearGradient id="paint0_linear_771_92868" x1="231" y1="179.234" x2="231" y2="442.216" gradientUnits="userSpaceOnUse">
<stop stop-color="#24F462" stop-opacity="0"/>
<stop offset="0.40625" stop-color="#24E7F4" stop-opacity="0.14"/>
<stop offset="0.697917" stop-color="#24EF98" stop-opacity="0.683158"/>
<stop offset="1" stop-color="#24F462"/>
</linearGradient>
<linearGradient id="paint1_linear_771_92868" x1="231" y1="179.234" x2="231" y2="442.216" gradientUnits="userSpaceOnUse">
<stop offset="0.244792" stop-color="#41EAD4" stop-opacity="0.06"/>
<stop offset="1" stop-color="#41EAD4"/>
<stop offset="1" stop-color="#41EAD4" stop-opacity="0.78"/>
</linearGradient>
<linearGradient id="paint2_linear_771_92868" x1="231.329" y1="54.9508" x2="231.329" y2="226.195" gradientUnits="userSpaceOnUse">
<stop stop-color="#24F462" stop-opacity="0"/>
<stop offset="0.473958" stop-color="#24F462" stop-opacity="0.28"/>
<stop offset="1" stop-color="#24E7F4" stop-opacity="0.75"/>
</linearGradient>
<linearGradient id="paint3_linear_771_92868" x1="231.329" y1="54.9508" x2="231.329" y2="226.195" gradientUnits="userSpaceOnUse">
<stop offset="0.140625" stop-color="#24E7F4" stop-opacity="0"/>
<stop offset="1" stop-color="#24E7F4"/>
</linearGradient>
<linearGradient id="paint4_linear_771_92868" x1="231.329" y1="220.516" x2="231.329" y2="391.76" gradientUnits="userSpaceOnUse">
<stop stop-color="#24F462" stop-opacity="0"/>
<stop offset="0.505208" stop-color="#24E7F4" stop-opacity="0.6"/>
<stop offset="1" stop-color="#24F462" stop-opacity="0.81"/>
</linearGradient>
<linearGradient id="paint5_linear_771_92868" x1="231.329" y1="220.516" x2="231.329" y2="391.76" gradientUnits="userSpaceOnUse">
<stop offset="0.140625" stop-color="#24E7F4" stop-opacity="0"/>
<stop offset="1" stop-color="#24F462"/>
</linearGradient>
<linearGradient id="paint6_linear_771_92868" x1="232.082" y1="392.415" x2="232.082" y2="221.163" gradientUnits="userSpaceOnUse">
<stop stop-color="#24F462" stop-opacity="0"/>
<stop offset="0.567708" stop-color="#C6FFF3" stop-opacity="0.82"/>
<stop offset="1" stop-color="#24E7F4" stop-opacity="0.75"/>
</linearGradient>
<linearGradient id="paint7_linear_771_92868" x1="232.082" y1="392.415" x2="232.082" y2="221.163" gradientUnits="userSpaceOnUse">
<stop offset="0.140625" stop-color="#24E7F4" stop-opacity="0"/>
<stop offset="1" stop-color="#24E7F4"/>
</linearGradient>
<linearGradient id="paint8_linear_771_92868" x1="230.453" y1="392.228" x2="230.453" y2="221.103" gradientUnits="userSpaceOnUse">
<stop stop-color="#24F462" stop-opacity="0"/>
<stop offset="0.567708" stop-color="#C6FFF3" stop-opacity="0.82"/>
<stop offset="1" stop-color="#24E7F4" stop-opacity="0.75"/>
</linearGradient>
<linearGradient id="paint9_linear_771_92868" x1="230.453" y1="392.228" x2="230.453" y2="221.103" gradientUnits="userSpaceOnUse">
<stop offset="0.140625" stop-color="#24E7F4" stop-opacity="0"/>
<stop offset="1" stop-color="#24E7F4"/>
</linearGradient>
<linearGradient id="paint10_linear_771_92868" x1="234.549" y1="22.3619" x2="234.549" y2="99.8611" gradientUnits="userSpaceOnUse">
<stop stop-color="#24F462" stop-opacity="0"/>
<stop offset="0.40625" stop-color="#24E7F4" stop-opacity="0.14"/>
<stop offset="0.697917" stop-color="#24EF98" stop-opacity="0.683158"/>
<stop offset="1" stop-color="#24F462"/>
</linearGradient>
<linearGradient id="paint11_linear_771_92868" x1="234.549" y1="22.3619" x2="234.549" y2="99.8611" gradientUnits="userSpaceOnUse">
<stop offset="0.0520833" stop-color="#24F462" stop-opacity="0"/>
<stop offset="1" stop-color="#24F462" stop-opacity="0.78"/>
</linearGradient>
<linearGradient id="paint12_linear_771_92868" x1="232.183" y1="1" x2="232.183" y2="50.1026" gradientUnits="userSpaceOnUse">
<stop stop-color="#24F462" stop-opacity="0"/>
<stop offset="0.40625" stop-color="#C6FFF3" stop-opacity="0.47"/>
<stop offset="1" stop-color="#41EAD4"/>
</linearGradient>
<linearGradient id="paint13_linear_771_92868" x1="232.183" y1="1" x2="232.183" y2="50.1026" gradientUnits="userSpaceOnUse">
<stop offset="0.21875" stop-color="#11FFE2" stop-opacity="0"/>
<stop offset="0.942708" stop-color="#11FFE2" stop-opacity="0.71"/>
</linearGradient>
<linearGradient id="paint14_linear_771_92868" x1="233.365" y1="95.0546" x2="233.365" y2="321.636" gradientUnits="userSpaceOnUse">
<stop stop-color="#24F462" stop-opacity="0"/>
<stop offset="0.40625" stop-color="#24E7F4" stop-opacity="0.14"/>
<stop offset="0.697917" stop-color="#24EF98" stop-opacity="0.683158"/>
<stop offset="1" stop-color="#24F462"/>
</linearGradient>
<linearGradient id="paint15_linear_771_92868" x1="233.365" y1="95.0546" x2="233.365" y2="321.636" gradientUnits="userSpaceOnUse">
<stop offset="0.244792" stop-color="#24F462" stop-opacity="0"/>
<stop offset="1" stop-color="#24F462"/>
</linearGradient>
<linearGradient id="paint16_linear_771_92868" x1="230.999" y1="111.028" x2="230.999" y2="369.556" gradientUnits="userSpaceOnUse">
<stop stop-color="#24F462" stop-opacity="0"/>
<stop offset="0.40625" stop-color="#24E7F4" stop-opacity="0.14"/>
<stop offset="0.697917" stop-color="#24EF98" stop-opacity="0.683158"/>
<stop offset="1" stop-color="#24F462"/>
</linearGradient>
<linearGradient id="paint17_linear_771_92868" x1="230.999" y1="111.028" x2="230.999" y2="369.556" gradientUnits="userSpaceOnUse">
<stop offset="0.244792" stop-color="#24F462" stop-opacity="0"/>
<stop offset="1" stop-color="#24F462"/>
</linearGradient>
<linearGradient id="paint18_linear_771_92868" x1="231" y1="196.271" x2="231" y2="420.592" gradientUnits="userSpaceOnUse">
<stop stop-color="#24F462" stop-opacity="0"/>
<stop offset="0.40625" stop-color="#24E7F4" stop-opacity="0.14"/>
<stop offset="0.697917" stop-color="#24EF98" stop-opacity="0.683158"/>
<stop offset="1" stop-color="#24F462"/>
</linearGradient>
<linearGradient id="paint19_linear_771_92868" x1="231" y1="196.271" x2="231" y2="420.592" gradientUnits="userSpaceOnUse">
<stop offset="0.244792" stop-color="#41EAD4" stop-opacity="0.06"/>
<stop offset="1" stop-color="#41EAD4"/>
<stop offset="1" stop-color="#41EAD4" stop-opacity="0.78"/>
</linearGradient>
</defs>
</svg>
