<svg width="90" height="38" viewBox="0 0 90 38" fill="none" xmlns="http://www.w3.org/2000/svg">
<path d="M0.864746 7.42212L45.2084 18.4186L89.5161 7.25229" stroke="url(#paint0_linear_458_63298)" stroke-width="2.21629"/>
<g opacity="0.2" filter="url(#filter0_f_458_63298)">
<path d="M40.0946 19.1861C39.608 17.0075 41.3491 14.8483 43.9836 14.3634C46.618 13.8785 49.1481 15.2514 49.6348 17.43C50.1214 19.6087 48.3802 21.7679 45.7458 22.2528C43.1113 22.7377 40.5812 21.3647 40.0946 19.1861Z" fill="#5DE7C1"/>
</g>
<g opacity="0.1" filter="url(#filter1_f_458_63298)">
<path d="M37.4004 19.8233C36.7628 16.9686 39.4493 14.0647 43.401 13.3374C47.3527 12.61 51.073 14.3345 51.7107 17.1892C52.3483 20.0439 49.6618 22.9478 45.7101 23.6752C41.7584 24.4026 38.0381 22.678 37.4004 19.8233Z" fill="#5DE7C1"/>
</g>
<g opacity="0.06" filter="url(#filter2_f_458_63298)">
<path d="M35.3553 20.1989C34.5498 16.5929 37.9393 12.9256 42.926 12.0077C47.9126 11.0898 52.608 13.2689 53.4134 16.8749C54.2189 20.4808 50.8294 24.1482 45.8427 25.066C40.8561 25.9839 36.1607 23.8048 35.3553 20.1989Z" fill="#5DE7C1"/>
</g>
<g opacity="0.06" filter="url(#filter3_f_458_63298)">
<path d="M32.5673 20.4292C31.3927 15.1705 35.8559 9.91071 42.5361 8.68108C49.2163 7.45145 55.5839 10.7177 56.7585 15.9763C57.9331 21.235 53.4699 26.4949 46.7897 27.7245C40.1095 28.9541 33.7419 25.6879 32.5673 20.4292Z" fill="url(#paint1_radial_458_63298)"/>
</g>
<g opacity="0.1" filter="url(#filter4_f_458_63298)">
<path d="M30.2145 21.0049C28.7882 14.6194 34.1152 8.2495 42.1126 6.77741C50.11 5.30532 57.7495 9.28847 59.1758 15.674C60.6021 22.0596 55.2751 28.4294 47.2777 29.9015C39.2803 31.3736 31.6408 27.3905 30.2145 21.0049Z" fill="url(#paint2_radial_458_63298)"/>
</g>
<g opacity="0.1" filter="url(#filter5_f_458_63298)">
<path d="M26.6515 22.5146C24.8237 14.3258 31.9607 6.0998 42.5923 4.14139C53.2239 2.18298 63.3243 7.23373 65.152 15.4226C66.9797 23.6114 59.8428 31.8374 49.2112 33.7958C38.5795 35.7542 28.4792 30.7034 26.6515 22.5146Z" fill="url(#paint3_radial_458_63298)"/>
</g>
<g filter="url(#filter6_f_458_63298)">
<ellipse cx="2.72488" cy="2.37426" rx="2.72488" ry="2.37426" transform="matrix(-0.983478 0.181029 -0.217992 -0.975951 47.5327 20.24)" fill="#C6FFF3" fill-opacity="0.82"/>
</g>
<g opacity="0.7" filter="url(#filter7_f_458_63298)">
<ellipse cx="2.5291" cy="2.14076" rx="2.5291" ry="2.14076" transform="matrix(-0.985523 0.171662 -0.231879 -0.973293 47.3367 20.031)" fill="#5DE7C1"/>
</g>
<g filter="url(#filter8_f_458_63298)">
<ellipse cx="1.72976" cy="1.46359" rx="1.72976" ry="1.46359" transform="matrix(-0.985523 0.171662 -0.231879 -0.973293 46.3799 19.5115)" fill="#C6FFF3" fill-opacity="0.82"/>
</g>
<g filter="url(#filter9_f_458_63298)">
<ellipse cx="1.03461" cy="0.916945" rx="1.03461" ry="0.916945" transform="matrix(-0.985522 0.171667 -0.231874 -0.973294 45.897 19.0396)" fill="#C6FFF3" fill-opacity="0.82"/>
</g>
<defs>
<filter id="filter0_f_458_63298" x="37.9234" y="12.1764" width="13.8824" height="12.2632" filterUnits="userSpaceOnUse" color-interpolation-filters="sRGB">
<feFlood flood-opacity="0" result="BackgroundImageFix"/>
<feBlend mode="normal" in="SourceGraphic" in2="BackgroundImageFix" result="shape"/>
<feGaussianBlur stdDeviation="1.04475" result="effect1_foregroundBlur_458_63298"/>
</filter>
<filter id="filter1_f_458_63298" x="35.2174" y="11.0814" width="18.6763" height="14.8497" filterUnits="userSpaceOnUse" color-interpolation-filters="sRGB">
<feFlood flood-opacity="0" result="BackgroundImageFix"/>
<feBlend mode="normal" in="SourceGraphic" in2="BackgroundImageFix" result="shape"/>
<feGaussianBlur stdDeviation="1.04475" result="effect1_foregroundBlur_458_63298"/>
</filter>
<filter id="filter2_f_458_63298" x="33.1473" y="9.70835" width="22.4739" height="17.657" filterUnits="userSpaceOnUse" color-interpolation-filters="sRGB">
<feFlood flood-opacity="0" result="BackgroundImageFix"/>
<feBlend mode="normal" in="SourceGraphic" in2="BackgroundImageFix" result="shape"/>
<feGaussianBlur stdDeviation="1.04475" result="effect1_foregroundBlur_458_63298"/>
</filter>
<filter id="filter3_f_458_63298" x="30.2901" y="6.33261" width="28.7454" height="23.7403" filterUnits="userSpaceOnUse" color-interpolation-filters="sRGB">
<feFlood flood-opacity="0" result="BackgroundImageFix"/>
<feBlend mode="normal" in="SourceGraphic" in2="BackgroundImageFix" result="shape"/>
<feGaussianBlur stdDeviation="1.04475" result="effect1_foregroundBlur_458_63298"/>
</filter>
<filter id="filter4_f_458_63298" x="27.8941" y="4.38193" width="33.6021" height="27.9151" filterUnits="userSpaceOnUse" color-interpolation-filters="sRGB">
<feFlood flood-opacity="0" result="BackgroundImageFix"/>
<feBlend mode="normal" in="SourceGraphic" in2="BackgroundImageFix" result="shape"/>
<feGaussianBlur stdDeviation="1.04475" result="effect1_foregroundBlur_458_63298"/>
</filter>
<filter id="filter5_f_458_63298" x="24.2765" y="1.63022" width="43.2505" height="34.6766" filterUnits="userSpaceOnUse" color-interpolation-filters="sRGB">
<feFlood flood-opacity="0" result="BackgroundImageFix"/>
<feBlend mode="normal" in="SourceGraphic" in2="BackgroundImageFix" result="shape"/>
<feGaussianBlur stdDeviation="1.04475" result="effect1_foregroundBlur_458_63298"/>
</filter>
<filter id="filter6_f_458_63298" x="39.7772" y="14.2183" width="9.11635" height="8.39564" filterUnits="userSpaceOnUse" color-interpolation-filters="sRGB">
<feFlood flood-opacity="0" result="BackgroundImageFix"/>
<feBlend mode="normal" in="SourceGraphic" in2="BackgroundImageFix" result="shape"/>
<feGaussianBlur stdDeviation="0.914158" result="effect1_foregroundBlur_458_63298"/>
</filter>
<filter id="filter7_f_458_63298" x="39.7164" y="14.1634" width="9.26275" height="8.43633" filterUnits="userSpaceOnUse" color-interpolation-filters="sRGB">
<feFlood flood-opacity="0" result="BackgroundImageFix"/>
<feBlend mode="normal" in="SourceGraphic" in2="BackgroundImageFix" result="shape"/>
<feGaussianBlur stdDeviation="1.04475" result="effect1_foregroundBlur_458_63298"/>
</filter>
<filter id="filter8_f_458_63298" x="40.7689" y="15.1002" width="7.13368" height="6.56752" filterUnits="userSpaceOnUse" color-interpolation-filters="sRGB">
<feFlood flood-opacity="0" result="BackgroundImageFix"/>
<feBlend mode="normal" in="SourceGraphic" in2="BackgroundImageFix" result="shape"/>
<feGaussianBlur stdDeviation="0.914158" result="effect1_foregroundBlur_458_63298"/>
</filter>
<filter id="filter9_f_458_63298" x="41.7947" y="15.5862" width="5.74013" height="5.47694" filterUnits="userSpaceOnUse" color-interpolation-filters="sRGB">
<feFlood flood-opacity="0" result="BackgroundImageFix"/>
<feBlend mode="normal" in="SourceGraphic" in2="BackgroundImageFix" result="shape"/>
<feGaussianBlur stdDeviation="0.914158" result="effect1_foregroundBlur_458_63298"/>
</filter>
<linearGradient id="paint0_linear_458_63298" x1="89.5341" y1="18.3311" x2="0.882675" y2="18.475" gradientUnits="userSpaceOnUse">
<stop stop-color="#24E7F4" stop-opacity="0"/>
<stop offset="0.511669" stop-color="#5AFF43"/>
<stop offset="0.981087" stop-color="#41EAD4" stop-opacity="0"/>
</linearGradient>
<radialGradient id="paint1_radial_458_63298" cx="0" cy="0" r="1" gradientUnits="userSpaceOnUse" gradientTransform="translate(44.6629 18.2028) rotate(-102.591) scale(9.75634 12.29)">
<stop stop-color="#5DE7C1"/>
<stop offset="1" stop-color="#5DE7C1" stop-opacity="0"/>
</radialGradient>
<radialGradient id="paint2_radial_458_63298" cx="0" cy="0" r="1" gradientUnits="userSpaceOnUse" gradientTransform="translate(44.6951 18.3395) rotate(-102.591) scale(11.847 14.7134)">
<stop stop-color="#5DE7C1"/>
<stop offset="1" stop-color="#5DE7C1" stop-opacity="0"/>
</radialGradient>
<radialGradient id="paint3_radial_458_63298" cx="0" cy="0" r="1" gradientUnits="userSpaceOnUse" gradientTransform="translate(45.9017 18.9686) rotate(-102.582) scale(15.192 19.5604)">
<stop stop-color="#5DE7C1"/>
<stop offset="1" stop-color="#5DE7C1" stop-opacity="0"/>
</radialGradient>
</defs>
</svg>
