<svg width="381" height="380" viewBox="0 0 381 380" fill="none" xmlns="http://www.w3.org/2000/svg">
<g filter="url(#filter0_d_359_78375)">
<mask id="path-1-inside-1_359_78375" fill="white">
<path d="M187.958 55.6617C170.316 55.9557 152.91 59.7216 136.733 66.7443C120.557 73.7671 105.927 83.9092 93.6783 96.5916C81.43 109.274 71.8034 124.248 65.348 140.659C58.8927 157.07 55.735 174.597 56.0554 192.239C56.3757 209.88 60.1677 227.291 67.215 243.477C74.2623 259.663 84.4267 274.308 97.128 286.574C109.829 298.841 124.819 308.489 141.24 314.969C157.662 321.448 175.194 324.632 192.836 324.338L191.49 250.218C183.582 250.35 175.723 248.923 168.362 246.018C161.001 243.114 154.282 238.789 148.588 233.29C142.895 227.792 138.339 221.227 135.18 213.972C132.021 206.716 130.321 198.911 130.177 191.003C130.034 183.095 131.449 175.239 134.343 167.882C137.236 160.526 141.552 153.814 147.042 148.129C152.532 142.444 159.09 137.897 166.342 134.749C173.593 131.601 181.395 129.913 189.304 129.781L187.958 55.6617Z"/>
</mask>
<path d="M187.958 55.6617C170.316 55.9557 152.91 59.7216 136.733 66.7443C120.557 73.7671 105.927 83.9092 93.6783 96.5916C81.43 109.274 71.8034 124.248 65.348 140.659C58.8927 157.07 55.735 174.597 56.0554 192.239C56.3757 209.88 60.1677 227.291 67.215 243.477C74.2623 259.663 84.4267 274.308 97.128 286.574C109.829 298.841 124.819 308.489 141.24 314.969C157.662 321.448 175.194 324.632 192.836 324.338L191.49 250.218C183.582 250.35 175.723 248.923 168.362 246.018C161.001 243.114 154.282 238.789 148.588 233.29C142.895 227.792 138.339 221.227 135.18 213.972C132.021 206.716 130.321 198.911 130.177 191.003C130.034 183.095 131.449 175.239 134.343 167.882C137.236 160.526 141.552 153.814 147.042 148.129C152.532 142.444 159.09 137.897 166.342 134.749C173.593 131.601 181.395 129.913 189.304 129.781L187.958 55.6617Z" fill="url(#paint0_radial_359_78375)" shape-rendering="crispEdges"/>
<path d="M187.958 55.6617C170.316 55.9557 152.91 59.7216 136.733 66.7443C120.557 73.7671 105.927 83.9092 93.6783 96.5916C81.43 109.274 71.8034 124.248 65.348 140.659C58.8927 157.07 55.735 174.597 56.0554 192.239C56.3757 209.88 60.1677 227.291 67.215 243.477C74.2623 259.663 84.4267 274.308 97.128 286.574C109.829 298.841 124.819 308.489 141.24 314.969C157.662 321.448 175.194 324.632 192.836 324.338L191.49 250.218C183.582 250.35 175.723 248.923 168.362 246.018C161.001 243.114 154.282 238.789 148.588 233.29C142.895 227.792 138.339 221.227 135.18 213.972C132.021 206.716 130.321 198.911 130.177 191.003C130.034 183.095 131.449 175.239 134.343 167.882C137.236 160.526 141.552 153.814 147.042 148.129C152.532 142.444 159.09 137.897 166.342 134.749C173.593 131.601 181.395 129.913 189.304 129.781L187.958 55.6617Z" stroke="url(#paint1_radial_359_78375)" stroke-width="1.97689" shape-rendering="crispEdges" mask="url(#path-1-inside-1_359_78375)"/>
</g>
<g filter="url(#filter1_f_359_78375)">
<mask id="path-2-inside-2_359_78375" fill="white">
<path d="M187.958 55.6617C170.316 55.9557 152.91 59.7216 136.733 66.7443C120.557 73.7671 105.927 83.9092 93.6783 96.5916C81.43 109.274 71.8034 124.248 65.348 140.659C58.8927 157.07 55.735 174.597 56.0554 192.239C56.3757 209.88 60.1677 227.291 67.215 243.477C74.2623 259.663 84.4267 274.308 97.128 286.574C109.829 298.841 124.819 308.489 141.24 314.969C157.662 321.448 175.194 324.632 192.836 324.338L191.49 250.218C183.582 250.35 175.723 248.923 168.362 246.018C161.001 243.114 154.282 238.789 148.588 233.29C142.895 227.792 138.339 221.227 135.18 213.972C132.021 206.716 130.321 198.911 130.177 191.003C130.034 183.095 131.449 175.239 134.343 167.882C137.236 160.526 141.552 153.814 147.042 148.129C152.532 142.444 159.09 137.897 166.342 134.749C173.593 131.601 181.395 129.913 189.304 129.781L187.958 55.6617Z"/>
</mask>
<path d="M187.958 55.6617C170.316 55.9557 152.91 59.7216 136.733 66.7443C120.557 73.7671 105.927 83.9092 93.6783 96.5916C81.43 109.274 71.8034 124.248 65.348 140.659C58.8927 157.07 55.735 174.597 56.0554 192.239C56.3757 209.88 60.1677 227.291 67.215 243.477C74.2623 259.663 84.4267 274.308 97.128 286.574C109.829 298.841 124.819 308.489 141.24 314.969C157.662 321.448 175.194 324.632 192.836 324.338L191.49 250.218C183.582 250.35 175.723 248.923 168.362 246.018C161.001 243.114 154.282 238.789 148.588 233.29C142.895 227.792 138.339 221.227 135.18 213.972C132.021 206.716 130.321 198.911 130.177 191.003C130.034 183.095 131.449 175.239 134.343 167.882C137.236 160.526 141.552 153.814 147.042 148.129C152.532 142.444 159.09 137.897 166.342 134.749C173.593 131.601 181.395 129.913 189.304 129.781L187.958 55.6617Z" stroke="url(#paint2_radial_359_78375)" stroke-width="1.97689" mask="url(#path-2-inside-2_359_78375)"/>
</g>
<path d="M171.952 66.6177C142.66 71.1871 115.95 85.9899 96.5636 108.398C77.1768 130.807 66.3671 159.372 66.0533 189.023C65.7396 218.673 75.942 247.492 94.8497 270.363C113.757 293.234 140.147 308.677 169.335 313.953L170.722 306.216C143.364 301.271 118.629 286.796 100.906 265.358C83.184 243.921 73.6211 216.909 73.9152 189.117C74.2093 161.326 84.3413 134.551 102.513 113.548C120.684 92.5439 145.72 78.6691 173.175 74.3861L171.952 66.6177Z" fill="url(#paint3_linear_359_78375)"/>
<g filter="url(#filter2_d_359_78375)">
<path d="M192.415 284.933C214.673 284.545 236.1 276.411 253.008 261.931C269.917 247.45 281.249 227.529 285.054 205.595C288.86 183.661 284.901 161.087 273.859 141.757C262.817 122.427 240.273 90.3748 187.563 90.3748L188.766 129.25C216.577 131.454 234.736 148.457 241.476 160.256C248.215 172.054 250.632 185.832 248.309 199.22C245.986 212.607 239.069 224.766 228.749 233.605C218.429 242.443 205.351 247.407 191.766 247.644L192.415 284.933Z" fill="url(#paint4_radial_359_78375)" shape-rendering="crispEdges"/>
<path d="M252.687 261.555C235.991 275.854 214.867 283.932 192.901 284.429L192.268 248.127C205.792 247.779 218.789 242.786 229.071 233.98C239.478 225.067 246.453 212.805 248.796 199.304C251.138 185.803 248.701 171.908 241.905 160.01C235.131 148.153 216.993 131.156 189.246 128.794L188.073 90.87C214.051 90.9726 232.604 98.9127 246.036 109.209C259.564 119.58 267.921 132.359 273.43 142.002C284.415 161.232 288.353 183.69 284.567 205.511C280.781 227.331 269.508 247.15 252.687 261.555Z" stroke="url(#paint5_radial_359_78375)" stroke-width="0.988446" shape-rendering="crispEdges"/>
</g>
<g filter="url(#filter3_f_359_78375)">
<path d="M252.685 261.344C235.946 275.68 214.766 283.779 192.743 284.277L192.109 247.879C205.667 247.53 218.698 242.524 229.007 233.696C239.441 224.76 246.434 212.466 248.782 198.931C251.131 185.396 248.688 171.466 241.874 159.537C240.143 156.508 237.09 153.21 233.224 149.976C229.351 146.736 224.636 143.538 219.552 140.714C209.575 135.173 198.109 131.034 188.747 130.892L188.747 91.5949C214.974 90.8221 233.365 98.441 246.575 108.637C259.877 118.904 267.955 131.805 273.482 141.481C284.495 160.761 288.444 183.277 284.648 205.154C280.853 227.031 269.55 246.901 252.685 261.344Z" stroke="url(#paint6_radial_359_78375)" stroke-width="0.988446"/>
</g>
<path d="M231.431 299.928C255.184 290.962 275.687 275.536 290.348 255.602C305.01 235.667 313.17 212.118 313.798 187.933C314.426 163.749 307.493 140.014 293.876 119.732C280.259 99.4489 260.569 83.5288 237.296 73.9846L232.406 84.5164C253.497 93.1661 271.342 107.594 283.682 125.976C296.023 144.357 302.307 165.867 301.738 187.785C301.169 209.703 293.773 231.044 280.486 249.111C267.199 267.177 248.617 281.157 227.09 289.283L231.431 299.928Z" fill="url(#paint7_linear_359_78375)"/>
<path fill-rule="evenodd" clip-rule="evenodd" d="M248.54 182.786L247.947 182.597L244.5 184.748L242.346 185.178L242.634 187.76H244.931L246.08 189.051L247.372 191.202H249.111C249.108 192.1 249.086 192.994 249.044 193.882L247.947 192.923L245.793 192.493L245.362 193.497L248.96 195.294C246.779 225.983 221.191 250.201 189.947 250.201C164.168 250.201 142.239 233.714 134.132 210.708H135.796L136.801 211.712L136.226 213.433H140.678L141.827 214.724H145.13L146.996 213.72L150.299 214.581L155.469 216.589L162.649 217.449L163.367 216.875H166.095L170.116 218.453L168.967 217.162L168.68 216.445L169.829 216.015L170.547 215.154L169.254 214.007H167.531L166.813 214.867H164.659L162.649 213.29L162.792 211.282L160.207 210.421H156.617L154.894 208.27L153.602 209.13L153.315 210.708L145.273 210.421V209.417L144.412 208.126L141.683 208.844L139.816 206.979L138.811 206.692L138.093 208.126L137.232 208.413V207.122H135.652L134.503 206.692L133.407 208.516C133.135 207.635 132.883 206.745 132.652 205.847L132.78 205.975L134.072 203.537V200.668L132.78 199.377V197.513L134.503 195.505L133.785 193.927L132.206 191.919L130.786 191.636C130.784 191.437 130.783 191.237 130.783 191.037C130.783 158.362 157.272 131.873 189.947 131.873C219.822 131.873 244.526 154.017 248.54 182.786ZM172.27 216.015L170.977 216.445L173.419 218.453L174.855 217.736V216.445L172.27 216.015ZM180.168 218.453L181.604 217.162L183.614 217.736L185.194 219.601L183.471 220.318L181.173 220.461L180.168 220.031V218.453ZM190.22 217.162L185.337 215.441L184.619 216.589L186.773 218.597L187.204 219.314H188.497V218.597H190.22V217.162ZM190.938 221.465H193.81L197.4 223.903L197.113 225.194L195.677 225.481L192.805 223.186L189.645 222.612L190.938 221.465ZM199.985 218.166L197.831 216.589H195.677L194.241 217.879V219.027H197.4L197.831 219.744H199.697L199.985 218.166ZM200.559 218.453L201.708 217.449L203.144 217.879L202.713 219.027L201.133 219.744L200.559 218.453ZM207.308 215.441H206.303L204.58 217.449L204.149 218.597L206.734 217.593L207.739 216.302L207.308 215.441ZM213.77 221.178L215.924 219.744L217.073 218.166L221.237 217.879L222.243 217.162H224.827L225.258 218.31L222.961 219.314L217.647 220.748L215.637 222.182L211.76 225.051H209.893L210.324 222.182L213.77 221.178ZM132.206 187.903L131.057 189.624L132.062 190.198H132.636L134.072 191.059V192.636L135.508 193.927L136.944 194.214L137.232 192.35L135.221 191.059L135.078 190.055L134.647 189.768V188.334L134.072 187.186L133.211 188.334L132.206 187.903ZM150.155 173.417V174.565L153.889 177.577L155.899 176.573L157.479 177.433L159.489 177.29L161.931 174.278L163.079 174.134L166.957 175.856L170.834 174.852L173.419 171.696L173.131 168.541L174.711 168.254L175.716 167.393L174.998 164.812L177.009 162.804L183.183 163.091L184.763 165.529H182.322V167.393L185.768 171.266L184.763 172.413V173.274L189.215 177.29H185.194L183.614 179.728V185.322H181.173L177.87 188.907L178.732 189.768L178.875 190.342L178.157 190.772L177.583 191.346L178.875 193.067L176.865 194.788L176.434 196.652L171.265 199.377V197.083L169.972 195.075H168.68L167.531 196.509L164.085 193.21L163.367 194.071V195.361L162.361 195.935L160.925 195.218L160.207 196.509L158.915 196.652L159.202 193.497L158.484 192.78L157.048 194.358H154.751V193.354H153.889L153.027 194.358L152.166 193.927L151.591 187.33L148.145 184.891L148.72 184.605V183.601L147.571 182.883L147.427 182.166L148.432 181.593L148.145 180.732L146.709 179.441V176.573L147.571 175.425L148.289 173.561L149.294 172.413L150.155 173.417ZM192.948 180.589V184.748L191.799 185.035L191.225 186.899V189.768L188.497 193.067L189.215 194.358V196.652H191.799L192.661 197.369V202.963L191.799 203.393V205.401H194.241L195.533 204.254V202.389L196.538 201.385L195.533 200.238L195.246 197.943H196.107V195.505L195.246 194.644L197.113 192.78H199.123V194.644L197.974 195.505V197.083L200.846 198.947V201.385L202.139 202.389L203.575 201.385V200.238H206.59L204.005 197.369V195.792L204.867 194.644L199.985 190.055V189.051L201.564 189.768L205.441 187.616L206.159 186.039H208.601L208.17 184.174L206.59 183.887L205.441 185.035H204.005L203.144 186.039L201.277 184.748L199.123 187.33H197.113L196.538 185.609L194.241 184.748V182.023L196.107 179.728H207.308L208.601 180.875L212.909 180.589L216.355 175.856L215.781 173.274L214.488 174.278L213.627 175.425V177.29L212.047 177.72H208.17L206.59 178.294L204.436 177.29H201.277L199.697 175.425H197.543L196.538 177.29L195.246 177.003L192.948 180.589ZM227.412 176.573L228.417 177.72L230.428 174.995L232.007 175.856V176.86L230.141 179.011L232.295 180.158V180.875L231.289 181.449L228.992 180.158L227.987 181.879L230.715 184.748L230.141 185.609L226.694 181.879L225.833 177.863L226.12 174.995L227.412 173.274L228.417 172.7V174.995L227.412 176.573ZM223.679 194.644H221.381L220.376 195.505L221.381 197.226H223.966L225.689 196.796L223.679 194.644ZM232.725 193.067L233.587 194.071L235.454 194.214L237.608 193.067L240.767 194.931L241.341 197.513L240.049 197.8L237.033 195.218L235.741 196.222L234.449 195.935L232.725 194.931L230.141 195.935L229.135 194.214V193.067H232.725Z" fill="url(#paint8_radial_359_78375)"/>
<path d="M88.6804 156.535L91.1207 157.252L93.1304 158.542H98.7287L101.743 161.123V163.704L108.777 167.432V169.439L113.083 172.593L113.657 170.729L115.236 173.883H116.959L117.964 174.744V175.747L120.117 177.898L123.706 178.328L125.715 180.479L123.706 183.776L126.002 185.21L127.869 185.64V188.938L129.448 189.654L128.586 191.088L129.448 191.805L130.452 191.088L132.606 191.518L134.185 193.525L134.902 195.103L133.18 197.11V198.974L134.472 200.264V203.131L133.18 205.569L131.888 204.278L130.452 205.569L129.448 204.278L128.873 206.716L126.864 203.848L118.969 198.257L118.251 195.819L112.796 190.801V187.934L107.629 179.762H105.906L103.322 173.453L101.743 171.589L98.7287 170.873L98.4416 167.575L95.7142 164.708H93.7045L91.1207 161.983L88.6804 159.116V156.535Z" stroke="#5DE7C1" stroke-width="0.988446"/>
<path d="M133.18 209.153L131.314 209.583L132.893 210.3H136.194L137.199 211.304L136.625 213.024H141.075L142.223 214.315H145.525L147.391 213.311L150.692 214.171L155.86 216.178L163.037 217.039L163.755 216.465H166.482L170.502 218.042L169.353 216.752L169.066 216.035L170.215 215.605L170.932 214.745L169.641 213.598H167.918L167.2 214.458H165.047L163.037 212.881L163.181 210.874L160.597 210.013H157.008L155.286 207.863L153.994 208.723L153.707 210.3L145.668 210.013V209.01L144.807 207.719L142.08 208.436L140.214 206.572L139.209 206.286L138.491 207.719L137.63 208.006V206.716H136.051L134.902 206.286L133.18 209.153Z" stroke="#5DE7C1" stroke-width="0.988446"/>
<path d="M171.363 216.035L172.655 215.605L175.239 216.035V217.325L173.803 218.042L171.363 216.035Z" stroke="#5DE7C1" stroke-width="0.988446"/>
<path d="M180.55 218.042L181.985 216.752L183.995 217.325L185.574 219.189L183.852 219.906L181.555 220.049L180.55 219.619V218.042Z" stroke="#5DE7C1" stroke-width="0.988446"/>
<path d="M185 216.178L185.718 215.031L190.598 216.752V218.186H188.876V218.902H187.584L187.153 218.186L185 216.178Z" stroke="#5DE7C1" stroke-width="0.988446"/>
<path d="M191.316 221.053H194.187L197.776 223.49L197.488 224.781L196.053 225.068L193.182 222.774L190.024 222.2L191.316 221.053Z" stroke="#5DE7C1" stroke-width="0.988446"/>
<path d="M198.206 216.178L200.359 217.756L200.072 219.333H198.206L197.776 218.616H194.618V217.469L196.053 216.178H198.206Z" stroke="#5DE7C1" stroke-width="0.988446"/>
<path d="M200.934 218.042L202.082 217.039L203.517 217.469L203.087 218.616L201.508 219.333L200.934 218.042Z" stroke="#5DE7C1" stroke-width="0.988446"/>
<path d="M204.953 217.039L206.675 215.031H207.68L208.111 215.892L207.106 217.182L204.522 218.186L204.953 217.039Z" stroke="#5DE7C1" stroke-width="0.988446"/>
<path d="M214.14 220.766L216.293 219.333L217.441 217.756L221.604 217.469L222.609 216.752H225.193L225.624 217.899L223.327 218.902L218.016 220.336L216.006 221.77L212.13 224.637H210.264L210.695 221.77L214.14 220.766Z" stroke="#5DE7C1" stroke-width="0.988446"/>
<path d="M131.457 189.224L132.606 187.504L133.61 187.934L134.472 186.787L135.046 187.934V189.368L135.476 189.654L135.62 190.658L137.63 191.948L137.343 193.812L135.907 193.525L134.472 192.235V190.658L133.036 189.798H132.462L131.457 189.224Z" stroke="#5DE7C1" stroke-width="0.988446"/>
<path d="M150.549 173.023V174.17L154.281 177.181L156.291 176.177L157.87 177.038L159.879 176.894L162.32 173.883L163.468 173.74L167.344 175.461L171.22 174.457L173.803 171.303L173.516 168.148L175.095 167.862L176.1 167.002L175.382 164.421L177.392 162.414L183.564 162.7L185.144 165.138H182.703V167.002L186.148 170.873L185.144 172.02V172.88L189.593 176.894H185.574L183.995 179.332V184.923H181.555L178.253 188.507L179.115 189.368L179.258 189.941L178.54 190.371L177.966 190.945L179.258 192.665L177.248 194.386L176.818 196.25L171.65 198.974V196.68L170.358 194.672H169.066L167.918 196.106L164.473 192.809L163.755 193.669V194.959L162.75 195.533L161.315 194.816L160.597 196.106L159.305 196.25L159.592 193.095L158.875 192.379L157.439 193.956H155.142V192.952H154.281L153.42 193.956L152.559 193.525L151.984 186.93L148.539 184.493L149.113 184.206V183.203L147.965 182.486L147.821 181.769L148.826 181.195L148.539 180.335L147.104 179.045V176.177L147.965 175.03L148.683 173.167L149.688 172.02L150.549 173.023Z" stroke="#5DE7C1" stroke-width="0.988446"/>
<path d="M193.326 184.35V180.192L195.622 176.607L196.914 176.894L197.919 175.03H200.072L201.651 176.894H204.809L206.963 177.898L208.542 177.324H212.417L213.996 176.894V175.03L214.858 173.883L216.149 172.88L216.724 175.461L213.279 180.192L208.972 180.479L207.68 179.332H196.484L194.618 181.626V184.35L196.914 185.21L197.488 186.93H199.498L201.651 184.35L203.517 185.64L204.379 184.636H205.814L206.963 183.489L208.542 183.776L208.972 185.64H206.532L205.814 187.217L201.938 189.368L200.359 188.651V189.654L205.24 194.242L204.379 195.389V196.966L206.963 199.834H203.948V200.981L202.513 201.984L201.221 200.981V198.544L198.35 196.68V195.103L199.498 194.242V192.379H197.488L195.622 194.242L196.484 195.103V197.54H195.622L195.909 199.834L196.914 200.981L195.909 201.984V203.848L194.618 204.995H192.177V202.988L193.039 202.558V196.966L192.177 196.25H189.593V193.956L188.876 192.665L191.603 189.368V186.5L192.177 184.636L193.326 184.35Z" stroke="#5DE7C1" stroke-width="0.988446"/>
<path d="M227.777 176.177L228.782 177.324L230.791 174.6L232.37 175.461V176.464L230.504 178.615L232.657 179.762V180.479L231.652 181.052L229.356 179.762L228.351 181.482L231.078 184.35L230.504 185.21L227.059 181.482L226.198 177.468L226.485 174.6L227.777 172.88L228.782 172.306V174.6L227.777 176.177Z" stroke="#5DE7C1" stroke-width="0.988446"/>
<path d="M221.748 194.242H224.045L226.054 196.393L224.332 196.823H221.748L220.743 195.103L221.748 194.242Z" stroke="#5DE7C1" stroke-width="0.988446"/>
<path d="M233.088 192.665L233.949 193.669L235.815 193.812L237.969 192.665L241.127 194.529L241.701 197.11L240.409 197.397L237.394 194.816L236.102 195.819L234.811 195.533L233.088 194.529L230.504 195.533L229.499 193.812V192.665H233.088Z" stroke="#5DE7C1" stroke-width="0.988446"/>
<path d="M242.993 187.36L242.706 184.78L244.859 184.35L248.304 182.199L255.481 184.493L255.625 187.36L254.476 188.077L254.907 189.941L253.184 190.801H247.73L246.438 188.651L245.289 187.36H242.993Z" stroke="#5DE7C1" stroke-width="0.988446"/>
<path d="M254.907 191.088H255.912L256.773 193.095L258.209 192.522V194.672L259.213 195.676H261.51L264.668 190.515H268.544L268.687 188.651L271.415 187.074L284.908 192.665V208.006L283.76 210.157L285.052 211.447V220.336L280.602 216.322H276.439L277.013 213.024L275.003 211.017L276.726 210.157L273.424 208.15L272.42 204.995L270.266 202.415L258.639 199.834V197.683L255.912 197.97L254.476 197.11V194.242L253.184 194.959V197.11L251.462 198.974H250.314L249.452 197.397L250.026 196.823L250.601 196.25L249.452 194.959L245.72 193.095L246.151 192.092L248.304 192.522L249.452 193.525L250.314 192.092L251.749 191.805L253.615 192.522L254.907 191.088Z" stroke="#5DE7C1" stroke-width="0.988446"/>
<path d="M275.291 213.024L273.424 212.594L271.128 215.748V217.039H273.999L275.578 215.175L275.291 213.024Z" stroke="#5DE7C1" stroke-width="0.988446"/>
<g filter="url(#filter4_f_359_78375)">
<path d="M88.6804 156.535L91.1207 157.256L93.1304 158.554H98.7287L101.743 161.15V163.746L108.777 167.495V169.514L113.083 172.687L113.657 170.812L115.236 173.985H116.959L117.964 174.85V175.86L120.117 178.023L123.706 178.455L125.715 180.619L123.706 183.935L126.002 185.378L127.869 185.81V189.127L129.448 189.848L128.586 191.29L129.448 192.011L130.452 191.29L132.606 191.723L134.185 193.742L134.902 195.328L133.18 197.347V199.222L134.472 200.52V203.404L133.18 205.856L131.888 204.558L130.452 205.856L129.448 204.558L128.873 207.009L126.864 204.125L118.969 198.501L118.251 196.049L112.796 191.002V188.118L107.629 179.898H105.906L103.322 173.552L101.743 171.677L98.7287 170.956L98.4416 167.64L95.7142 164.755H93.7045L91.1207 162.015L88.6804 159.131V156.535Z" stroke="#A0FFE5" stroke-width="0.988446"/>
<path d="M133.18 209.461L131.314 209.893L132.893 210.615H136.194L137.199 211.624L136.625 213.355H141.075L142.223 214.652H145.525L147.391 213.643L150.692 214.508L155.86 216.527L163.037 217.392L163.755 216.816H166.482L170.502 218.402L169.353 217.104L169.066 216.383L170.215 215.95L170.932 215.085L169.641 213.931H167.918L167.2 214.797H165.047L163.037 213.21L163.181 211.191L160.597 210.326H157.008L155.286 208.163L153.994 209.028L153.707 210.615L145.668 210.326V209.317L144.807 208.019L142.08 208.74L140.214 206.865L139.209 206.577L138.491 208.019L137.63 208.307V207.009H136.051L134.902 206.577L133.18 209.461Z" stroke="#A0FFE5" stroke-width="0.988446"/>
<path d="M171.363 216.383L172.655 215.95L175.239 216.383V217.681L173.803 218.402L171.363 216.383Z" stroke="#A0FFE5" stroke-width="0.988446"/>
<path d="M180.55 218.402L181.985 217.104L183.995 217.681L185.574 219.556L183.852 220.277L181.555 220.421L180.55 219.988V218.402Z" stroke="#A0FFE5" stroke-width="0.988446"/>
<path d="M185 216.527L185.718 215.374L190.598 217.104V218.546H188.876V219.267H187.584L187.153 218.546L185 216.527Z" stroke="#A0FFE5" stroke-width="0.988446"/>
<path d="M191.316 221.43H194.187L197.776 223.882L197.488 225.18L196.053 225.468L193.182 223.161L190.024 222.584L191.316 221.43Z" stroke="#A0FFE5" stroke-width="0.988446"/>
<path d="M198.206 216.527L200.359 218.114L200.072 219.7H198.206L197.776 218.979H194.618V217.825L196.053 216.527H198.206Z" stroke="#A0FFE5" stroke-width="0.988446"/>
<path d="M200.934 218.402L202.082 217.392L203.517 217.825L203.087 218.979L201.508 219.7L200.934 218.402Z" stroke="#A0FFE5" stroke-width="0.988446"/>
<path d="M204.953 217.392L206.675 215.374H207.68L208.111 216.239L207.106 217.537L204.522 218.546L204.953 217.392Z" stroke="#A0FFE5" stroke-width="0.988446"/>
<path d="M214.14 221.142L216.293 219.7L217.441 218.114L221.604 217.825L222.609 217.104H225.193L225.624 218.258L223.327 219.267L218.016 220.709L216.006 222.151L212.13 225.036H210.264L210.695 222.151L214.14 221.142Z" stroke="#A0FFE5" stroke-width="0.988446"/>
<path d="M131.457 189.415L132.606 187.685L133.61 188.118L134.472 186.964L135.046 188.118V189.56L135.476 189.848L135.62 190.858L137.63 192.155L137.343 194.03L135.907 193.742L134.472 192.444V190.858L133.036 189.992H132.462L131.457 189.415Z" stroke="#A0FFE5" stroke-width="0.988446"/>
<path d="M150.549 173.12V174.273L154.281 177.302L156.291 176.292L157.87 177.158L159.879 177.013L162.32 173.985L163.468 173.841L167.344 175.571L171.22 174.562L173.803 171.389L173.516 168.216L175.095 167.928L176.1 167.063L175.382 164.467L177.392 162.448L183.564 162.736L185.144 165.188H182.703V167.063L186.148 170.956L185.144 172.11V172.975L189.593 177.013H185.574L183.995 179.465V185.089H181.555L178.253 188.694L179.115 189.56L179.258 190.137L178.54 190.569L177.966 191.146L179.258 192.877L177.248 194.607L176.818 196.482L171.65 199.222V196.914L170.358 194.895H169.066L167.918 196.338L164.473 193.021L163.755 193.886V195.184L162.75 195.761L161.315 195.04L160.597 196.338L159.305 196.482L159.592 193.309L158.875 192.588L157.439 194.174H155.142V193.165H154.281L153.42 194.174L152.559 193.742L151.984 187.108L148.539 184.656L149.113 184.368V183.359L147.965 182.638L147.821 181.916L148.826 181.34L148.539 180.474L147.104 179.176V176.292L147.965 175.139L148.683 173.264L149.688 172.11L150.549 173.12Z" stroke="#A0FFE5" stroke-width="0.988446"/>
<path d="M193.326 184.512V180.33L195.622 176.725L196.914 177.013L197.919 175.139H200.072L201.651 177.013H204.809L206.963 178.023L208.542 177.446H212.417L213.996 177.013V175.139L214.858 173.985L216.149 172.975L216.724 175.571L213.279 180.33L208.972 180.619L207.68 179.465H196.484L194.618 181.772V184.512L196.914 185.378L197.488 187.108H199.498L201.651 184.512L203.517 185.81L204.379 184.801H205.814L206.963 183.647L208.542 183.935L208.972 185.81H206.532L205.814 187.397L201.938 189.56L200.359 188.839V189.848L205.24 194.463L204.379 195.617V197.203L206.963 200.087H203.948V201.241L202.513 202.25L201.221 201.241V198.789L198.35 196.914V195.328L199.498 194.463V192.588H197.488L195.622 194.463L196.484 195.328V197.78H195.622L195.909 200.087L196.914 201.241L195.909 202.25V204.125L194.618 205.279H192.177V203.26L193.039 202.827V197.203L192.177 196.482H189.593V194.174L188.876 192.877L191.603 189.56V186.675L192.177 184.801L193.326 184.512Z" stroke="#A0FFE5" stroke-width="0.988446"/>
<path d="M227.777 176.292L228.782 177.446L230.791 174.706L232.37 175.571V176.581L230.504 178.744L232.657 179.898V180.619L231.652 181.195L229.356 179.898L228.351 181.628L231.078 184.512L230.504 185.378L227.059 181.628L226.198 177.59L226.485 174.706L227.777 172.975L228.782 172.399V174.706L227.777 176.292Z" stroke="#A0FFE5" stroke-width="0.988446"/>
<path d="M221.748 194.463H224.045L226.054 196.626L224.332 197.059H221.748L220.743 195.328L221.748 194.463Z" stroke="#A0FFE5" stroke-width="0.988446"/>
<path d="M233.088 192.877L233.949 193.886L235.815 194.03L237.969 192.877L241.127 194.751L241.701 197.347L240.409 197.636L237.394 195.04L236.102 196.049L234.811 195.761L233.088 194.751L230.504 195.761L229.499 194.03V192.877H233.088Z" stroke="#A0FFE5" stroke-width="0.988446"/>
<path d="M242.993 187.541L242.706 184.945L244.859 184.512L248.304 182.349L255.481 184.656L255.625 187.541L254.476 188.262L254.907 190.137L253.184 191.002H247.73L246.438 188.839L245.289 187.541H242.993Z" stroke="#A0FFE5" stroke-width="0.988446"/>
<path d="M254.907 191.29H255.912L256.773 193.309L258.209 192.732V194.895L259.213 195.905H261.51L264.668 190.713H268.544L268.687 188.839L271.415 187.252L284.908 192.877V208.307L283.76 210.47L285.052 211.768V220.709L280.602 216.671H276.439L277.013 213.355L275.003 211.336L276.726 210.47L273.424 208.451L272.42 205.279L270.266 202.683L258.639 200.087V197.924L255.912 198.212L254.476 197.347V194.463L253.184 195.184V197.347L251.462 199.222H250.314L249.452 197.636L250.026 197.059L250.601 196.482L249.452 195.184L245.72 193.309L246.151 192.3L248.304 192.732L249.452 193.742L250.314 192.3L251.749 192.011L253.615 192.732L254.907 191.29Z" stroke="#A0FFE5" stroke-width="0.988446"/>
<path d="M275.291 213.355L273.424 212.922L271.128 216.095V217.392H273.999L275.578 215.518L275.291 213.355Z" stroke="#A0FFE5" stroke-width="0.988446"/>
</g>
<path d="M97.3807 261.236C97.8776 261.949 98.3746 262.662 98.8633 263.362C96.1021 265.298 93.3408 267.234 90.5677 269.178C89.7312 267.978 88.8698 266.742 88.0167 265.519C85.2538 261.531 91.4162 257.211 94.1909 261.191L95.2594 262.723L97.3807 261.236ZM92.2912 262.54C91.4795 261.376 89.0715 262.958 89.9211 264.202C90.2571 264.709 90.6417 265.235 90.9813 265.722C91.6568 265.249 92.6759 264.534 93.3514 264.061L92.2912 262.54Z" fill="#B2FFF6"/>
<path d="M91.2742 251.751C91.702 252.507 92.1298 253.263 92.5506 254.007C89.6193 255.674 86.688 257.341 83.7441 259.015C83.0239 257.742 82.2823 256.431 81.5478 255.133C79.1716 250.904 85.7135 247.183 88.1023 251.406L89.0222 253.032L91.2742 251.751ZM86.084 252.57C85.3852 251.335 82.8388 252.683 83.5679 254.001C83.8548 254.538 84.1882 255.098 84.4806 255.614C85.1977 255.207 86.2796 254.591 86.9967 254.184L86.084 252.57Z" fill="#B2FFF6"/>
<path d="M86.0594 241.681C86.4254 242.501 86.7797 243.294 87.1339 244.087L77.8907 248.235C77.5364 247.442 77.1822 246.649 76.8161 245.829L80.3154 244.259L80.2386 244.087C79.1818 241.72 77.4655 242.633 75.7357 243.409C75.3755 242.603 75.0154 241.796 74.6493 240.976C76.5376 240.129 78.257 239.294 80.2529 240.604L83.1981 236.267L83.5678 236.101L84.7428 238.732L82.0735 242.374C82.268 242.668 82.3979 242.959 82.5337 243.263L86.0594 241.681Z" fill="#B2FFF6"/>
<path d="M73.5683 228.681C74.1439 228.486 74.9402 228.536 75.4816 228.872C75.6147 227.956 76.2022 227.343 77.0519 227.055C78.7285 226.5 80.4285 227.055 81.0916 229.016L82.6128 233.516L73.0193 236.774L71.6327 232.672C71.0716 231.013 71.91 229.244 73.5683 228.681ZM77.342 230.489L78.0005 232.436L79.6314 231.883L78.9682 229.921C78.6343 228.933 77.0081 229.501 77.342 230.489ZM73.8904 232.12L74.4098 233.656L75.9585 233.13L75.4344 231.58C75.1052 230.606 73.5565 231.132 73.8904 232.12Z" fill="#B2FFF6"/>
<path d="M76.5503 210.383L72.5887 216.333L77.4815 215.409C77.6476 216.291 77.8136 217.173 77.977 218.041L67.9781 219.93L67.804 219.005L71.7771 213.039L66.8985 213.96C66.7351 213.092 66.5717 212.224 66.4083 211.356L76.3788 209.473L76.5503 210.383Z" fill="#B2FFF6"/>
<path d="M70.0319 196.492C77.0295 195.923 77.8717 206.284 70.8741 206.853C63.8909 207.421 63.0487 197.06 70.0319 196.492ZM70.6583 204.198C74.323 203.9 73.9113 198.835 70.2465 199.133C66.6106 199.429 67.0224 204.494 70.6583 204.198Z" fill="#B2FFF6"/>
<path d="M75.2191 185.218L70.1043 190.206L75.0828 190.327C75.0614 191.224 75.04 192.121 75.019 193.004L64.8448 192.757L64.8672 191.816L69.9969 186.814L65.0328 186.693C65.0539 185.811 65.0749 184.928 65.096 184.045L75.2412 184.292L75.2191 185.218Z" fill="#B2FFF6"/>
<path d="M72.2089 180.971L71.0853 180.858L71.4327 177.372L72.5563 177.485L72.2089 180.971Z" fill="#B2FFF6"/>
<path d="M73.752 167.8L77.2549 166.394L77.6258 166.458L77.1353 169.311L73.9023 170.514L73.6743 171.841L76.613 172.35C76.4658 173.206 76.3162 174.076 76.174 174.904C72.8501 174.328 69.5262 173.752 66.188 173.174C66.4357 171.733 66.6908 170.249 66.9409 168.794C67.6296 164.873 72.4741 164.978 73.752 167.8ZM71.7199 169.622C71.9578 168.238 69.4878 167.737 69.2234 169.189C69.1062 169.786 69.0125 170.416 68.9095 171.016C69.7227 171.156 70.6071 171.31 71.406 171.448L71.7199 169.622Z" fill="#B2FFF6"/>
<path d="M70.0946 155.074C70.8223 155.268 71.578 155.468 72.3337 155.669C71.95 157.124 71.7582 157.852 71.3782 159.294L72.7636 159.662L73.6417 156.33C74.3834 156.527 75.1251 156.724 75.8668 156.921L74.9887 160.252C75.5625 160.405 76.1222 160.553 76.71 160.709C77.09 159.267 77.3114 158.428 77.6988 156.958C78.4265 157.151 79.1822 157.352 79.9239 157.548C79.3188 159.844 78.8761 161.524 78.2784 163.791C75.0037 162.922 71.729 162.053 68.4823 161.191C69.08 158.924 69.4896 157.37 70.0946 155.074Z" fill="#B2FFF6"/>
<path d="M75.8855 153.238C72.6431 152.029 71.9079 148.982 72.7932 146.562C73.5081 144.65 75.2311 143.018 77.7644 143.426L76.8891 145.818C75.9296 145.912 75.3747 146.418 75.0215 147.383C74.4595 148.919 75.3518 150.188 76.8057 150.724C78.3818 151.304 79.7527 150.76 80.2799 149.319C80.638 148.341 80.6086 147.62 79.8574 146.85L79.1163 148.875L77.0103 148.1L78.6566 143.6C79.6276 143.896 80.538 144.232 81.3425 144.898C83.0776 146.308 83.177 148.397 82.5354 150.15C81.6501 152.57 79.1379 154.421 75.8855 153.238Z" fill="#B2FFF6"/>
<path d="M85.1306 138.138C85.4588 137.461 85.4352 136.58 84.6933 136.218L78.6541 133.274C79.0138 132.531 79.3925 131.75 79.746 131.02L85.8242 133.984C87.8286 134.961 88.135 137.285 87.2261 139.16C86.3235 141.023 84.3131 142.216 82.3087 141.239L76.2304 138.275C76.5839 137.546 76.9562 136.777 77.3097 136.048L83.3489 138.993C84.0908 139.354 84.8024 138.816 85.1306 138.138Z" fill="#B2FFF6"/>
<path d="M83.2238 124.914C87.7185 127.612 86.2161 126.71 89.9162 128.931L91.7996 125.774C92.5446 126.221 93.0536 126.527 93.7986 126.974C92.7308 128.764 91.6334 130.603 90.5804 132.368L81.8891 127.152C82.334 126.406 82.7715 125.673 83.2238 124.914Z" fill="#B2FFF6"/>
<path d="M90.8717 113.399C91.4845 113.836 92.121 114.29 92.7574 114.745C91.8862 115.972 91.4507 116.586 90.5879 117.802L91.7547 118.635L93.7483 115.826C94.3729 116.272 94.9976 116.718 95.6222 117.164L93.6286 119.973C94.1118 120.317 94.5833 120.654 95.0783 121.007C95.941 119.792 96.4436 119.084 97.3232 117.844C97.936 118.282 98.5725 118.736 99.1971 119.182C97.8234 121.118 96.8182 122.534 95.4612 124.446C92.7033 122.477 89.9454 120.508 87.2111 118.556C88.5681 116.644 89.4979 115.334 90.8717 113.399Z" fill="#B2FFF6"/>
<path d="M102.719 109.245L106.447 109.824L106.733 110.069L104.857 112.274L101.465 111.657L100.593 112.682L102.86 114.622C102.297 115.283 101.725 115.956 101.181 116.595C98.6175 114.401 96.0537 112.208 93.4789 110.005C94.426 108.891 95.4013 107.745 96.3578 106.621C98.9477 103.599 103.059 106.164 102.719 109.245ZM100.022 109.756C100.932 108.686 99.0859 107.012 98.1184 108.127C97.7135 108.58 97.3119 109.075 96.918 109.538C97.5452 110.075 98.2054 110.639 98.8216 111.167L100.022 109.756Z" fill="#B2FFF6"/>
<g filter="url(#filter5_f_359_78375)">
<path d="M97.3807 261.236C97.8776 261.949 98.3746 262.662 98.8633 263.362C96.1021 265.298 93.3408 267.234 90.5677 269.178C89.7312 267.978 88.8698 266.742 88.0167 265.519C85.2538 261.531 91.4162 257.211 94.1909 261.191L95.2594 262.723L97.3807 261.236ZM92.2912 262.54C91.4795 261.376 89.0715 262.958 89.9211 264.202C90.2571 264.709 90.6417 265.235 90.9813 265.722C91.6568 265.249 92.6759 264.534 93.3514 264.061L92.2912 262.54Z" fill="#B2FFF6"/>
<path d="M91.2742 251.751C91.702 252.507 92.1298 253.263 92.5506 254.007C89.6193 255.674 86.688 257.341 83.7441 259.015C83.0239 257.742 82.2823 256.431 81.5478 255.133C79.1716 250.904 85.7135 247.183 88.1023 251.406L89.0222 253.032L91.2742 251.751ZM86.084 252.57C85.3852 251.335 82.8388 252.683 83.5679 254.001C83.8548 254.538 84.1882 255.098 84.4806 255.614C85.1977 255.207 86.2796 254.591 86.9967 254.184L86.084 252.57Z" fill="#B2FFF6"/>
<path d="M86.0594 241.681C86.4254 242.501 86.7797 243.294 87.1339 244.087L77.8907 248.235C77.5364 247.442 77.1822 246.649 76.8161 245.829L80.3154 244.259L80.2386 244.087C79.1818 241.72 77.4655 242.633 75.7357 243.409C75.3755 242.603 75.0154 241.796 74.6493 240.976C76.5376 240.129 78.257 239.294 80.2529 240.604L83.1981 236.267L83.5678 236.101L84.7428 238.732L82.0735 242.374C82.268 242.668 82.3979 242.959 82.5337 243.263L86.0594 241.681Z" fill="#B2FFF6"/>
<path d="M73.5683 228.681C74.1439 228.486 74.9402 228.536 75.4816 228.872C75.6147 227.956 76.2022 227.343 77.0519 227.055C78.7285 226.5 80.4285 227.055 81.0916 229.016L82.6128 233.516L73.0193 236.774L71.6327 232.672C71.0716 231.013 71.91 229.244 73.5683 228.681ZM77.342 230.489L78.0005 232.436L79.6314 231.883L78.9682 229.921C78.6343 228.933 77.0081 229.501 77.342 230.489ZM73.8904 232.12L74.4098 233.656L75.9585 233.13L75.4344 231.58C75.1052 230.606 73.5565 231.132 73.8904 232.12Z" fill="#B2FFF6"/>
<path d="M76.5503 210.383L72.5887 216.333L77.4815 215.409C77.6476 216.291 77.8136 217.173 77.977 218.041L67.9781 219.93L67.804 219.005L71.7771 213.039L66.8985 213.96C66.7351 213.092 66.5717 212.224 66.4083 211.356L76.3788 209.473L76.5503 210.383Z" fill="#B2FFF6"/>
<path d="M70.0319 196.492C77.0295 195.923 77.8717 206.284 70.8741 206.853C63.8909 207.421 63.0487 197.06 70.0319 196.492ZM70.6583 204.198C74.323 203.9 73.9113 198.835 70.2465 199.133C66.6106 199.429 67.0224 204.494 70.6583 204.198Z" fill="#B2FFF6"/>
<path d="M75.2191 185.218L70.1043 190.206L75.0828 190.327C75.0614 191.224 75.04 192.121 75.019 193.004L64.8448 192.757L64.8672 191.816L69.9969 186.814L65.0328 186.693C65.0539 185.811 65.0749 184.928 65.096 184.045L75.2412 184.292L75.2191 185.218Z" fill="#B2FFF6"/>
<path d="M72.2089 180.971L71.0853 180.858L71.4327 177.372L72.5563 177.485L72.2089 180.971Z" fill="#B2FFF6"/>
<path d="M73.752 167.8L77.2549 166.394L77.6258 166.458L77.1353 169.311L73.9023 170.514L73.6743 171.841L76.613 172.35C76.4658 173.206 76.3162 174.076 76.174 174.904C72.8501 174.328 69.5262 173.752 66.188 173.174C66.4357 171.733 66.6908 170.249 66.9409 168.794C67.6296 164.873 72.4741 164.978 73.752 167.8ZM71.7199 169.622C71.9578 168.238 69.4878 167.737 69.2234 169.189C69.1062 169.786 69.0125 170.416 68.9095 171.016C69.7227 171.156 70.6071 171.31 71.406 171.448L71.7199 169.622Z" fill="#B2FFF6"/>
<path d="M70.0946 155.074C70.8223 155.268 71.578 155.468 72.3337 155.669C71.95 157.124 71.7582 157.852 71.3782 159.294L72.7636 159.662L73.6417 156.33C74.3834 156.527 75.1251 156.724 75.8668 156.921L74.9887 160.252C75.5625 160.405 76.1222 160.553 76.71 160.709C77.09 159.267 77.3114 158.428 77.6988 156.958C78.4265 157.151 79.1822 157.352 79.9239 157.548C79.3188 159.844 78.8761 161.524 78.2784 163.791C75.0037 162.922 71.729 162.053 68.4823 161.191C69.08 158.924 69.4896 157.37 70.0946 155.074Z" fill="#B2FFF6"/>
<path d="M75.8855 153.238C72.6431 152.029 71.9079 148.982 72.7932 146.562C73.5081 144.65 75.2311 143.018 77.7644 143.426L76.8891 145.818C75.9296 145.912 75.3747 146.418 75.0215 147.383C74.4595 148.919 75.3518 150.188 76.8057 150.724C78.3818 151.304 79.7527 150.76 80.2799 149.319C80.638 148.341 80.6086 147.62 79.8574 146.85L79.1163 148.875L77.0103 148.1L78.6566 143.6C79.6276 143.896 80.538 144.232 81.3425 144.898C83.0776 146.308 83.177 148.397 82.5354 150.15C81.6501 152.57 79.1379 154.421 75.8855 153.238Z" fill="#B2FFF6"/>
<path d="M85.1306 138.138C85.4588 137.461 85.4352 136.58 84.6933 136.218L78.6541 133.274C79.0138 132.531 79.3925 131.75 79.746 131.02L85.8242 133.984C87.8286 134.961 88.135 137.285 87.2261 139.16C86.3235 141.023 84.3131 142.216 82.3087 141.239L76.2304 138.275C76.5839 137.546 76.9562 136.777 77.3097 136.048L83.3489 138.993C84.0908 139.354 84.8024 138.816 85.1306 138.138Z" fill="#B2FFF6"/>
<path d="M83.2238 124.914C87.7185 127.612 86.2161 126.71 89.9162 128.931L91.7996 125.774C92.5446 126.221 93.0536 126.527 93.7986 126.974C92.7308 128.764 91.6334 130.603 90.5804 132.368L81.8891 127.152C82.334 126.406 82.7715 125.673 83.2238 124.914Z" fill="#B2FFF6"/>
<path d="M90.8717 113.399C91.4845 113.836 92.121 114.29 92.7574 114.745C91.8862 115.972 91.4507 116.586 90.5879 117.802L91.7547 118.635L93.7483 115.826C94.3729 116.272 94.9976 116.718 95.6222 117.164L93.6286 119.973C94.1118 120.317 94.5833 120.654 95.0783 121.007C95.941 119.792 96.4436 119.084 97.3232 117.844C97.936 118.282 98.5725 118.736 99.1971 119.182C97.8234 121.118 96.8182 122.534 95.4612 124.446C92.7033 122.477 89.9454 120.508 87.2111 118.556C88.5681 116.644 89.4979 115.334 90.8717 113.399Z" fill="#B2FFF6"/>
<path d="M102.719 109.245L106.447 109.824L106.733 110.069L104.857 112.274L101.465 111.657L100.593 112.682L102.86 114.622C102.297 115.283 101.725 115.956 101.181 116.595C98.6175 114.401 96.0537 112.208 93.4789 110.005C94.426 108.891 95.4013 107.745 96.3578 106.621C98.9477 103.599 103.059 106.164 102.719 109.245ZM100.022 109.756C100.932 108.686 99.0859 107.012 98.1184 108.127C97.7135 108.58 97.3119 109.075 96.918 109.538C97.5452 110.075 98.2054 110.639 98.8216 111.167L100.022 109.756Z" fill="#B2FFF6"/>
</g>
<path d="M280.561 115.586C279.601 116.333 281.508 118.641 282.393 117.953C282.922 117.542 282.533 116.84 281.963 116.072C280.75 114.383 280.436 112.897 282.058 111.599C285.265 109.001 290.029 114.713 286.735 117.207C286.183 116.545 285.78 116.062 285.246 115.422C286.25 114.641 284.517 112.734 283.569 113.368C282.962 113.771 283.298 114.409 283.775 115.129C284.83 116.715 285.794 118.319 283.906 119.788C280.733 122.257 275.688 116.314 279.046 113.77C279.572 114.4 280.027 114.946 280.561 115.586Z" fill="#C7EF86"/>
<path d="M286.79 124.887L287.496 125.878L285.708 127.066L282.891 123.113L284.679 121.925L285.385 122.916L289.793 119.989L289.142 119.076L290.919 117.895L293.625 121.693L291.848 122.873L291.197 121.96L286.79 124.887Z" fill="#C7EF86"/>
<path d="M294.279 130.48L299.857 131.78L300.299 132.535L291.874 137.133C291.452 136.414 291.031 135.694 290.609 134.975L294.353 132.931L291.451 132.195L291.312 131.959L292.161 129.192L288.417 131.235C287.995 130.516 287.573 129.796 287.151 129.077L295.577 124.478L296.033 125.257L294.279 130.48Z" fill="#C7EF86"/>
<path d="M295.775 145.497L296.656 144.522L295.112 141.079L293.772 141.03L292.793 138.847L293.121 138.71L303.503 139.047L303.934 140.008L297.082 147.543L296.754 147.68L295.775 145.497ZM298.262 142.994L300.131 141.015L297.367 140.998L298.262 142.994Z" fill="#C7EF86"/>
<path d="M298.274 152.046C298.007 151.241 297.748 150.463 297.489 149.684L306.635 146.864C306.894 147.642 307.153 148.421 307.42 149.225L303.958 150.293L304.014 150.462C304.786 152.784 306.498 152.127 308.21 151.6C308.473 152.391 308.736 153.182 309.004 153.987C307.135 154.563 305.428 155.147 303.665 153.702L300.461 157.408L300.095 157.521L299.236 154.939L302.113 151.849C301.957 151.554 301.862 151.268 301.763 150.97L298.274 152.046Z" fill="#C7EF86"/>
<path d="M303.009 171.54L306.844 166.042L302.199 166.782C302.055 165.946 301.91 165.111 301.768 164.289L311.26 162.777L311.412 163.653L307.565 169.167L312.197 168.429C312.339 169.251 312.481 170.073 312.624 170.894L303.158 172.402L303.009 171.54Z" fill="#C7EF86"/>
<path d="M308.859 184.462C302.237 184.819 301.647 175.019 308.268 174.663C314.876 174.307 315.467 184.106 308.859 184.462ZM308.42 177.174C304.952 177.361 305.24 182.151 308.708 181.965C312.149 181.779 311.86 176.989 308.42 177.174Z" fill="#C7EF86"/>
<path d="M303.657 194.591L308.616 190.007L303.918 189.771C303.961 188.924 304.005 188.078 304.047 187.245L313.647 187.727L313.602 188.615L308.629 193.211L313.313 193.447C313.271 194.28 313.228 195.113 313.185 195.946L303.613 195.465L303.657 194.591Z" fill="#C7EF86"/>
<path d="M306.4 198.288L307.458 198.421L307.025 201.701L305.967 201.568L306.4 198.288Z" fill="#C7EF86"/>
<path d="M304.533 210.502L301.171 211.746L300.823 211.677L301.383 209.001L304.482 207.942L304.743 206.697L301.98 206.15C302.148 205.347 302.319 204.531 302.482 203.755C305.607 204.373 308.732 204.992 311.871 205.613C311.588 206.964 311.296 208.356 311.01 209.721C310.226 213.399 305.646 213.189 304.533 210.502ZM306.517 208.832C306.245 210.13 308.565 210.659 308.864 209.297C308.995 208.737 309.105 208.146 309.223 207.584C308.458 207.432 307.627 207.268 306.876 207.119L306.517 208.832Z" fill="#C7EF86"/>
<path d="M307.594 222.219C306.911 222.021 306.202 221.815 305.493 221.61C305.912 220.251 306.121 219.571 306.536 218.225L305.236 217.848L304.278 220.958C303.582 220.756 302.886 220.555 302.19 220.353L303.148 217.243C302.61 217.087 302.084 216.934 301.533 216.774C301.118 218.12 300.876 218.904 300.454 220.276C299.771 220.078 299.062 219.873 298.366 219.671C299.026 217.528 299.509 215.96 300.162 213.843C303.234 214.734 306.307 215.625 309.354 216.509C308.702 218.626 308.255 220.076 307.594 222.219Z" fill="#C7EF86"/>
<path d="M302.099 223.545C305.134 224.755 305.71 227.625 304.769 229.87C304.01 231.643 302.305 233.131 299.911 232.688L300.841 230.469C301.758 230.404 302.307 229.944 302.682 229.049C303.279 227.624 302.482 226.414 301.121 225.878C299.645 225.297 298.319 225.774 297.758 227.111C297.378 228.019 297.376 228.694 298.059 229.433L298.847 227.554L300.819 228.33L299.069 232.504C298.157 232.204 297.305 231.868 296.567 231.225C294.974 229.864 294.964 227.906 295.646 226.28C296.587 224.035 299.053 222.361 302.099 223.545Z" fill="#C7EF86"/>
<path d="M292.777 237.123C292.435 237.746 292.42 238.568 293.113 238.925L298.753 241.829C298.378 242.512 297.996 243.207 297.628 243.878L291.95 240.955C290.078 239.992 289.872 237.841 290.82 236.115C291.761 234.402 293.732 233.341 295.604 234.304L301.281 237.227C300.913 237.898 300.524 238.605 300.156 239.276L294.515 236.372C293.822 236.016 293.119 236.5 292.777 237.123Z" fill="#C7EF86"/>
<path d="M294.155 249.243C289.968 246.604 291.367 247.486 287.92 245.313L285.98 248.194C285.286 247.756 284.812 247.457 284.118 247.02C285.218 245.387 286.348 243.708 287.433 242.098L295.53 247.202C295.071 247.882 294.621 248.551 294.155 249.243Z" fill="#C7EF86"/>
<path d="M286.433 259.533C285.864 259.107 285.273 258.665 284.682 258.223C285.571 257.112 286.015 256.557 286.895 255.458L285.811 254.647L283.778 257.187C283.198 256.753 282.617 256.319 282.037 255.885L284.071 253.344C283.622 253.008 283.184 252.68 282.724 252.336C281.844 253.436 281.332 254.076 280.434 255.197C279.865 254.771 279.274 254.329 278.694 253.894C280.095 252.144 281.12 250.863 282.505 249.134C285.066 251.051 287.628 252.968 290.167 254.869C288.783 256.598 287.835 257.783 286.433 259.533Z" fill="#C7EF86"/>
<path d="M274.984 262.809L271.427 262.132L271.162 261.895L273.057 259.923L276.29 260.621L277.171 259.704L275.075 257.822C275.643 257.231 276.221 256.629 276.77 256.058C279.141 258.185 281.512 260.313 283.893 262.45C282.936 263.446 281.951 264.472 280.985 265.477C278.37 268.18 274.528 265.65 274.984 262.809ZM277.576 262.418C276.657 263.374 278.381 265.013 279.357 264.016C279.765 263.611 280.172 263.168 280.569 262.754C279.989 262.234 279.358 261.667 278.789 261.156L277.576 262.418Z" fill="#C7EF86"/>
<g filter="url(#filter6_f_359_78375)">
<path d="M280.561 115.586C279.601 116.333 281.508 118.641 282.393 117.953C282.922 117.542 282.532 116.84 281.963 116.072C280.75 114.383 280.436 112.897 282.058 111.599C285.265 109.001 290.029 114.713 286.735 117.207C286.183 116.545 285.78 116.062 285.246 115.422C286.25 114.641 284.517 112.734 283.569 113.368C282.962 113.771 283.298 114.409 283.775 115.129C284.83 116.715 285.794 118.319 283.906 119.788C280.733 122.257 275.687 116.314 279.046 113.77C279.572 114.4 280.027 114.946 280.561 115.586Z" fill="#C7EF86"/>
<path d="M286.789 124.887L287.496 125.878L285.707 127.066L282.891 123.113L284.679 121.925L285.385 122.916L289.793 119.989L289.142 119.076L290.919 117.895L293.625 121.693L291.848 122.873L291.197 121.96L286.789 124.887Z" fill="#C7EF86"/>
<path d="M294.279 130.48L299.857 131.78L300.299 132.535L291.874 137.133C291.452 136.414 291.03 135.694 290.609 134.974L294.353 132.931L291.451 132.195L291.312 131.959L292.161 129.192L288.417 131.235C287.995 130.516 287.573 129.796 287.151 129.077L295.576 124.478L296.033 125.257L294.279 130.48Z" fill="#C7EF86"/>
<path d="M295.774 145.497L296.656 144.522L295.111 141.079L293.771 141.03L292.792 138.847L293.12 138.71L303.503 139.047L303.933 140.008L297.082 147.543L296.754 147.68L295.774 145.497ZM298.262 142.994L300.131 141.015L297.367 140.998L298.262 142.994Z" fill="#C7EF86"/>
<path d="M298.274 152.046C298.007 151.241 297.748 150.463 297.489 149.684L306.635 146.864C306.894 147.642 307.153 148.421 307.42 149.225L303.958 150.293L304.014 150.462C304.786 152.784 306.498 152.127 308.21 151.6C308.473 152.391 308.736 153.182 309.004 153.987C307.135 154.563 305.428 155.147 303.665 153.702L300.461 157.408L300.095 157.521L299.236 154.939L302.113 151.849C301.957 151.554 301.862 151.268 301.763 150.97L298.274 152.046Z" fill="#C7EF86"/>
<path d="M303.009 171.54L306.844 166.042L302.199 166.782C302.055 165.946 301.91 165.111 301.768 164.289L311.26 162.777L311.412 163.653L307.565 169.167L312.197 168.429C312.339 169.251 312.481 170.073 312.623 170.894L303.158 172.402L303.009 171.54Z" fill="#C7EF86"/>
<path d="M308.859 184.462C302.237 184.819 301.646 175.019 308.268 174.663C314.876 174.307 315.467 184.106 308.859 184.462ZM308.419 177.174C304.952 177.361 305.24 182.151 308.708 181.965C312.149 181.779 311.86 176.989 308.419 177.174Z" fill="#C7EF86"/>
<path d="M303.657 194.591L308.615 190.007L303.918 189.771C303.961 188.924 304.005 188.078 304.047 187.245L313.647 187.727L313.602 188.615L308.629 193.211L313.313 193.447C313.271 194.28 313.228 195.113 313.185 195.945L303.613 195.464L303.657 194.591Z" fill="#C7EF86"/>
<path d="M306.4 198.287L307.458 198.42L307.025 201.701L305.967 201.568L306.4 198.287Z" fill="#C7EF86"/>
<path d="M304.533 210.502L301.171 211.746L300.822 211.677L301.383 209.001L304.482 207.942L304.743 206.697L301.98 206.15C302.148 205.347 302.319 204.531 302.481 203.755C305.607 204.373 308.732 204.991 311.87 205.612C311.587 206.964 311.296 208.356 311.01 209.721C310.226 213.399 305.646 213.189 304.533 210.502ZM306.517 208.832C306.245 210.13 308.565 210.659 308.864 209.296C308.995 208.737 309.105 208.145 309.223 207.583C308.458 207.432 307.627 207.268 306.876 207.119L306.517 208.832Z" fill="#C7EF86"/>
<path d="M307.594 222.219C306.911 222.021 306.202 221.815 305.493 221.61C305.912 220.251 306.121 219.571 306.536 218.225L305.236 217.848L304.277 220.958C303.581 220.756 302.885 220.555 302.19 220.353L303.148 217.243C302.609 217.087 302.084 216.934 301.533 216.774C301.118 218.12 300.876 218.904 300.453 220.276C299.771 220.078 299.061 219.873 298.366 219.671C299.026 217.528 299.509 215.96 300.161 213.843C303.234 214.734 306.307 215.625 309.354 216.509C308.701 218.626 308.254 220.076 307.594 222.219Z" fill="#C7EF86"/>
<path d="M302.099 223.545C305.134 224.755 305.709 227.625 304.768 229.87C304.01 231.643 302.304 233.131 299.911 232.688L300.841 230.469C301.758 230.404 302.307 229.944 302.682 229.048C303.279 227.624 302.482 226.414 301.121 225.878C299.645 225.297 298.318 225.774 297.758 227.111C297.377 228.018 297.376 228.694 298.059 229.433L298.847 227.554L300.819 228.33L299.069 232.504C298.157 232.204 297.305 231.868 296.567 231.225C294.973 229.863 294.964 227.906 295.646 226.279C296.587 224.035 299.053 222.361 302.099 223.545Z" fill="#C7EF86"/>
<path d="M292.777 237.123C292.435 237.746 292.42 238.568 293.113 238.925L298.753 241.829C298.378 242.512 297.996 243.207 297.628 243.878L291.95 240.955C290.078 239.992 289.872 237.841 290.82 236.115C291.761 234.402 293.732 233.341 295.604 234.304L301.281 237.227C300.913 237.898 300.524 238.605 300.156 239.276L294.515 236.372C293.822 236.016 293.119 236.5 292.777 237.123Z" fill="#C7EF86"/>
<path d="M294.155 249.243C289.968 246.603 291.367 247.486 287.92 245.313L285.98 248.193C285.286 247.756 284.812 247.457 284.118 247.02C285.218 245.387 286.348 243.708 287.433 242.098L295.53 247.202C295.071 247.882 294.621 248.551 294.155 249.243Z" fill="#C7EF86"/>
<path d="M286.433 259.533C285.864 259.107 285.273 258.665 284.682 258.223C285.57 257.112 286.015 256.557 286.895 255.458L285.811 254.647L283.778 257.187C283.197 256.753 282.617 256.319 282.037 255.885L284.071 253.344C283.622 253.008 283.184 252.68 282.724 252.336C281.844 253.436 281.331 254.076 280.434 255.197C279.865 254.771 279.274 254.329 278.694 253.894C280.095 252.144 281.12 250.863 282.504 249.134C285.066 251.051 287.627 252.968 290.167 254.869C288.783 256.598 287.835 257.783 286.433 259.533Z" fill="#C7EF86"/>
<path d="M274.984 262.809L271.427 262.132L271.162 261.895L273.057 259.923L276.29 260.621L277.171 259.704L275.074 257.822C275.643 257.231 276.221 256.629 276.77 256.058C279.141 258.185 281.512 260.313 283.893 262.45C282.936 263.446 281.951 264.472 280.985 265.477C278.37 268.18 274.528 265.65 274.984 262.809ZM277.576 262.418C276.657 263.374 278.38 265.013 279.357 264.016C279.765 263.611 280.171 263.168 280.569 262.754C279.989 262.234 279.358 261.667 278.789 261.156L277.576 262.418Z" fill="#C7EF86"/>
</g>
<path d="M229.042 75.2192L223.927 77.1577L226.891 70.2337L229.042 75.2192Z" fill="#BBF087"/>
<path d="M197.525 61.9684L197.166 63.603C200.27 64.0882 203.102 65.3606 202.262 69.2728C201.785 71.5316 199.676 73.5105 196.633 72.8416C194.134 72.2924 192.666 70.2761 193.14 67.5833L196.033 68.2191C195.862 69.0876 196.327 69.6624 197.21 69.8564C198.13 70.0587 198.814 69.6377 199.068 68.5709C199.204 67.7735 198.881 67.2693 198.194 66.9016C196.947 66.2139 194.743 66.025 193.762 65.8291L195.372 58.5014L203.564 60.3016L202.936 63.1575L197.525 61.9684ZM211.417 61.7714C214.142 62.3701 215.995 64.5108 215.364 67.3855C215.042 68.851 214.674 70.5232 214.352 71.9888C213.72 74.8635 211.14 76.0297 208.416 75.431C205.748 74.8447 203.875 72.6999 204.507 69.8252C204.829 68.3596 205.196 66.6874 205.518 65.2219C206.15 62.3472 208.749 61.1851 211.417 61.7714ZM209.072 72.4435C210.068 72.6624 210.958 72.2868 211.193 71.2158C211.503 69.8066 211.862 68.172 212.176 66.744C212.403 65.7106 211.753 64.9965 210.757 64.7776C209.798 64.5671 208.927 64.9468 208.7 65.9802C208.386 67.4081 208.027 69.0428 207.717 70.4519C207.482 71.5229 208.114 72.2329 209.072 72.4435Z" fill="white"/>
<path d="M196.358 308.481L198.5 305.244L199.664 310.459L196.358 308.481Z" fill="#BBF087"/>
<path d="M229.129 303.799C229.435 312.86 222.832 320.436 214.381 320.721C205.931 321.005 198.833 313.891 198.527 304.83C198.222 295.769 204.825 288.193 213.275 287.908C221.726 287.623 228.824 294.738 229.129 303.799ZM199.018 304.813C199.313 313.584 206.184 320.47 214.363 320.195C222.543 319.919 228.934 312.586 228.639 303.815C228.343 295.045 221.473 288.158 213.293 288.434C205.113 288.71 198.722 296.043 199.018 304.813Z" fill="#BBF087"/>
<path d="M205.802 299.922L205.858 301.595C208.986 301.297 212.045 301.829 212.199 305.827C212.296 308.134 210.742 310.573 207.627 310.678C205.07 310.764 203.15 309.174 202.942 306.447L205.903 306.348C205.952 307.231 206.544 307.673 207.448 307.643C208.39 307.611 208.948 307.034 208.93 305.938C208.865 305.131 208.428 304.723 207.671 304.536C206.292 304.179 204.11 304.541 203.111 304.594L202.858 297.096L211.241 296.813L211.339 299.735L205.802 299.922ZM219.214 296.294C222.001 296.2 224.327 297.816 224.426 300.757C224.477 302.257 224.534 303.968 224.585 305.468C224.684 308.409 222.472 310.178 219.685 310.272C216.954 310.364 214.61 308.749 214.51 305.807C214.46 304.308 214.402 302.596 214.352 301.097C214.253 298.155 216.483 296.386 219.214 296.294ZM219.582 307.215C220.601 307.18 221.37 306.596 221.333 305.5C221.285 304.058 221.228 302.386 221.179 300.924C221.143 299.867 220.336 299.336 219.317 299.37C218.337 299.403 217.586 299.987 217.622 301.044C217.671 302.506 217.728 304.178 217.776 305.62C217.813 306.716 218.601 307.248 219.582 307.215Z" fill="white"/>
<ellipse cx="213.829" cy="304.345" rx="14.4107" ry="15.6542" transform="rotate(-1.92989 213.829 304.345)" fill="#29443D" fill-opacity="0.34"/>
<defs>
<filter id="filter0_d_359_78375" x="54.4301" y="55.6616" width="140.009" height="271.901" filterUnits="userSpaceOnUse" color-interpolation-filters="sRGB">
<feFlood flood-opacity="0" result="BackgroundImageFix"/>
<feColorMatrix in="SourceAlpha" type="matrix" values="0 0 0 0 0 0 0 0 0 0 0 0 0 0 0 0 0 0 127 0" result="hardAlpha"/>
<feOffset dy="1.60311"/>
<feGaussianBlur stdDeviation="0.801553"/>
<feComposite in2="hardAlpha" operator="out"/>
<feColorMatrix type="matrix" values="0 0 0 0 0 0 0 0 0 0 0 0 0 0 0 0 0 0 0.25 0"/>
<feBlend mode="normal" in2="BackgroundImageFix" result="effect1_dropShadow_359_78375"/>
<feBlend mode="normal" in="SourceGraphic" in2="effect1_dropShadow_359_78375" result="shape"/>
</filter>
<filter id="filter1_f_359_78375" x="53.6285" y="53.257" width="141.612" height="273.504" filterUnits="userSpaceOnUse" color-interpolation-filters="sRGB">
<feFlood flood-opacity="0" result="BackgroundImageFix"/>
<feBlend mode="normal" in="SourceGraphic" in2="BackgroundImageFix" result="shape"/>
<feGaussianBlur stdDeviation="1.20233" result="effect1_foregroundBlur_359_78375"/>
</filter>
<filter id="filter2_d_359_78375" x="185.96" y="90.3748" width="102.106" height="197.764" filterUnits="userSpaceOnUse" color-interpolation-filters="sRGB">
<feFlood flood-opacity="0" result="BackgroundImageFix"/>
<feColorMatrix in="SourceAlpha" type="matrix" values="0 0 0 0 0 0 0 0 0 0 0 0 0 0 0 0 0 0 127 0" result="hardAlpha"/>
<feOffset dy="1.60311"/>
<feGaussianBlur stdDeviation="0.801553"/>
<feComposite in2="hardAlpha" operator="out"/>
<feColorMatrix type="matrix" values="0 0 0 0 0 0 0 0 0 0 0 0 0 0 0 0 0 0 0.25 0"/>
<feBlend mode="normal" in2="BackgroundImageFix" result="effect1_dropShadow_359_78375"/>
<feBlend mode="normal" in="SourceGraphic" in2="effect1_dropShadow_359_78375" result="shape"/>
</filter>
<filter id="filter3_f_359_78375" x="185.848" y="88.6421" width="103.105" height="198.543" filterUnits="userSpaceOnUse" color-interpolation-filters="sRGB">
<feFlood flood-opacity="0" result="BackgroundImageFix"/>
<feBlend mode="normal" in="SourceGraphic" in2="BackgroundImageFix" result="shape"/>
<feGaussianBlur stdDeviation="1.20233" result="effect1_foregroundBlur_359_78375"/>
</filter>
<filter id="filter4_f_359_78375" x="85.3807" y="153.068" width="202.971" height="75.7354" filterUnits="userSpaceOnUse" color-interpolation-filters="sRGB">
<feFlood flood-opacity="0" result="BackgroundImageFix"/>
<feBlend mode="normal" in="SourceGraphic" in2="BackgroundImageFix" result="shape"/>
<feGaussianBlur stdDeviation="1.40272" result="effect1_foregroundBlur_359_78375"/>
</filter>
<filter id="filter5_f_359_78375" x="59.4417" y="99.431" width="51.2733" height="173.354" filterUnits="userSpaceOnUse" color-interpolation-filters="sRGB">
<feFlood flood-opacity="0" result="BackgroundImageFix"/>
<feBlend mode="normal" in="SourceGraphic" in2="BackgroundImageFix" result="shape"/>
<feGaussianBlur stdDeviation="1.80349" result="effect1_foregroundBlur_359_78375"/>
</filter>
<filter id="filter6_f_359_78375" x="266.776" y="104.909" width="52.6989" height="167.781" filterUnits="userSpaceOnUse" color-interpolation-filters="sRGB">
<feFlood flood-opacity="0" result="BackgroundImageFix"/>
<feBlend mode="normal" in="SourceGraphic" in2="BackgroundImageFix" result="shape"/>
<feGaussianBlur stdDeviation="2.00388" result="effect1_foregroundBlur_359_78375"/>
</filter>
<radialGradient id="paint0_radial_359_78375" cx="0" cy="0" r="1" gradientUnits="userSpaceOnUse" gradientTransform="translate(190.397 190) rotate(134.002) scale(134.26 134.46)">
<stop offset="0.677083" stop-color="#BFFD81" stop-opacity="0.12"/>
<stop offset="1" stop-color="#BFFD81" stop-opacity="0.3"/>
</radialGradient>
<radialGradient id="paint1_radial_359_78375" cx="0" cy="0" r="1" gradientUnits="userSpaceOnUse" gradientTransform="translate(190.397 190) rotate(132.879) scale(141.651 128.927)">
<stop offset="0.456074" stop-color="#A2E75D" stop-opacity="0"/>
<stop offset="0.551551" stop-color="#A2E75D"/>
</radialGradient>
<radialGradient id="paint2_radial_359_78375" cx="0" cy="0" r="1" gradientUnits="userSpaceOnUse" gradientTransform="translate(190.512 189.958) rotate(-111.135) scale(161.112 160.86)">
<stop offset="0.390625" stop-color="#A2E75D" stop-opacity="0"/>
<stop offset="0.505208" stop-color="#E1FFC2"/>
</radialGradient>
<linearGradient id="paint3_linear_359_78375" x1="196.15" y1="218.657" x2="51.2536" y2="242.389" gradientUnits="userSpaceOnUse">
<stop offset="0.161787" stop-color="#6DEACC"/>
<stop offset="0.737373" stop-color="#6DEAD3" stop-opacity="0"/>
</linearGradient>
<radialGradient id="paint4_radial_359_78375" cx="0" cy="0" r="1" gradientUnits="userSpaceOnUse" gradientTransform="translate(192.192 194.228) rotate(2.80713) scale(133.018 108.765)">
<stop offset="0.485952" stop-color="#81FDF5" stop-opacity="0.01"/>
<stop offset="0.763451" stop-color="#81FDF5" stop-opacity="0.23"/>
<stop offset="1" stop-color="#81FDDF" stop-opacity="0.3"/>
</radialGradient>
<radialGradient id="paint5_radial_359_78375" cx="0" cy="0" r="1" gradientUnits="userSpaceOnUse" gradientTransform="translate(205.598 187.162) rotate(2.60256) scale(101.501 141.46)">
<stop offset="0.453125" stop-color="#A2E75D" stop-opacity="0"/>
<stop offset="0.453225" stop-color="#A2E75D"/>
</radialGradient>
<radialGradient id="paint6_radial_359_78375" cx="0" cy="0" r="1" gradientUnits="userSpaceOnUse" gradientTransform="translate(221.135 198.893) rotate(73.5805) scale(83.7209 94.0651)">
<stop offset="0.390625" stop-color="#A2E75D" stop-opacity="0"/>
<stop offset="0.505208" stop-color="#E1FFC2"/>
</radialGradient>
<linearGradient id="paint7_linear_359_78375" x1="194.64" y1="184.548" x2="356.663" y2="189.943" gradientUnits="userSpaceOnUse">
<stop offset="0.306934" stop-color="#A5CE62"/>
<stop offset="0.64785" stop-color="#89CE62" stop-opacity="0"/>
</linearGradient>
<radialGradient id="paint8_radial_359_78375" cx="0" cy="0" r="1" gradientUnits="userSpaceOnUse" gradientTransform="translate(254.22 111.768) rotate(127.519) scale(174.537 174.537)">
<stop offset="0.40421" stop-color="#5DE7C6"/>
<stop offset="0.617124" stop-color="#5DE7C3" stop-opacity="0.486621"/>
<stop offset="0.933688" stop-color="#5DE7C1" stop-opacity="0.07"/>
</radialGradient>
</defs>
</svg>
