<svg width="381" height="380" viewBox="0 0 381 380" fill="none" xmlns="http://www.w3.org/2000/svg">
<g filter="url(#filter0_d_359_78567)">
<path d="M292.055 246.183C301.757 228.585 306.765 208.786 306.595 188.691C306.425 168.597 301.084 148.884 291.085 131.453C281.087 114.022 266.768 99.4588 249.509 89.1668C232.249 78.8749 212.63 73.2008 192.541 72.691L191.051 131.422C201.055 131.676 210.824 134.502 219.419 139.627C228.014 144.752 235.144 152.004 240.123 160.684C245.102 169.365 247.762 179.181 247.847 189.188C247.931 199.194 244.955 210.661 240.123 219.425L292.055 246.183Z" fill="url(#paint0_radial_359_78567)" shape-rendering="crispEdges"/>
<path d="M306.101 188.695C306.269 208.545 301.363 228.105 291.853 245.523L240.799 219.217C245.527 210.441 248.425 199.108 248.341 189.183C248.256 179.092 245.573 169.193 240.552 160.439C235.531 151.685 228.34 144.371 219.672 139.203C211.146 134.118 201.473 131.278 191.557 130.943L193.023 73.1986C212.854 73.786 232.21 79.4272 249.256 89.5913C266.442 99.8398 280.7 114.341 290.657 131.699C300.613 149.057 305.932 168.686 306.101 188.695Z" stroke="url(#paint1_radial_359_78567)" stroke-width="0.988446" shape-rendering="crispEdges"/>
</g>
<g filter="url(#filter1_f_359_78567)">
<mask id="path-3-inside-1_359_78567" fill="white">
<path d="M292.129 246.048C301.792 228.467 306.773 208.697 306.594 188.636C306.415 168.574 301.082 148.896 291.107 131.49C281.131 114.084 266.848 99.5346 249.63 89.239C232.411 78.9433 212.834 73.2471 192.78 72.6972L191.17 131.426C201.156 131.699 210.905 134.536 219.479 139.663C228.054 144.79 235.166 152.035 240.134 160.703C245.101 169.371 247.757 179.17 247.846 189.16C247.936 199.15 245.455 208.995 240.643 217.75L292.129 246.048Z"/>
</mask>
<path d="M292.129 246.048C301.792 228.467 306.773 208.697 306.594 188.636C306.415 168.574 301.082 148.896 291.107 131.49C281.131 114.084 266.848 99.5346 249.63 89.239C232.411 78.9433 212.834 73.2471 192.78 72.6972L191.17 131.426C201.156 131.699 210.905 134.536 219.479 139.663C228.054 144.79 235.166 152.035 240.134 160.703C245.101 169.371 247.757 179.17 247.846 189.16C247.936 199.15 245.455 208.995 240.643 217.75L292.129 246.048Z" stroke="url(#paint2_radial_359_78567)" stroke-width="1.97689" mask="url(#path-3-inside-1_359_78567)"/>
</g>
<path d="M316.479 235.502C323.145 216.901 325.623 197.052 323.736 177.37C321.849 157.689 315.643 138.659 305.561 121.64C295.479 104.62 281.769 90.0299 265.41 78.9089C249.05 67.788 230.444 60.4107 210.918 57.3032L209.606 65.6219C227.908 68.5346 245.348 75.4494 260.682 85.8732C276.016 96.2969 288.866 109.973 298.316 125.925C307.766 141.878 313.583 159.714 315.352 178.162C317.121 196.61 314.798 215.215 308.55 232.65L316.479 235.502Z" fill="url(#paint3_linear_359_78567)"/>
<g filter="url(#filter2_f_359_78567)">
<mask id="path-5-inside-2_359_78567" fill="white">
<path d="M192.921 55.6805C169.535 55.2753 146.438 60.9797 125.916 72.2297L161.493 137.208C170.692 132.165 181.045 129.608 191.528 129.79L192.921 55.6805Z"/>
</mask>
<path d="M192.921 55.6805C169.535 55.2753 146.438 60.9797 125.916 72.2297L161.493 137.208C170.692 132.165 181.045 129.608 191.528 129.79L192.921 55.6805Z" stroke="url(#paint4_radial_359_78567)" stroke-width="1.97689" mask="url(#path-5-inside-2_359_78567)"/>
</g>
<path d="M187.026 64.8883C168.909 65.8285 151.188 70.5722 135.017 78.8104L138.686 86.0202C153.843 78.2985 170.453 73.8522 187.434 72.9709L187.026 64.8883Z" fill="url(#paint5_linear_359_78567)"/>
<g filter="url(#filter3_d_359_78567)">
<mask id="path-7-inside-3_359_78567" fill="white">
<path d="M193.507 55.698C169.245 55.1714 145.283 61.2222 124.166 73.2081L160.708 137.647C170.174 132.274 180.915 129.562 191.791 129.798L193.507 55.698Z"/>
</mask>
<path d="M193.507 55.698C169.245 55.1714 145.283 61.2222 124.166 73.2081L160.708 137.647C170.174 132.274 180.915 129.562 191.791 129.798L193.507 55.698Z" fill="url(#paint6_radial_359_78567)" shape-rendering="crispEdges"/>
<path d="M193.507 55.698C169.245 55.1714 145.283 61.2222 124.166 73.2081L160.708 137.647C170.174 132.274 180.915 129.562 191.791 129.798L193.507 55.698Z" stroke="url(#paint7_radial_359_78567)" stroke-width="1.97689" shape-rendering="crispEdges" mask="url(#path-7-inside-3_359_78567)"/>
</g>
<g filter="url(#filter4_d_359_78567)">
<mask id="path-8-inside-4_359_78567" fill="white">
<path d="M125.07 72.6156C104.326 84.1993 87.0155 101.078 74.9019 121.532L138.625 159.308C144.055 150.14 151.815 142.574 161.113 137.381L125.07 72.6156Z"/>
</mask>
<path d="M125.07 72.6156C104.326 84.1993 87.0155 101.078 74.9019 121.532L138.625 159.308C144.055 150.14 151.815 142.574 161.113 137.381L125.07 72.6156Z" fill="url(#paint8_radial_359_78567)" shape-rendering="crispEdges"/>
<path d="M125.07 72.6156C104.326 84.1993 87.0155 101.078 74.9019 121.532L138.625 159.308C144.055 150.14 151.815 142.574 161.113 137.381L125.07 72.6156Z" stroke="url(#paint9_radial_359_78567)" stroke-width="1.97689" shape-rendering="crispEdges" mask="url(#path-8-inside-4_359_78567)"/>
</g>
<g filter="url(#filter5_f_359_78567)">
<mask id="path-9-inside-5_359_78567" fill="white">
<path d="M124.555 72.8969C104.184 84.3902 87.1569 101.005 75.1575 121.098L138.74 159.114C144.118 150.107 151.751 142.659 160.883 137.507L124.555 72.8969Z"/>
</mask>
<path d="M124.555 72.8969C104.184 84.3902 87.1569 101.005 75.1575 121.098L138.74 159.114C144.118 150.107 151.751 142.659 160.883 137.507L124.555 72.8969Z" stroke="url(#paint10_radial_359_78567)" stroke-width="1.97689" mask="url(#path-9-inside-5_359_78567)"/>
</g>
<path d="M124.135 83.8223C108.989 93.8071 96.1102 106.871 86.3377 122.164L93.1523 126.523C102.312 112.189 114.383 99.944 128.58 90.5851L124.135 83.8223Z" fill="url(#paint11_linear_359_78567)"/>
<g filter="url(#filter6_d_359_78567)">
<path d="M99.793 136.063C87.0782 154.337 80.3478 178.252 82.1909 200.437C84.034 222.622 93.5525 243.471 109.108 259.395C124.664 275.32 149.997 289.803 172.133 292.166C195.482 297.046 259.101 293.969 279.14 238.462L249.283 223.232C230.847 256.614 185.644 258.139 172.133 256.697C158.622 255.255 143.153 244.775 133.659 235.055C124.164 225.335 120.482 210.89 119.357 197.349C118.232 183.808 126.9 167.255 134.66 156.102L99.793 136.063Z" fill="url(#paint12_radial_359_78567)" shape-rendering="crispEdges"/>
<path d="M172.234 291.682L172.21 291.677L172.186 291.674C150.19 289.327 124.958 274.913 109.462 259.05C93.9864 243.208 84.517 222.467 82.6834 200.396C80.8627 178.48 87.4561 154.853 99.9407 136.718L133.948 156.263C130.145 161.782 126.155 168.565 123.22 175.641C120.21 182.9 118.293 190.508 118.865 197.39C119.993 210.969 123.689 225.557 133.305 235.4C138.081 240.29 144.356 245.367 151.137 249.405C157.913 253.44 165.228 256.457 172.081 257.188C178.889 257.915 193.633 257.892 208.997 253.499C224.236 249.141 240.145 240.464 249.482 223.889L278.526 238.703C268.514 266.015 247.84 280.462 226.722 287.49C205.482 294.558 183.829 294.105 172.234 291.682Z" stroke="url(#paint13_radial_359_78567)" stroke-width="0.988446" shape-rendering="crispEdges"/>
</g>
<g filter="url(#filter7_f_359_78567)">
<path d="M171.985 254.964L172.031 254.978L172.079 254.984C185.824 256.507 199.83 256.976 213.452 252.965C226.992 248.979 240.113 240.579 252.223 224.478L278.289 239.262C262.243 271.388 240.42 284.623 219.562 289.503C201.107 293.82 183.386 291.604 170.974 290.053C169.271 289.84 167.668 289.64 166.177 289.47C144.218 286.977 123.773 273.143 108.365 257.155C93.0136 241.227 84.9843 219.267 83.2973 197.157C81.6264 175.256 89.3027 154.555 101.938 136.522L135.465 156.454C131.633 161.886 127.447 167.889 124.316 174.192C121.099 180.665 118.972 187.496 119.498 194.395C120.541 208.058 126.313 220.93 135.821 230.796C137.223 232.25 138.5 233.652 139.735 235.009C142.615 238.172 145.269 241.086 148.743 243.824C153.734 247.758 160.425 251.345 171.985 254.964Z" stroke="url(#paint14_radial_359_78567)" stroke-width="0.988445"/>
</g>
<path d="M68.1008 148.617C58.2132 177.13 58.6449 208.189 69.3205 236.372C79.9961 264.554 100.237 288.069 126.51 302.811C152.782 317.553 183.416 322.584 213.063 317.027C242.71 311.469 269.485 295.676 288.714 272.405L279.427 264.734C262 285.824 237.735 300.136 210.866 305.173C183.998 310.209 156.236 305.649 132.426 292.29C108.616 278.93 90.2717 257.618 80.5967 232.077C70.9217 206.536 70.5305 178.388 79.4914 152.548L68.1008 148.617Z" fill="url(#paint15_linear_359_78567)"/>
<path fill-rule="evenodd" clip-rule="evenodd" d="M248.54 182.786L247.947 182.596L244.5 184.748L242.346 185.178L242.633 187.76H244.931L246.08 189.05L247.372 191.202H249.111C249.108 192.1 249.086 192.993 249.044 193.882L247.947 192.923L245.793 192.493L245.362 193.497L248.96 195.294C246.778 225.982 221.191 250.201 189.947 250.201C164.167 250.201 142.239 233.713 134.131 210.708H135.795L136.8 211.712L136.226 213.433H140.678L141.826 214.724H145.129L146.996 213.72L150.299 214.58L155.468 216.588L162.648 217.449L163.366 216.875H166.095L170.116 218.453L168.967 217.162L168.68 216.445L169.828 216.015L170.546 215.154L169.254 214.007H167.531L166.813 214.867H164.659L162.648 213.29L162.792 211.282L160.207 210.421H156.617L154.894 208.27L153.602 209.13L153.314 210.708L145.273 210.421V209.417L144.411 208.126L141.683 208.843L139.816 206.979L138.811 206.692L138.093 208.126L137.231 208.413V207.122H135.652L134.503 206.692L133.407 208.516C133.135 207.635 132.883 206.745 132.651 205.847L132.78 205.975L134.072 203.537V200.668L132.78 199.377V197.513L134.503 195.505L133.785 193.927L132.205 191.919L130.786 191.635C130.784 191.436 130.783 191.237 130.783 191.037C130.783 158.362 157.271 131.873 189.947 131.873C219.822 131.873 244.526 154.016 248.54 182.786ZM172.27 216.015L170.977 216.445L173.418 218.453L174.854 217.736V216.445L172.27 216.015ZM180.168 218.453L181.604 217.162L183.614 217.736L185.193 219.6L183.47 220.317L181.173 220.461L180.168 220.031V218.453ZM190.219 217.162L185.337 215.441L184.619 216.588L186.773 218.596L187.204 219.313H188.496V218.596H190.219V217.162ZM190.937 221.465H193.809L197.399 223.903L197.112 225.194L195.676 225.481L192.804 223.186L189.645 222.612L190.937 221.465ZM199.984 218.166L197.83 216.588H195.676L194.24 217.879V219.027H197.399L197.83 219.744H199.697L199.984 218.166ZM200.559 218.453L201.707 217.449L203.143 217.879L202.713 219.027L201.133 219.744L200.559 218.453ZM207.308 215.441H206.303L204.579 217.449L204.149 218.596L206.733 217.592L207.739 216.301L207.308 215.441ZM213.77 221.178L215.924 219.744L217.073 218.166L221.237 217.879L222.242 217.162H224.827L225.258 218.309L222.96 219.313L217.647 220.748L215.637 222.182L211.759 225.05H209.893L210.323 222.182L213.77 221.178ZM132.205 187.903L131.056 189.624L132.062 190.198H132.636L134.072 191.058V192.636L135.508 193.927L136.944 194.214L137.231 192.349L135.221 191.058L135.077 190.054L134.646 189.768V188.333L134.072 187.186L133.21 188.333L132.205 187.903ZM150.155 173.417V174.564L153.889 177.576L155.899 176.572L157.479 177.433L159.489 177.29L161.93 174.278L163.079 174.134L166.956 175.855L170.834 174.851L173.418 171.696L173.131 168.541L174.711 168.254L175.716 167.393L174.998 164.811L177.008 162.803L183.183 163.09L184.763 165.529H182.322V167.393L185.768 171.266L184.763 172.413V173.274L189.214 177.29H185.193L183.614 179.728V185.321H181.173L177.87 188.907L178.732 189.768L178.875 190.341L178.157 190.772L177.583 191.345L178.875 193.066L176.865 194.788L176.434 196.652L171.264 199.377V197.082L169.972 195.074H168.68L167.531 196.509L164.084 193.21L163.366 194.07V195.361L162.361 195.935L160.925 195.218L160.207 196.509L158.915 196.652L159.202 193.497L158.484 192.78L157.048 194.357H154.75V193.353H153.889L153.027 194.357L152.166 193.927L151.591 187.329L148.145 184.891L148.719 184.604V183.6L147.57 182.883L147.427 182.166L148.432 181.592L148.145 180.732L146.709 179.441V176.572L147.57 175.425L148.288 173.56L149.294 172.413L150.155 173.417ZM192.948 180.588V184.748L191.799 185.035L191.225 186.899V189.768L188.496 193.066L189.214 194.357V196.652H191.799L192.661 197.369V202.963L191.799 203.393V205.401H194.24L195.533 204.254V202.389L196.538 201.385L195.533 200.238L195.245 197.943H196.107V195.505L195.245 194.644L197.112 192.78H199.123V194.644L197.974 195.505V197.082L200.846 198.947V201.385L202.138 202.389L203.574 201.385V200.238H206.59L204.005 197.369V195.792L204.867 194.644L199.984 190.054V189.05L201.564 189.768L205.441 187.616L206.159 186.039H208.6L208.169 184.174L206.59 183.887L205.441 185.035H204.005L203.143 186.039L201.277 184.748L199.123 187.329H197.112L196.538 185.608L194.24 184.748V182.023L196.107 179.728H207.308L208.6 180.875L212.908 180.588L216.355 175.855L215.78 173.274L214.488 174.278L213.626 175.425V177.29L212.047 177.72H208.169L206.59 178.294L204.436 177.29H201.277L199.697 175.425H197.543L196.538 177.29L195.245 177.003L192.948 180.588ZM227.412 176.572L228.417 177.72L230.427 174.995L232.007 175.855V176.859L230.14 179.011L232.294 180.158V180.875L231.289 181.449L228.991 180.158L227.986 181.879L230.715 184.748L230.14 185.608L226.694 181.879L225.832 177.863L226.119 174.995L227.412 173.274L228.417 172.7V174.995L227.412 176.572ZM223.678 194.644H221.381L220.375 195.505L221.381 197.226H223.965L225.689 196.796L223.678 194.644ZM232.725 193.066L233.587 194.07L235.453 194.214L237.607 193.066L240.767 194.931L241.341 197.513L240.049 197.799L237.033 195.218L235.741 196.222L234.448 195.935L232.725 194.931L230.14 195.935L229.135 194.214V193.066H232.725Z" fill="url(#paint16_radial_359_78567)"/>
<path d="M88.6802 156.535L91.1205 157.252L93.1301 158.542H98.7284L101.743 161.123V163.704L108.777 167.431V169.438L113.083 172.593L113.657 170.729L115.236 173.883H116.959L117.964 174.743V175.747L120.117 177.897L123.705 178.328L125.715 180.478L123.705 183.776L126.002 185.209L127.868 185.64V188.937L129.447 189.654L128.586 191.088L129.447 191.805L130.452 191.088L132.605 191.518L134.184 193.525L134.902 195.102L133.18 197.109V198.973L134.471 200.264V203.131L133.18 205.568L131.888 204.278L130.452 205.568L129.447 204.278L128.873 206.715L126.863 203.848L118.968 198.256L118.251 195.819L112.796 190.801V187.934L107.628 179.761H105.906L103.322 173.453L101.743 171.589L98.7284 170.872L98.4413 167.575L95.7139 164.707H93.7043L91.1205 161.983L88.6802 159.116V156.535Z" stroke="#5DE7C1" stroke-width="0.988446"/>
<path d="M133.18 209.153L131.313 209.583L132.892 210.3H136.194L137.199 211.303L136.625 213.024H141.075L142.223 214.314H145.524L147.391 213.311L150.692 214.171L155.86 216.178L163.037 217.038L163.755 216.465H166.482L170.502 218.042L169.353 216.752L169.066 216.035L170.214 215.605L170.932 214.744L169.64 213.597H167.918L167.2 214.458H165.047L163.037 212.88L163.181 210.873L160.597 210.013H157.008L155.286 207.862L153.994 208.723L153.707 210.3L145.668 210.013V209.009L144.807 207.719L142.079 208.436L140.213 206.572L139.208 206.285L138.491 207.719L137.629 208.006V206.715H136.05L134.902 206.285L133.18 209.153Z" stroke="#5DE7C1" stroke-width="0.988446"/>
<path d="M171.363 216.035L172.655 215.605L175.239 216.035V217.325L173.803 218.042L171.363 216.035Z" stroke="#5DE7C1" stroke-width="0.988446"/>
<path d="M180.55 218.042L181.985 216.752L183.995 217.325L185.574 219.189L183.851 219.906L181.555 220.049L180.55 219.619V218.042Z" stroke="#5DE7C1" stroke-width="0.988446"/>
<path d="M185 216.178L185.717 215.031L190.598 216.752V218.185H188.875V218.902H187.584L187.153 218.185L185 216.178Z" stroke="#5DE7C1" stroke-width="0.988446"/>
<path d="M191.316 221.053H194.187L197.775 223.49L197.488 224.78L196.053 225.067L193.182 222.773L190.024 222.2L191.316 221.053Z" stroke="#5DE7C1" stroke-width="0.988446"/>
<path d="M198.206 216.178L200.359 217.755L200.072 219.332H198.206L197.775 218.615H194.617V217.468L196.053 216.178H198.206Z" stroke="#5DE7C1" stroke-width="0.988446"/>
<path d="M200.933 218.042L202.082 217.038L203.517 217.468L203.087 218.615L201.508 219.332L200.933 218.042Z" stroke="#5DE7C1" stroke-width="0.988446"/>
<path d="M204.953 217.038L206.675 215.031H207.68L208.111 215.891L207.106 217.182L204.522 218.185L204.953 217.038Z" stroke="#5DE7C1" stroke-width="0.988446"/>
<path d="M214.14 220.766L216.293 219.332L217.441 217.755L221.604 217.468L222.609 216.752H225.193L225.623 217.899L223.327 218.902L218.015 220.336L216.006 221.77L212.13 224.637H210.264L210.694 221.77L214.14 220.766Z" stroke="#5DE7C1" stroke-width="0.988446"/>
<path d="M131.457 189.224L132.605 187.503L133.61 187.934L134.471 186.787L135.046 187.934V189.367L135.476 189.654L135.62 190.658L137.629 191.948L137.342 193.812L135.907 193.525L134.471 192.235V190.658L133.036 189.797H132.462L131.457 189.224Z" stroke="#5DE7C1" stroke-width="0.988446"/>
<path d="M150.549 173.023V174.17L154.281 177.181L156.29 176.177L157.869 177.037L159.879 176.894L162.319 173.883L163.468 173.74L167.344 175.46L171.219 174.457L173.803 171.302L173.516 168.148L175.095 167.861L176.1 167.001L175.382 164.42L177.392 162.413L183.564 162.7L185.143 165.137H182.703V167.001L186.148 170.872L185.143 172.019V172.879L189.593 176.894H185.574L183.995 179.331V184.923H181.555L178.253 188.507L179.114 189.367L179.258 189.941L178.54 190.371L177.966 190.944L179.258 192.665L177.248 194.385L176.818 196.249L171.65 198.973V196.679L170.358 194.672H169.066L167.918 196.106L164.473 192.808L163.755 193.668V194.959L162.75 195.532L161.315 194.815L160.597 196.106L159.305 196.249L159.592 193.095L158.874 192.378L157.439 193.955H155.142V192.952H154.281L153.42 193.955L152.558 193.525L151.984 186.93L148.539 184.493L149.113 184.206V183.202L147.965 182.485L147.821 181.769L148.826 181.195L148.539 180.335L147.104 179.044V176.177L147.965 175.03L148.683 173.166L149.687 172.019L150.549 173.023Z" stroke="#5DE7C1" stroke-width="0.988446"/>
<path d="M193.325 184.349V180.191L195.622 176.607L196.914 176.894L197.919 175.03H200.072L201.651 176.894H204.809L206.962 177.897L208.541 177.324H212.417L213.996 176.894V175.03L214.857 173.883L216.149 172.879L216.723 175.46L213.278 180.191L208.972 180.478L207.68 179.331H196.483L194.617 181.625V184.349L196.914 185.209L197.488 186.93H199.498L201.651 184.349L203.517 185.64L204.378 184.636H205.814L206.962 183.489L208.541 183.776L208.972 185.64H206.532L205.814 187.217L201.938 189.367L200.359 188.65V189.654L205.24 194.242L204.378 195.389V196.966L206.962 199.834H203.948V200.981L202.512 201.984L201.22 200.981V198.543L198.35 196.679V195.102L199.498 194.242V192.378H197.488L195.622 194.242L196.483 195.102V197.54H195.622L195.909 199.834L196.914 200.981L195.909 201.984V203.848L194.617 204.995H192.177V202.988L193.038 202.558V196.966L192.177 196.249H189.593V193.955L188.875 192.665L191.603 189.367V186.5L192.177 184.636L193.325 184.349Z" stroke="#5DE7C1" stroke-width="0.988446"/>
<path d="M227.776 176.177L228.781 177.324L230.791 174.6L232.37 175.46V176.464L230.504 178.614L232.657 179.761V180.478L231.652 181.052L229.355 179.761L228.351 181.482L231.078 184.349L230.504 185.209L227.059 181.482L226.197 177.467L226.485 174.6L227.776 172.879L228.781 172.306V174.6L227.776 176.177Z" stroke="#5DE7C1" stroke-width="0.988446"/>
<path d="M221.748 194.242H224.044L226.054 196.393L224.331 196.823H221.748L220.743 195.102L221.748 194.242Z" stroke="#5DE7C1" stroke-width="0.988446"/>
<path d="M233.088 192.665L233.949 193.668L235.815 193.812L237.968 192.665L241.126 194.529L241.7 197.109L240.409 197.396L237.394 194.815L236.102 195.819L234.81 195.532L233.088 194.529L230.504 195.532L229.499 193.812V192.665H233.088Z" stroke="#5DE7C1" stroke-width="0.988446"/>
<path d="M242.992 187.36L242.705 184.779L244.859 184.349L248.304 182.199L255.481 184.493L255.624 187.36L254.476 188.077L254.907 189.941L253.184 190.801H247.729L246.438 188.65L245.289 187.36H242.992Z" stroke="#5DE7C1" stroke-width="0.988446"/>
<path d="M254.907 191.088H255.912L256.773 193.095L258.208 192.522V194.672L259.213 195.676H261.51L264.668 190.514H268.544L268.687 188.65L271.415 187.073L284.908 192.665V208.006L283.76 210.156L285.051 211.447V220.336L280.602 216.321H276.439L277.013 213.024L275.003 211.017L276.726 210.156L273.424 208.149L272.419 204.995L270.266 202.414L258.639 199.834V197.683L255.912 197.97L254.476 197.109V194.242L253.184 194.959V197.109L251.462 198.973H250.313L249.452 197.396L250.026 196.823L250.6 196.249L249.452 194.959L245.72 193.095L246.15 192.091L248.304 192.522L249.452 193.525L250.313 192.091L251.749 191.805L253.615 192.522L254.907 191.088Z" stroke="#5DE7C1" stroke-width="0.988446"/>
<path d="M275.29 213.024L273.424 212.594L271.127 215.748V217.038H273.998L275.577 215.174L275.29 213.024Z" stroke="#5DE7C1" stroke-width="0.988446"/>
<g filter="url(#filter8_f_359_78567)">
<path d="M88.6802 156.535L91.1205 157.256L93.1301 158.554H98.7284L101.743 161.15V163.745L108.777 167.495V169.514L113.083 172.687L113.657 170.812L115.236 173.984H116.959L117.964 174.85V175.859L120.117 178.022L123.705 178.455L125.715 180.618L123.705 183.935L126.002 185.377L127.868 185.81V189.127L129.447 189.848L128.586 191.29L129.447 192.011L130.452 191.29L132.605 191.722L134.184 193.741L134.902 195.328L133.18 197.347V199.221L134.471 200.519V203.404L133.18 205.855L131.888 204.557L130.452 205.855L129.447 204.557L128.873 207.009L126.863 204.125L118.968 198.5L118.251 196.049L112.796 191.001V188.117L107.628 179.897H105.906L103.322 173.552L101.743 171.677L98.7284 170.956L98.4413 167.639L95.7139 164.755H93.7043L91.1205 162.015L88.6802 159.131V156.535Z" stroke="#A0FFE5" stroke-width="0.988446"/>
<path d="M133.18 209.46L131.313 209.893L132.892 210.614H136.194L137.199 211.624L136.625 213.354H141.075L142.223 214.652H145.524L147.391 213.643L150.692 214.508L155.86 216.527L163.037 217.392L163.755 216.815H166.482L170.502 218.402L169.353 217.104L169.066 216.383L170.214 215.95L170.932 215.085L169.64 213.931H167.918L167.2 214.796H165.047L163.037 213.21L163.181 211.191L160.597 210.326H157.008L155.286 208.163L153.994 209.028L153.707 210.614L145.668 210.326V209.316L144.807 208.018L142.079 208.739L140.213 206.865L139.208 206.576L138.491 208.018L137.629 208.307V207.009H136.05L134.902 206.576L133.18 209.46Z" stroke="#A0FFE5" stroke-width="0.988446"/>
<path d="M171.363 216.383L172.655 215.95L175.239 216.383V217.681L173.803 218.402L171.363 216.383Z" stroke="#A0FFE5" stroke-width="0.988446"/>
<path d="M180.55 218.402L181.985 217.104L183.995 217.681L185.574 219.555L183.851 220.276L181.555 220.421L180.55 219.988V218.402Z" stroke="#A0FFE5" stroke-width="0.988446"/>
<path d="M185 216.527L185.717 215.373L190.598 217.104V218.546H188.875V219.267H187.584L187.153 218.546L185 216.527Z" stroke="#A0FFE5" stroke-width="0.988446"/>
<path d="M191.316 221.43H194.187L197.775 223.882L197.488 225.18L196.053 225.468L193.182 223.161L190.024 222.584L191.316 221.43Z" stroke="#A0FFE5" stroke-width="0.988446"/>
<path d="M198.206 216.527L200.359 218.113L200.072 219.699H198.206L197.775 218.978H194.617V217.825L196.053 216.527H198.206Z" stroke="#A0FFE5" stroke-width="0.988446"/>
<path d="M200.933 218.402L202.082 217.392L203.517 217.825L203.087 218.978L201.508 219.699L200.933 218.402Z" stroke="#A0FFE5" stroke-width="0.988446"/>
<path d="M204.953 217.392L206.675 215.373H207.68L208.111 216.238L207.106 217.536L204.522 218.546L204.953 217.392Z" stroke="#A0FFE5" stroke-width="0.988446"/>
<path d="M214.14 221.142L216.293 219.699L217.441 218.113L221.604 217.825L222.609 217.104H225.193L225.623 218.257L223.327 219.267L218.015 220.709L216.006 222.151L212.13 225.035H210.264L210.694 222.151L214.14 221.142Z" stroke="#A0FFE5" stroke-width="0.988446"/>
<path d="M131.457 189.415L132.605 187.685L133.61 188.117L134.471 186.964L135.046 188.117V189.559L135.476 189.848L135.62 190.857L137.629 192.155L137.342 194.03L135.907 193.741L134.471 192.444V190.857L133.036 189.992H132.462L131.457 189.415Z" stroke="#A0FFE5" stroke-width="0.988446"/>
<path d="M150.549 173.119V174.273L154.281 177.301L156.29 176.292L157.869 177.157L159.879 177.013L162.319 173.984L163.468 173.84L167.344 175.571L171.219 174.561L173.803 171.389L173.516 168.216L175.095 167.928L176.1 167.062L175.382 164.467L177.392 162.448L183.564 162.736L185.143 165.188H182.703V167.062L186.148 170.956L185.143 172.11V172.975L189.593 177.013H185.574L183.995 179.465V185.089H181.555L178.253 188.694L179.114 189.559L179.258 190.136L178.54 190.569L177.966 191.146L179.258 192.876L177.248 194.607L176.818 196.481L171.65 199.221V196.914L170.358 194.895H169.066L167.918 196.337L164.473 193.02L163.755 193.886V195.184L162.75 195.76L161.315 195.039L160.597 196.337L159.305 196.481L159.592 193.309L158.874 192.588L157.439 194.174H155.142V193.165H154.281L153.42 194.174L152.558 193.741L151.984 187.108L148.539 184.656L149.113 184.368V183.358L147.965 182.637L147.821 181.916L148.826 181.339L148.539 180.474L147.104 179.176V176.292L147.965 175.138L148.683 173.263L149.687 172.11L150.549 173.119Z" stroke="#A0FFE5" stroke-width="0.988446"/>
<path d="M193.325 184.512V180.33L195.622 176.724L196.914 177.013L197.919 175.138H200.072L201.651 177.013H204.809L206.962 178.022L208.541 177.446H212.417L213.996 177.013V175.138L214.857 173.984L216.149 172.975L216.723 175.571L213.278 180.33L208.972 180.618L207.68 179.465H196.483L194.617 181.772V184.512L196.914 185.377L197.488 187.108H199.498L201.651 184.512L203.517 185.81L204.378 184.8H205.814L206.962 183.647L208.541 183.935L208.972 185.81H206.532L205.814 187.396L201.938 189.559L200.359 188.838V189.848L205.24 194.462L204.378 195.616V197.203L206.962 200.087H203.948V201.24L202.512 202.25L201.22 201.24V198.789L198.35 196.914V195.328L199.498 194.462V192.588H197.488L195.622 194.462L196.483 195.328V197.779H195.622L195.909 200.087L196.914 201.24L195.909 202.25V204.125L194.617 205.278H192.177V203.259L193.038 202.827V197.203L192.177 196.481H189.593V194.174L188.875 192.876L191.603 189.559V186.675L192.177 184.8L193.325 184.512Z" stroke="#A0FFE5" stroke-width="0.988446"/>
<path d="M227.776 176.292L228.781 177.446L230.791 174.706L232.37 175.571V176.58L230.504 178.743L232.657 179.897V180.618L231.652 181.195L229.355 179.897L228.351 181.628L231.078 184.512L230.504 185.377L227.059 181.628L226.197 177.59L226.485 174.706L227.776 172.975L228.781 172.398V174.706L227.776 176.292Z" stroke="#A0FFE5" stroke-width="0.988446"/>
<path d="M221.748 194.462H224.044L226.054 196.626L224.331 197.058H221.748L220.743 195.328L221.748 194.462Z" stroke="#A0FFE5" stroke-width="0.988446"/>
<path d="M233.088 192.876L233.949 193.886L235.815 194.03L237.968 192.876L241.126 194.751L241.7 197.347L240.409 197.635L237.394 195.039L236.102 196.049L234.81 195.76L233.088 194.751L230.504 195.76L229.499 194.03V192.876H233.088Z" stroke="#A0FFE5" stroke-width="0.988446"/>
<path d="M242.992 187.54L242.705 184.945L244.859 184.512L248.304 182.349L255.481 184.656L255.624 187.54L254.476 188.261L254.907 190.136L253.184 191.001H247.729L246.438 188.838L245.289 187.54H242.992Z" stroke="#A0FFE5" stroke-width="0.988446"/>
<path d="M254.907 191.29H255.912L256.773 193.309L258.208 192.732V194.895L259.213 195.905H261.51L264.668 190.713H268.544L268.687 188.838L271.415 187.252L284.908 192.876V208.307L283.76 210.47L285.051 211.768V220.709L280.602 216.671H276.439L277.013 213.354L275.003 211.335L276.726 210.47L273.424 208.451L272.419 205.278L270.266 202.683L258.639 200.087V197.924L255.912 198.212L254.476 197.347V194.462L253.184 195.184V197.347L251.462 199.221H250.313L249.452 197.635L250.026 197.058L250.6 196.481L249.452 195.184L245.72 193.309L246.15 192.299L248.304 192.732L249.452 193.741L250.313 192.299L251.749 192.011L253.615 192.732L254.907 191.29Z" stroke="#A0FFE5" stroke-width="0.988446"/>
<path d="M275.29 213.354L273.424 212.922L271.127 216.094V217.392H273.998L275.577 215.517L275.29 213.354Z" stroke="#A0FFE5" stroke-width="0.988446"/>
</g>
<path d="M243.171 115.052C241.615 116.713 245.621 120.63 247.055 119.099C247.911 118.184 247.038 116.946 245.822 115.626C243.222 112.715 242.294 109.964 244.915 107.09C250.085 101.345 260.078 111.028 254.725 116.596C253.568 115.474 252.723 114.655 251.602 113.57C253.228 111.833 249.635 108.636 248.073 110.079C247.073 110.997 247.836 112.128 248.871 113.38C251.162 116.135 253.293 118.948 250.233 122.215C245.093 127.704 234.535 117.652 239.993 111.972C241.096 113.04 242.051 113.966 243.171 115.052Z" fill="#D5FFAC"/>
<path d="M258.877 141.684L260.58 129.133L253.534 134.405C252.592 133.129 251.65 131.853 250.724 130.597L265.122 119.825L266.11 121.163L264.401 133.75L271.427 128.494C272.353 129.749 273.28 131.004 274.207 132.26L259.849 143.001L258.877 141.684Z" fill="#D5FFAC"/>
<path d="M280.69 155.42C279.728 155.899 278.319 156.002 277.286 155.546C277.279 157.178 276.401 158.388 274.981 159.096C272.177 160.466 269.057 159.906 267.407 156.642L263.623 149.153L279.647 141.162L283.096 147.989C284.492 150.751 283.46 154.039 280.69 155.42ZM273.621 153.171L271.983 149.929L269.259 151.288L270.909 154.553C271.739 156.196 274.452 154.815 273.621 153.171ZM279.272 149.495L277.98 146.939L275.394 148.229L276.697 150.808C277.516 152.429 280.103 151.139 279.272 149.495Z" fill="#D5FFAC"/>
<path d="M273.692 171.729C273.228 170.267 272.763 168.804 272.306 167.365C278.014 165.651 283.723 163.937 289.455 162.216C290.237 164.678 291.043 167.214 291.84 169.725C294.409 177.899 281.67 181.725 279.076 173.557L278.077 170.413L273.692 171.729ZM283.013 172.349C283.772 174.738 288.693 173.42 287.913 170.878C287.612 169.846 287.239 168.757 286.921 167.757C285.525 168.176 283.418 168.809 282.022 169.228L283.013 172.349Z" fill="#D5FFAC"/>
<g filter="url(#filter9_f_359_78567)">
<path d="M243.171 115.052C241.615 116.713 245.621 120.63 247.055 119.099C247.911 118.184 247.038 116.946 245.822 115.626C243.222 112.715 242.294 109.964 244.915 107.09C250.085 101.345 260.078 111.028 254.725 116.596C253.568 115.474 252.723 114.655 251.602 113.57C253.228 111.833 249.635 108.636 248.073 110.079C247.073 110.997 247.836 112.128 248.871 113.38C251.162 116.135 253.293 118.948 250.233 122.215C245.093 127.704 234.535 117.652 239.993 111.972C241.096 113.04 242.051 113.966 243.171 115.052Z" fill="#D5FFAC"/>
<path d="M258.877 141.684L260.58 129.133L253.534 134.405C252.592 133.129 251.65 131.853 250.724 130.597L265.122 119.825L266.11 121.163L264.401 133.75L271.427 128.494C272.353 129.749 273.28 131.004 274.207 132.26L259.849 143.001L258.877 141.684Z" fill="#D5FFAC"/>
<path d="M280.69 155.42C279.728 155.899 278.319 156.002 277.286 155.546C277.279 157.178 276.401 158.388 274.981 159.096C272.177 160.466 269.057 159.906 267.407 156.642L263.623 149.153L279.647 141.162L283.096 147.989C284.492 150.751 283.46 154.039 280.69 155.42ZM273.621 153.171L271.983 149.929L269.259 151.288L270.909 154.553C271.739 156.196 274.452 154.815 273.621 153.171ZM279.272 149.495L277.98 146.939L275.394 148.229L276.697 150.808C277.516 152.429 280.103 151.139 279.272 149.495Z" fill="#D5FFAC"/>
<path d="M273.692 171.729C273.228 170.267 272.763 168.804 272.306 167.365C278.014 165.651 283.723 163.937 289.455 162.216C290.237 164.678 291.043 167.214 291.84 169.725C294.409 177.899 281.67 181.725 279.076 173.557L278.077 170.413L273.692 171.729ZM283.013 172.349C283.772 174.738 288.693 173.42 287.913 170.878C287.612 169.846 287.239 168.757 286.921 167.757C285.525 168.176 283.418 168.809 282.022 169.228L283.013 172.349Z" fill="#D5FFAC"/>
</g>
<path d="M99.982 121.528C99.548 122.51 99.1139 123.493 98.6871 124.459C95.1617 122.231 91.6363 120.004 88.0958 117.767C88.8264 116.114 89.5788 114.411 90.3239 112.725C92.7626 107.251 100.63 112.221 98.2069 117.705L97.2737 119.817L99.982 121.528ZM95.7637 116.183C96.4726 114.578 93.5051 112.578 92.7376 114.271C92.4186 114.949 92.1082 115.695 91.8116 116.366C92.674 116.911 93.9752 117.733 94.8377 118.278L95.7637 116.183Z" fill="#B2FFF6"/>
<path d="M105.668 111.671C104.982 112.497 104.297 113.324 103.623 114.136C100.558 111.308 97.4941 108.48 94.4167 105.639C95.5707 104.248 96.7589 102.815 97.9357 101.397C101.776 96.7938 108.615 103.106 104.788 107.721L103.314 109.498L105.668 111.671ZM102.659 105.78C103.779 104.43 101.23 101.932 100.029 103.352C99.5355 103.919 99.0345 104.551 98.5661 105.116C99.3157 105.808 100.447 106.852 101.196 107.543L102.659 105.78Z" fill="#B2FFF6"/>
<path d="M113.877 104.148C112.955 104.767 112.064 105.365 111.172 105.964L103.639 95.9541C104.53 95.3556 105.422 94.7571 106.343 94.1386L109.195 97.928L109.388 97.7984C112.048 96.0128 110.472 94.1864 109.062 92.3132C109.969 91.7047 110.875 91.0962 111.796 90.4777C113.335 92.5226 114.815 94.3702 113.708 97.0295L119.846 99.5385L120.147 99.9389L117.19 101.924L111.985 99.5849C111.672 99.8815 111.345 100.101 111.003 100.33L113.877 104.148Z" fill="#B2FFF6"/>
<path d="M125.613 87.2714C125.975 87.9302 126.062 88.8605 125.733 89.5108C126.94 89.6118 127.841 90.2597 128.375 91.2322C129.41 93.1521 129.021 95.1644 126.621 96.0523L121.115 98.0888L115.082 87.1091L120.101 85.2526C122.132 84.5013 124.57 85.3735 125.613 87.2714ZM124.007 91.7725L121.623 92.6542L122.649 94.5207L125.049 93.6328C126.258 93.1858 125.215 91.3254 124.007 91.7725ZM121.245 87.8492L119.365 88.5446L120.339 90.317L122.236 89.6154C123.427 89.1746 122.454 87.4021 121.245 87.8492Z" fill="#B2FFF6"/>
<g filter="url(#filter10_f_359_78567)">
<path d="M99.982 121.528C99.548 122.51 99.1139 123.493 98.6871 124.459C95.1617 122.231 91.6363 120.004 88.0958 117.767C88.8264 116.114 89.5788 114.411 90.3239 112.725C92.7626 107.251 100.63 112.221 98.2069 117.705L97.2737 119.817L99.982 121.528ZM95.7637 116.183C96.4726 114.578 93.5051 112.578 92.7376 114.271C92.4186 114.949 92.1082 115.695 91.8116 116.366C92.674 116.911 93.9752 117.733 94.8377 118.278L95.7637 116.183Z" fill="#B2FFF6"/>
<path d="M105.668 111.671C104.982 112.497 104.297 113.324 103.623 114.136C100.558 111.308 97.4941 108.48 94.4167 105.639C95.5707 104.248 96.7589 102.815 97.9357 101.397C101.776 96.7938 108.615 103.106 104.788 107.721L103.314 109.498L105.668 111.671ZM102.659 105.78C103.779 104.43 101.23 101.932 100.029 103.352C99.5355 103.919 99.0345 104.551 98.5661 105.116C99.3157 105.808 100.447 106.852 101.196 107.543L102.659 105.78Z" fill="#B2FFF6"/>
<path d="M113.877 104.148C112.955 104.767 112.064 105.365 111.172 105.964L103.639 95.9541C104.53 95.3556 105.422 94.7571 106.343 94.1386L109.195 97.928L109.388 97.7984C112.048 96.0128 110.472 94.1864 109.062 92.3132C109.969 91.7047 110.875 91.0962 111.796 90.4777C113.335 92.5226 114.815 94.3702 113.708 97.0295L119.846 99.5385L120.147 99.9389L117.19 101.924L111.985 99.5849C111.672 99.8815 111.345 100.101 111.003 100.33L113.877 104.148Z" fill="#B2FFF6"/>
<path d="M125.613 87.2714C125.975 87.9302 126.062 88.8605 125.733 89.5108C126.94 89.6118 127.841 90.2597 128.375 91.2322C129.41 93.1521 129.021 95.1644 126.621 96.0523L121.115 98.0888L115.082 87.1091L120.101 85.2526C122.132 84.5013 124.57 85.3735 125.613 87.2714ZM124.007 91.7725L121.623 92.6542L122.649 94.5207L125.049 93.6328C126.258 93.1858 125.215 91.3254 124.007 91.7725ZM121.245 87.8492L119.365 88.5446L120.339 90.317L122.236 89.6154C123.427 89.1746 122.454 87.4021 121.245 87.8492Z" fill="#B2FFF6"/>
</g>
<path d="M187.976 268.581C188.524 265.925 181.993 264.546 181.488 266.993C181.186 268.456 182.849 269.142 184.914 269.692C189.384 270.957 192.048 273.126 191.171 277.675C189.49 286.727 173.251 283.375 175.231 274.385C177.112 274.773 178.485 275.056 180.306 275.432C179.733 278.208 185.394 279.128 186.084 276.687C186.53 275.13 185.046 274.481 183.209 273.884C179.152 272.58 175.222 271.115 176.3 265.891C178.112 257.115 195.157 260.478 193.14 269.647C191.349 269.278 189.796 268.957 187.976 268.581Z" fill="#B2FFF6"/>
<path d="M156.278 253.13L162.87 266.652L166.399 256.779C168.178 257.415 169.958 258.051 171.709 258.677L164.497 278.854L162.632 278.187L156.021 264.625L152.502 274.47C150.752 273.844 149.001 273.218 147.25 272.592L154.441 252.473L156.278 253.13Z" fill="#B2FFF6"/>
<path d="M127.911 251.995C128.638 250.941 130.047 250.025 131.384 249.911C130.456 248.197 130.678 246.425 131.751 244.869C133.887 241.825 137.456 240.621 141.044 243.095L149.275 248.77L137.164 266.335L129.662 261.162C126.625 259.068 125.818 255.032 127.911 251.995ZM136.561 250.296L140.124 252.753L142.183 249.767L138.595 247.293C136.788 246.047 134.754 249.05 136.561 250.296ZM132.781 257.389L135.591 259.327L137.546 256.491L134.711 254.536C132.929 253.308 130.974 256.144 132.781 257.389Z" fill="#B2FFF6"/>
<path d="M119.17 246.99L122.713 250.853C121.5 251.966 120.31 253.057 119.119 254.149L108.406 242.47C109.596 241.378 110.787 240.286 112 239.173L115.523 243.014L127.652 231.889C128.867 233.214 130.083 234.539 131.299 235.864L119.17 246.99Z" fill="#B2FFF6"/>
<g filter="url(#filter11_f_359_78567)">
<path d="M187.976 268.581C188.524 265.925 181.993 264.546 181.488 266.993C181.186 268.456 182.849 269.142 184.914 269.692C189.384 270.957 192.048 273.126 191.171 277.675C189.49 286.727 173.251 283.375 175.231 274.385C177.112 274.773 178.485 275.056 180.306 275.432C179.733 278.208 185.394 279.128 186.084 276.687C186.53 275.13 185.046 274.481 183.209 273.884C179.152 272.58 175.222 271.115 176.3 265.891C178.112 257.115 195.157 260.478 193.14 269.647C191.349 269.278 189.796 268.957 187.976 268.581Z" fill="#B2FFF6"/>
<path d="M156.278 253.13L162.87 266.652L166.399 256.779C168.178 257.415 169.958 258.051 171.709 258.677L164.497 278.854L162.632 278.187L156.021 264.625L152.502 274.47C150.752 273.844 149.001 273.218 147.25 272.592L154.441 252.473L156.278 253.13Z" fill="#B2FFF6"/>
<path d="M127.911 251.995C128.638 250.941 130.047 250.025 131.384 249.911C130.456 248.197 130.678 246.425 131.751 244.869C133.887 241.825 137.456 240.621 141.044 243.095L149.275 248.77L137.164 266.335L129.662 261.162C126.625 259.068 125.818 255.032 127.911 251.995ZM136.561 250.296L140.124 252.753L142.183 249.767L138.595 247.293C136.788 246.047 134.754 249.05 136.561 250.296ZM132.781 257.389L135.591 259.327L137.546 256.491L134.711 254.536C132.929 253.308 130.974 256.144 132.781 257.389Z" fill="#B2FFF6"/>
<path d="M119.17 246.99L122.713 250.853C121.5 251.966 120.31 253.057 119.119 254.149L108.406 242.47C109.596 241.378 110.787 240.286 112 239.173L115.523 243.014L127.652 231.889C128.867 233.214 130.083 234.539 131.299 235.864L119.17 246.99Z" fill="#B2FFF6"/>
</g>
<path d="M140.722 82.1038C141.219 83.238 143.972 81.9341 143.515 80.8892C143.241 80.2648 142.452 80.4733 141.551 80.8431C139.583 81.6168 138.038 81.5553 137.164 79.6304C135.403 75.8181 142.228 72.5476 143.864 76.4201C143.074 76.7988 142.497 77.0754 141.731 77.4421C141.212 76.257 138.898 77.4892 139.286 78.5829C139.532 79.2823 140.246 79.1099 141.075 78.8203C142.903 78.1758 144.726 77.6258 145.703 79.8558C147.344 83.6023 140.221 87.0928 138.552 83.1439C139.305 82.7832 139.957 82.4706 140.722 82.1038Z" fill="#C7EF86"/>
<path d="M151.465 78.2815L152.619 77.8328L153.344 79.8934L148.74 81.6831L148.016 79.6225L149.17 79.1738L147.385 74.0944L146.322 74.5078L145.602 72.4603L150.024 70.7411L150.743 72.7887L149.68 73.2021L151.465 78.2815Z" fill="#C7EF86"/>
<path d="M158.869 72.2888L161.545 67.1124L162.4 66.8647L164.829 76.3242C164.014 76.5603 163.199 76.7964 162.384 77.0325L161.304 72.8283L159.853 75.5072L159.586 75.5846L157.068 74.0553L158.148 78.2595C157.333 78.4957 156.518 78.7318 155.702 78.9679L153.274 69.5084L154.156 69.2529L158.869 72.2888Z" fill="#C7EF86"/>
<path d="M174.071 74.5651L173.33 73.4523L169.548 74.1144L169.165 75.4239L166.767 75.8437L166.714 75.4859L169.642 65.3302L170.697 65.1455L176.417 73.7874L176.469 74.1452L174.071 74.5651ZM172.225 71.4857L170.74 69.1477L170.032 71.8696L172.225 71.4857Z" fill="#C7EF86"/>
<path d="M180.757 73.7355C179.897 73.7983 179.064 73.8589 178.232 73.9196L177.737 64.1937C178.569 64.133 179.402 64.0723 180.262 64.0096L180.45 67.6916L180.63 67.6784C183.114 67.4974 182.894 65.6447 182.801 63.8245C183.648 63.7628 184.494 63.7012 185.354 63.6384C185.456 65.6253 185.604 67.4553 183.739 68.8325L186.593 72.9197L186.613 73.3088L183.851 73.51L181.523 69.9004C181.193 69.9803 180.888 70.0025 180.568 70.0258L180.757 73.7355Z" fill="#C7EF86"/>
<g filter="url(#filter12_f_359_78567)">
<path d="M140.722 82.1038C141.219 83.238 143.972 81.9341 143.515 80.8892C143.241 80.2648 142.452 80.4733 141.551 80.8431C139.583 81.6168 138.038 81.5553 137.164 79.6304C135.403 75.8181 142.228 72.5476 143.864 76.4201C143.074 76.7988 142.497 77.0754 141.731 77.4421C141.212 76.257 138.898 77.4892 139.286 78.5829C139.532 79.2823 140.246 79.1099 141.075 78.8203C142.903 78.1758 144.726 77.6258 145.703 79.8558C147.344 83.6023 140.221 87.0928 138.552 83.1439C139.305 82.7832 139.957 82.4706 140.722 82.1038Z" fill="#E0FFAE"/>
<path d="M151.465 78.2815L152.619 77.8328L153.344 79.8934L148.74 81.6831L148.016 79.6225L149.17 79.1738L147.385 74.0944L146.322 74.5078L145.602 72.4603L150.024 70.7411L150.743 72.7887L149.68 73.2021L151.465 78.2815Z" fill="#E0FFAE"/>
<path d="M158.869 72.2888L161.545 67.1124L162.4 66.8647L164.829 76.3242C164.014 76.5603 163.199 76.7964 162.384 77.0325L161.304 72.8283L159.853 75.5072L159.586 75.5846L157.068 74.0553L158.148 78.2595C157.333 78.4957 156.518 78.7318 155.702 78.9679L153.274 69.5084L154.156 69.2529L158.869 72.2888Z" fill="#E0FFAE"/>
<path d="M174.071 74.5651L173.33 73.4523L169.548 74.1144L169.165 75.4239L166.767 75.8437L166.714 75.4859L169.642 65.3302L170.697 65.1455L176.417 73.7874L176.469 74.1452L174.071 74.5651ZM172.225 71.4857L170.74 69.1477L170.032 71.8696L172.225 71.4857Z" fill="#E0FFAE"/>
<path d="M180.757 73.7354C179.897 73.7981 179.064 73.8588 178.232 73.9195L177.737 64.1936C178.569 64.1329 179.402 64.0722 180.262 64.0095L180.45 67.6915L180.63 67.6783C183.114 67.4973 182.894 65.6446 182.801 63.8244C183.648 63.7627 184.494 63.701 185.354 63.6383C185.456 65.6252 185.604 67.4552 183.739 68.8323L186.593 72.9196L186.613 73.3086L183.851 73.5099L181.523 69.9003C181.193 69.9802 180.888 70.0024 180.568 70.0257L180.757 73.7354Z" fill="#E0FFAE"/>
</g>
<g filter="url(#filter13_d_359_78567)">
<path d="M89.2798 121.6L89.6573 125.21L87.9721 123.61L85.8813 122.319L89.2798 121.6Z" fill="#B2FFF6"/>
<path d="M92.7249 140.397C89.8176 147.799 81.6086 151.5 74.3895 148.664C67.1704 145.829 63.6749 137.53 66.5822 130.128C69.4894 122.727 77.6984 119.026 84.9175 121.861C92.1366 124.697 95.6321 132.996 92.7249 140.397ZM67.0011 130.293C64.187 137.457 67.5705 145.49 74.5582 148.235C81.5459 150.979 89.4919 147.397 92.3059 140.233C95.12 133.068 91.7366 125.035 84.7488 122.291C77.7611 119.546 69.8152 123.129 67.0011 130.293Z" fill="#B2FFF6"/>
<path d="M75.9938 130.496L74.718 129.994L75.4829 128.047L79.0953 129.466L76.173 136.906L77.5965 137.465L76.8264 139.426L71.6696 137.4L72.4397 135.44L73.8364 135.988L75.9938 130.496ZM83.3558 135.604C84.0737 135.157 84.9216 134.064 83.7398 133.6C83.2027 133.389 82.713 133.491 82.4545 134.149C81.6622 133.838 81.1922 133.654 80.4133 133.348C81.183 131.309 82.9431 130.854 84.6241 131.467C87.3497 132.46 87.4818 135.597 85.2359 137.211L82.3085 139.099L85.1018 140.196C84.78 141.015 84.5796 141.526 84.2578 142.345L77.6507 139.75L77.7931 139.387L83.3558 135.604Z" fill="white"/>
<g filter="url(#filter14_d_359_78567)">
<ellipse cx="79.6438" cy="135.288" rx="13.2189" ry="13.7304" transform="rotate(21.4445 79.6438 135.288)" fill="#29443D" fill-opacity="0.34" shape-rendering="crispEdges"/>
</g>
</g>
<path d="M159.574 97.7244L157.823 98.2462L157.026 95.573L161.986 94.0954L165.029 104.309L166.983 103.727L167.785 106.419L160.706 108.528L159.904 105.836L161.821 105.265L159.574 97.7244ZM171.503 97.0409C171.89 95.9822 171.882 94.1377 170.26 94.6211C169.522 94.8408 169.092 95.3504 169.361 96.2538C168.273 96.5779 167.628 96.7701 166.559 97.0887C165.692 94.3158 167.166 92.3913 169.436 91.6548C173.114 90.4585 175.83 93.644 174.797 97.1835L173.274 101.572L177.109 100.429C177.444 101.554 177.652 102.254 177.988 103.379L168.917 106.081L168.769 105.584L171.503 97.0409Z" fill="#DEFDAB" fill-opacity="0.24"/>
<g filter="url(#filter15_d_359_78567)">
<path d="M227.499 62.7737L226.113 58.8865L228.439 60.2193L231.142 61.1071L227.499 62.7737Z" fill="#59A573"/>
<path d="M230.055 60.939C221.299 58.1194 216.491 48.7179 219.317 39.9401C222.143 31.1623 231.533 26.3322 240.29 29.1518C249.047 31.9714 253.855 41.3729 251.029 50.1507C248.203 58.9285 238.812 63.7585 230.055 60.939ZM240.126 29.6612C231.65 26.9319 222.561 31.6072 219.825 40.1037C217.089 48.6002 221.743 57.7004 230.219 60.4296C238.696 63.1588 247.785 58.4835 250.521 49.9871C253.256 41.4906 248.603 32.3904 240.126 29.6612Z" fill="#59A573"/>
<path d="M232.933 45.0552L231.503 46.6375C230.847 46.0484 230.179 45.4487 229.523 44.8596L230.952 43.2773L227.314 40.0107L228.152 39.0828L236.735 36.2535L239.025 38.3099L234.501 43.3183L235.217 43.961C234.691 44.5439 234.153 45.1387 233.648 45.6979L232.933 45.0552ZM235.014 39.2112L231.269 40.4159L232.605 41.6154L233.733 40.3663L235.038 39.2326L235.014 39.2112ZM242.789 48.1961C243.457 51.4028 239.648 54.209 236.272 51.178C232.873 48.1256 235.296 44.0318 238.577 44.3928C238.554 41.9798 241.452 40.23 244.052 42.5649C246.652 44.8997 245.176 47.9692 242.789 48.1961ZM237.895 49.3816C239.338 50.6776 241.208 48.6076 239.765 47.3116C238.333 46.0264 236.464 48.0964 237.895 49.3816ZM241.333 45.5747C242.359 46.4958 243.563 45.1634 242.537 44.2423C241.499 43.3105 240.296 44.6429 241.333 45.5747Z" fill="white"/>
<ellipse cx="235.143" cy="45.0359" rx="15.7166" ry="15.8849" transform="rotate(107.848 235.143 45.0359)" fill="#29443D" fill-opacity="0.34"/>
</g>
<defs>
<filter id="filter0_d_359_78567" x="189.448" y="72.6909" width="118.755" height="176.698" filterUnits="userSpaceOnUse" color-interpolation-filters="sRGB">
<feFlood flood-opacity="0" result="BackgroundImageFix"/>
<feColorMatrix in="SourceAlpha" type="matrix" values="0 0 0 0 0 0 0 0 0 0 0 0 0 0 0 0 0 0 127 0" result="hardAlpha"/>
<feOffset dy="1.60311"/>
<feGaussianBlur stdDeviation="0.801553"/>
<feComposite in2="hardAlpha" operator="out"/>
<feColorMatrix type="matrix" values="0 0 0 0 0 0 0 0 0 0 0 0 0 0 0 0 0 0 0.25 0"/>
<feBlend mode="normal" in2="BackgroundImageFix" result="effect1_dropShadow_359_78567"/>
<feBlend mode="normal" in="SourceGraphic" in2="effect1_dropShadow_359_78567" result="shape"/>
</filter>
<filter id="filter1_f_359_78567" x="188.765" y="70.2926" width="120.239" height="178.161" filterUnits="userSpaceOnUse" color-interpolation-filters="sRGB">
<feFlood flood-opacity="0" result="BackgroundImageFix"/>
<feBlend mode="normal" in="SourceGraphic" in2="BackgroundImageFix" result="shape"/>
<feGaussianBlur stdDeviation="1.20233" result="effect1_foregroundBlur_359_78567"/>
</filter>
<filter id="filter2_f_359_78567" x="123.512" y="53.2556" width="71.8137" height="86.3573" filterUnits="userSpaceOnUse" color-interpolation-filters="sRGB">
<feFlood flood-opacity="0" result="BackgroundImageFix"/>
<feBlend mode="normal" in="SourceGraphic" in2="BackgroundImageFix" result="shape"/>
<feGaussianBlur stdDeviation="1.20233" result="effect1_foregroundBlur_359_78567"/>
</filter>
<filter id="filter3_d_359_78567" x="122.563" y="55.6664" width="72.5468" height="85.1866" filterUnits="userSpaceOnUse" color-interpolation-filters="sRGB">
<feFlood flood-opacity="0" result="BackgroundImageFix"/>
<feColorMatrix in="SourceAlpha" type="matrix" values="0 0 0 0 0 0 0 0 0 0 0 0 0 0 0 0 0 0 127 0" result="hardAlpha"/>
<feOffset dy="1.60311"/>
<feGaussianBlur stdDeviation="0.801553"/>
<feComposite in2="hardAlpha" operator="out"/>
<feColorMatrix type="matrix" values="0 0 0 0 0 0 0 0 0 0 0 0 0 0 0 0 0 0 0.25 0"/>
<feBlend mode="normal" in2="BackgroundImageFix" result="effect1_dropShadow_359_78567"/>
<feBlend mode="normal" in="SourceGraphic" in2="effect1_dropShadow_359_78567" result="shape"/>
</filter>
<filter id="filter4_d_359_78567" x="73.2988" y="72.6156" width="89.4174" height="89.8987" filterUnits="userSpaceOnUse" color-interpolation-filters="sRGB">
<feFlood flood-opacity="0" result="BackgroundImageFix"/>
<feColorMatrix in="SourceAlpha" type="matrix" values="0 0 0 0 0 0 0 0 0 0 0 0 0 0 0 0 0 0 127 0" result="hardAlpha"/>
<feOffset dy="1.6031"/>
<feGaussianBlur stdDeviation="0.801552"/>
<feComposite in2="hardAlpha" operator="out"/>
<feColorMatrix type="matrix" values="0 0 0 0 0 0 0 0 0 0 0 0 0 0 0 0 0 0 0.25 0"/>
<feBlend mode="normal" in2="BackgroundImageFix" result="effect1_dropShadow_359_78567"/>
<feBlend mode="normal" in="SourceGraphic" in2="effect1_dropShadow_359_78567" result="shape"/>
</filter>
<filter id="filter5_f_359_78567" x="72.7528" y="70.4922" width="90.5347" height="91.0261" filterUnits="userSpaceOnUse" color-interpolation-filters="sRGB">
<feFlood flood-opacity="0" result="BackgroundImageFix"/>
<feBlend mode="normal" in="SourceGraphic" in2="BackgroundImageFix" result="shape"/>
<feGaussianBlur stdDeviation="1.20233" result="effect1_foregroundBlur_359_78567"/>
</filter>
<filter id="filter6_d_359_78567" x="80.2873" y="136.063" width="200.456" height="160.926" filterUnits="userSpaceOnUse" color-interpolation-filters="sRGB">
<feFlood flood-opacity="0" result="BackgroundImageFix"/>
<feColorMatrix in="SourceAlpha" type="matrix" values="0 0 0 0 0 0 0 0 0 0 0 0 0 0 0 0 0 0 127 0" result="hardAlpha"/>
<feOffset dy="1.60311"/>
<feGaussianBlur stdDeviation="0.801553"/>
<feComposite in2="hardAlpha" operator="out"/>
<feColorMatrix type="matrix" values="0 0 0 0 0 0 0 0 0 0 0 0 0 0 0 0 0 0 0.25 0"/>
<feBlend mode="normal" in2="BackgroundImageFix" result="effect1_dropShadow_359_78567"/>
<feBlend mode="normal" in="SourceGraphic" in2="effect1_dropShadow_359_78567" result="shape"/>
</filter>
<filter id="filter7_f_359_78567" x="80.1713" y="133.458" width="201.173" height="161.461" filterUnits="userSpaceOnUse" color-interpolation-filters="sRGB">
<feFlood flood-opacity="0" result="BackgroundImageFix"/>
<feBlend mode="normal" in="SourceGraphic" in2="BackgroundImageFix" result="shape"/>
<feGaussianBlur stdDeviation="1.20233" result="effect1_foregroundBlur_359_78567"/>
</filter>
<filter id="filter8_f_359_78567" x="85.3806" y="153.068" width="202.97" height="75.7354" filterUnits="userSpaceOnUse" color-interpolation-filters="sRGB">
<feFlood flood-opacity="0" result="BackgroundImageFix"/>
<feBlend mode="normal" in="SourceGraphic" in2="BackgroundImageFix" result="shape"/>
<feGaussianBlur stdDeviation="1.40272" result="effect1_foregroundBlur_359_78567"/>
</filter>
<filter id="filter9_f_359_78567" x="231.729" y="98.397" width="65.5098" height="87.4499" filterUnits="userSpaceOnUse" color-interpolation-filters="sRGB">
<feFlood flood-opacity="0" result="BackgroundImageFix"/>
<feBlend mode="normal" in="SourceGraphic" in2="BackgroundImageFix" result="shape"/>
<feGaussianBlur stdDeviation="1.40272" result="effect1_foregroundBlur_359_78567"/>
</filter>
<filter id="filter10_f_359_78567" x="86.0918" y="81.7151" width="46.1923" height="44.7473" filterUnits="userSpaceOnUse" color-interpolation-filters="sRGB">
<feFlood flood-opacity="0" result="BackgroundImageFix"/>
<feBlend mode="normal" in="SourceGraphic" in2="BackgroundImageFix" result="shape"/>
<feGaussianBlur stdDeviation="1.00194" result="effect1_foregroundBlur_359_78567"/>
</filter>
<filter id="filter11_f_359_78567" x="105.601" y="225.242" width="92.3616" height="64.3391" filterUnits="userSpaceOnUse" color-interpolation-filters="sRGB">
<feFlood flood-opacity="0" result="BackgroundImageFix"/>
<feBlend mode="normal" in="SourceGraphic" in2="BackgroundImageFix" result="shape"/>
<feGaussianBlur stdDeviation="1.40272" result="effect1_foregroundBlur_359_78567"/>
</filter>
<filter id="filter12_f_359_78567" x="133.299" y="61.5789" width="55.3176" height="27.5178" filterUnits="userSpaceOnUse" color-interpolation-filters="sRGB">
<feFlood flood-opacity="0" result="BackgroundImageFix"/>
<feBlend mode="normal" in="SourceGraphic" in2="BackgroundImageFix" result="shape"/>
<feGaussianBlur stdDeviation="1.00194" result="effect1_foregroundBlur_359_78567"/>
</filter>
<filter id="filter13_d_359_78567" x="64.9105" y="120.907" width="29.4861" height="30.0063" filterUnits="userSpaceOnUse" color-interpolation-filters="sRGB">
<feFlood flood-opacity="0" result="BackgroundImageFix"/>
<feColorMatrix in="SourceAlpha" type="matrix" values="0 0 0 0 0 0 0 0 0 0 0 0 0 0 0 0 0 0 127 0" result="hardAlpha"/>
<feOffset dy="0.647846"/>
<feGaussianBlur stdDeviation="0.323923"/>
<feComposite in2="hardAlpha" operator="out"/>
<feColorMatrix type="matrix" values="0 0 0 0 0.243137 0 0 0 0 0.513726 0 0 0 0 0.447059 0 0 0 1 0"/>
<feBlend mode="normal" in2="BackgroundImageFix" result="effect1_dropShadow_359_78567"/>
<feBlend mode="normal" in="SourceGraphic" in2="effect1_dropShadow_359_78567" result="shape"/>
</filter>
<filter id="filter14_d_359_78567" x="64.7487" y="121.621" width="29.7902" height="30.54" filterUnits="userSpaceOnUse" color-interpolation-filters="sRGB">
<feFlood flood-opacity="0" result="BackgroundImageFix"/>
<feColorMatrix in="SourceAlpha" type="matrix" values="0 0 0 0 0 0 0 0 0 0 0 0 0 0 0 0 0 0 127 0" result="hardAlpha"/>
<feOffset dy="1.60311"/>
<feGaussianBlur stdDeviation="0.801553"/>
<feComposite in2="hardAlpha" operator="out"/>
<feColorMatrix type="matrix" values="0 0 0 0 0.698039 0 0 0 0 1 0 0 0 0 0.964706 0 0 0 1 0"/>
<feBlend mode="normal" in2="BackgroundImageFix" result="effect1_dropShadow_359_78567"/>
<feBlend mode="normal" in="SourceGraphic" in2="effect1_dropShadow_359_78567" result="shape"/>
</filter>
<filter id="filter15_d_359_78567" x="217.892" y="28.3474" width="34.5608" height="35.6555" filterUnits="userSpaceOnUse" color-interpolation-filters="sRGB">
<feFlood flood-opacity="0" result="BackgroundImageFix"/>
<feColorMatrix in="SourceAlpha" type="matrix" values="0 0 0 0 0 0 0 0 0 0 0 0 0 0 0 0 0 0 127 0" result="hardAlpha"/>
<feOffset dy="0.614615"/>
<feGaussianBlur stdDeviation="0.307308"/>
<feComposite in2="hardAlpha" operator="out"/>
<feColorMatrix type="matrix" values="0 0 0 0 0.235294 0 0 0 0 0.270588 0 0 0 0 0.176471 0 0 0 1 0"/>
<feBlend mode="normal" in2="BackgroundImageFix" result="effect1_dropShadow_359_78567"/>
<feBlend mode="normal" in="SourceGraphic" in2="effect1_dropShadow_359_78567" result="shape"/>
</filter>
<radialGradient id="paint0_radial_359_78567" cx="0" cy="0" r="1" gradientUnits="userSpaceOnUse" gradientTransform="translate(189.572 189.68) rotate(-133.442) scale(117.027 117.027)">
<stop offset="0.677083" stop-color="#81FDC1" stop-opacity="0.12"/>
<stop offset="1" stop-color="#BFFD81" stop-opacity="0.3"/>
</radialGradient>
<radialGradient id="paint1_radial_359_78567" cx="0" cy="0" r="1" gradientUnits="userSpaceOnUse" gradientTransform="translate(189.604 189.781) rotate(-18.5466) scale(140.259 140.175)">
<stop offset="0.423517" stop-color="#A2E75D" stop-opacity="0"/>
<stop offset="0.428667" stop-color="#A2E75D"/>
</radialGradient>
<radialGradient id="paint2_radial_359_78567" cx="0" cy="0" r="1" gradientUnits="userSpaceOnUse" gradientTransform="translate(189.604 189.781) rotate(-18.5466) scale(140.259 140.175)">
<stop offset="0.390625" stop-color="#A2E75D" stop-opacity="0"/>
<stop offset="0.505208" stop-color="#E1FFC2"/>
</radialGradient>
<linearGradient id="paint3_linear_359_78567" x1="185.931" y1="159.73" x2="330.472" y2="116.636" gradientUnits="userSpaceOnUse">
<stop offset="0.370149" stop-color="#62CE9A"/>
<stop offset="0.875758" stop-color="#89CE62" stop-opacity="0"/>
</linearGradient>
<radialGradient id="paint4_radial_359_78567" cx="0" cy="0" r="1" gradientUnits="userSpaceOnUse" gradientTransform="translate(190.424 190.119) rotate(-14.14) scale(161.112 160.86)">
<stop offset="0.390625" stop-color="#A2E75D" stop-opacity="0"/>
<stop offset="0.505208" stop-color="#E1FFC2"/>
</radialGradient>
<linearGradient id="paint5_linear_359_78567" x1="164.189" y1="194.143" x2="162.943" y2="42.9702" gradientUnits="userSpaceOnUse">
<stop offset="0.487578" stop-color="#6DEACC"/>
<stop offset="0.942708" stop-color="#6DEAD3" stop-opacity="0"/>
</linearGradient>
<radialGradient id="paint6_radial_359_78567" cx="0" cy="0" r="1" gradientUnits="userSpaceOnUse" gradientTransform="translate(190.397 190) rotate(-127.168) scale(134.26 134.46)">
<stop offset="0.677083" stop-color="#BFFD81" stop-opacity="0.12"/>
<stop offset="1" stop-color="#BFFD81" stop-opacity="0.3"/>
</radialGradient>
<radialGradient id="paint7_radial_359_78567" cx="0" cy="0" r="1" gradientUnits="userSpaceOnUse" gradientTransform="translate(190.397 190) rotate(-128.292) scale(141.651 128.927)">
<stop offset="0.456074" stop-color="#A2E75D" stop-opacity="0"/>
<stop offset="0.551551" stop-color="#A2E75D"/>
</radialGradient>
<radialGradient id="paint8_radial_359_78567" cx="0" cy="0" r="1" gradientUnits="userSpaceOnUse" gradientTransform="translate(190.397 189.999) rotate(-157.592) scale(134.26 134.46)">
<stop offset="0.677083" stop-color="#81E6FD" stop-opacity="0.12"/>
<stop offset="1" stop-color="#81FDFD" stop-opacity="0.3"/>
</radialGradient>
<radialGradient id="paint9_radial_359_78567" cx="0" cy="0" r="1" gradientUnits="userSpaceOnUse" gradientTransform="translate(190.397 189.999) rotate(-158.715) scale(141.651 128.927)">
<stop offset="0.456074" stop-color="#5DE7D6" stop-opacity="0"/>
<stop offset="0.505208" stop-color="#5DCEE7"/>
</radialGradient>
<radialGradient id="paint10_radial_359_78567" cx="0" cy="0" r="1" gradientUnits="userSpaceOnUse" gradientTransform="translate(190.481 190.088) rotate(-44.5637) scale(161.112 160.86)">
<stop offset="0.390625" stop-color="#5DE7CE" stop-opacity="0"/>
<stop offset="0.505208" stop-color="#C2FFF8"/>
</radialGradient>
<linearGradient id="paint11_linear_359_78567" x1="169.896" y1="206.844" x2="92.269" y2="77.1173" gradientUnits="userSpaceOnUse">
<stop offset="0.487578" stop-color="#6DEACC"/>
<stop offset="0.942708" stop-color="#6DEAD3" stop-opacity="0"/>
</linearGradient>
<radialGradient id="paint12_radial_359_78567" cx="0" cy="0" r="1" gradientUnits="userSpaceOnUse" gradientTransform="translate(172.682 190.758) rotate(128.635) scale(133.018 108.765)">
<stop offset="0.485952" stop-color="#81FDF5" stop-opacity="0.01"/>
<stop offset="0.763451" stop-color="#81FDF5" stop-opacity="0.23"/>
<stop offset="1" stop-color="#81FDDF" stop-opacity="0.3"/>
</radialGradient>
<radialGradient id="paint13_radial_359_78567" cx="0" cy="0" r="1" gradientUnits="userSpaceOnUse" gradientTransform="translate(178.746 213.614) rotate(117.891) scale(96.8116 180.359)">
<stop offset="0.53115" stop-color="#A2E75D" stop-opacity="0"/>
<stop offset="0.53125" stop-color="#A2E75D"/>
</radialGradient>
<radialGradient id="paint14_radial_359_78567" cx="0" cy="0" r="1" gradientUnits="userSpaceOnUse" gradientTransform="translate(150.743 208.569) rotate(-160.205) scale(83.5058 93.8234)">
<stop offset="0.390625" stop-color="#A2E75D" stop-opacity="0"/>
<stop offset="0.505208" stop-color="#E1FFC2"/>
</radialGradient>
<linearGradient id="paint15_linear_359_78567" x1="128.479" y1="154.836" x2="56.3392" y2="298.77" gradientUnits="userSpaceOnUse">
<stop offset="0.370149" stop-color="#A5CE62"/>
<stop offset="0.84413" stop-color="#89CE62" stop-opacity="0"/>
</linearGradient>
<radialGradient id="paint16_radial_359_78567" cx="0" cy="0" r="1" gradientUnits="userSpaceOnUse" gradientTransform="translate(254.22 111.767) rotate(127.519) scale(174.537 174.537)">
<stop offset="0.40421" stop-color="#5DE7C6"/>
<stop offset="0.617124" stop-color="#5DE7C3" stop-opacity="0.486621"/>
<stop offset="0.933688" stop-color="#5DE7C1" stop-opacity="0.07"/>
</radialGradient>
</defs>
</svg>
