<svg width="381" height="380" viewBox="0 0 381 380" fill="none" xmlns="http://www.w3.org/2000/svg">
<g filter="url(#filter0_d_359_78491)">
<mask id="path-1-inside-1_359_78491" fill="white">
<path d="M231.988 317.861C248.787 312.465 264.353 303.814 277.799 292.403C291.245 280.992 302.306 267.043 310.351 251.355C318.396 235.666 323.268 218.544 324.688 200.966C326.108 183.388 324.048 165.699 318.627 148.908C313.205 132.117 304.528 116.553 293.091 103.105C281.653 89.6577 267.68 78.5893 251.968 70.5321C236.255 62.4749 219.112 57.5868 201.518 56.1467C183.923 54.7067 166.22 56.7429 149.421 62.1393L172.86 134.734C180.121 132.401 187.773 131.521 195.378 132.143C202.984 132.766 210.393 134.879 217.185 138.361C223.976 141.844 230.016 146.628 234.96 152.441C239.904 158.253 243.654 164.981 245.998 172.238C248.341 179.496 249.231 187.142 248.617 194.74C248.004 202.338 245.898 209.739 242.42 216.52C238.943 223.301 234.162 229.33 228.35 234.263C222.538 239.195 215.81 242.934 208.549 245.267L231.988 317.861Z"/>
</mask>
<path d="M231.988 317.861C248.787 312.465 264.353 303.814 277.799 292.403C291.245 280.992 302.306 267.043 310.351 251.355C318.396 235.666 323.268 218.544 324.688 200.966C326.108 183.388 324.048 165.699 318.627 148.908C313.205 132.117 304.528 116.553 293.091 103.105C281.653 89.6577 267.68 78.5893 251.968 70.5321C236.255 62.4749 219.112 57.5868 201.518 56.1467C183.923 54.7067 166.22 56.7429 149.421 62.1393L172.86 134.734C180.121 132.401 187.773 131.521 195.378 132.143C202.984 132.766 210.393 134.879 217.185 138.361C223.976 141.844 230.016 146.628 234.96 152.441C239.904 158.253 243.654 164.981 245.998 172.238C248.341 179.496 249.231 187.142 248.617 194.74C248.004 202.338 245.898 209.739 242.42 216.52C238.943 223.301 234.162 229.33 228.35 234.263C222.538 239.195 215.81 242.934 208.549 245.267L231.988 317.861Z" fill="url(#paint0_radial_359_78491)" shape-rendering="crispEdges"/>
<path d="M231.988 317.861C248.787 312.465 264.353 303.814 277.799 292.403C291.245 280.992 302.306 267.043 310.351 251.355C318.396 235.666 323.268 218.544 324.688 200.966C326.108 183.388 324.048 165.699 318.627 148.908C313.205 132.117 304.528 116.553 293.091 103.105C281.653 89.6577 267.68 78.5893 251.968 70.5321C236.255 62.4749 219.112 57.5868 201.518 56.1467C183.923 54.7067 166.22 56.7429 149.421 62.1393L172.86 134.734C180.121 132.401 187.773 131.521 195.378 132.143C202.984 132.766 210.393 134.879 217.185 138.361C223.976 141.844 230.016 146.628 234.96 152.441C239.904 158.253 243.654 164.981 245.998 172.238C248.341 179.496 249.231 187.142 248.617 194.74C248.004 202.338 245.898 209.739 242.42 216.52C238.943 223.301 234.162 229.33 228.35 234.263C222.538 239.195 215.81 242.934 208.549 245.267L231.988 317.861Z" stroke="url(#paint1_radial_359_78491)" stroke-width="1.97689" shape-rendering="crispEdges" mask="url(#path-1-inside-1_359_78491)"/>
</g>
<g filter="url(#filter1_f_359_78491)">
<mask id="path-2-inside-2_359_78491" fill="white">
<path d="M231.988 317.861C248.787 312.465 264.353 303.814 277.799 292.403C291.245 280.992 302.306 267.043 310.351 251.355C318.396 235.666 323.268 218.544 324.688 200.966C326.108 183.388 324.048 165.699 318.627 148.908C313.205 132.117 304.528 116.553 293.091 103.105C281.653 89.6577 267.68 78.5893 251.968 70.5321C236.255 62.4749 219.112 57.5868 201.518 56.1467C183.923 54.7067 166.22 56.7429 149.421 62.1393L172.199 132.685C179.729 130.266 187.664 129.354 195.552 129.999C203.439 130.645 211.123 132.836 218.166 136.447C225.209 140.059 231.473 145.021 236.6 151.049C241.727 157.077 245.617 164.053 248.047 171.58C250.477 179.107 251.4 187.036 250.764 194.916C250.127 202.795 247.943 210.47 244.337 217.503C240.731 224.535 235.773 230.788 229.745 235.903C223.718 241.018 216.74 244.896 209.21 247.315L231.988 317.861Z"/>
</mask>
<path d="M231.988 317.861C248.787 312.465 264.353 303.814 277.799 292.403C291.245 280.992 302.306 267.043 310.351 251.355C318.396 235.666 323.268 218.544 324.688 200.966C326.108 183.388 324.048 165.699 318.627 148.908C313.205 132.117 304.528 116.553 293.091 103.105C281.653 89.6577 267.68 78.5893 251.968 70.5321C236.255 62.4749 219.112 57.5868 201.518 56.1467C183.923 54.7067 166.22 56.7429 149.421 62.1393L172.199 132.685C179.729 130.266 187.664 129.354 195.552 129.999C203.439 130.645 211.123 132.836 218.166 136.447C225.209 140.059 231.473 145.021 236.6 151.049C241.727 157.077 245.617 164.053 248.047 171.58C250.477 179.107 251.4 187.036 250.764 194.916C250.127 202.795 247.943 210.47 244.337 217.503C240.731 224.535 235.773 230.788 229.745 235.903C223.718 241.018 216.74 244.896 209.21 247.315L231.988 317.861Z" stroke="url(#paint2_radial_359_78491)" stroke-width="1.97689" mask="url(#path-2-inside-2_359_78491)"/>
</g>
<path d="M240.522 303.537C267.231 290.671 288.502 268.76 300.559 241.693C312.616 214.626 314.68 184.154 306.384 155.686C298.087 127.218 279.968 102.595 255.241 86.1886C230.515 69.7819 200.781 62.6526 171.317 66.0661L172.233 73.8728C199.849 70.6733 227.719 77.3557 250.896 92.7339C274.072 108.112 291.056 131.191 298.832 157.875C306.608 184.558 304.674 213.12 293.373 238.49C282.071 263.86 262.134 284.397 237.1 296.456L240.522 303.537Z" fill="url(#paint3_linear_359_78491)"/>
<g filter="url(#filter2_d_359_78491)">
<path d="M164.025 102.999C146.361 108.009 130.578 116.424 116.576 133.731C102.575 151.039 95.0446 172.685 95.2807 194.945C95.5167 217.206 103.505 238.687 117.87 255.694C132.235 272.7 163.824 306.393 223.54 289.16L210.114 248.281C178.052 257.098 155.128 242.008 146.361 231.628C137.593 221.248 131.706 208.532 131.562 194.945C131.418 181.359 136.319 165.346 144.865 154.783C153.41 144.219 160.421 138.76 173.738 136.063L164.025 102.999Z" fill="url(#paint4_radial_359_78491)" shape-rendering="crispEdges"/>
<path d="M116.961 134.042C130.761 116.983 146.293 108.612 163.689 103.609L173.113 135.688C166.66 137.047 161.666 139.079 157.236 142.063C152.692 145.125 148.767 149.173 144.48 154.472C135.853 165.136 130.922 181.264 131.068 194.951C131.213 208.679 137.16 221.502 145.983 231.947C154.807 242.394 177.744 257.493 209.791 248.881L222.91 288.826C193.411 297.222 170.868 293.117 153.916 284.823C136.854 276.475 125.419 263.865 118.247 255.375C103.956 238.456 96.0097 217.085 95.7749 194.94C95.54 172.795 103.032 151.26 116.961 134.042Z" stroke="url(#paint5_radial_359_78491)" stroke-width="0.988446" shape-rendering="crispEdges"/>
</g>
<path d="M121.687 92.4504C99.9545 105.576 82.5891 124.465 71.787 146.728C60.9848 168.992 57.231 193.63 61.0003 217.528C64.7697 241.425 75.8928 263.508 92.9631 280.984C110.033 298.461 132.284 310.545 156.902 315.71L159.801 304.466C137.49 299.785 117.325 288.833 101.855 272.995C86.3844 257.157 76.3039 237.143 72.8878 215.486C69.4718 193.828 72.8737 171.499 82.6634 151.323C92.4531 131.146 108.191 114.027 127.887 102.132L121.687 92.4504Z" fill="url(#paint6_linear_359_78491)"/>
<g filter="url(#filter3_f_359_78491)">
<path d="M112.115 144.812C123.949 125.821 141.778 112.594 162.895 105.368L173.105 137.751C160.119 142.247 149.045 151.086 141.752 162.79C134.374 174.631 131.327 188.664 133.137 202.474C134.946 216.283 141.499 229.007 151.669 238.453C158.702 244.986 168.619 248.975 179.016 250.617C189.244 252.233 199.982 251.584 208.977 248.815L223.391 287.888C198.314 296.675 178.272 294.947 162.454 289.139C146.522 283.29 134.839 273.289 126.59 265.626C110.152 250.357 99.5585 229.79 96.6329 207.465C93.7109 185.166 100.169 163.984 112.115 144.812Z" stroke="url(#paint7_radial_359_78491)" stroke-width="0.988446"/>
</g>
<path fill-rule="evenodd" clip-rule="evenodd" d="M248.848 182.786L248.254 182.597L244.808 184.748L242.654 185.178L242.941 187.76H245.239L246.387 189.051L247.68 191.202H249.418C249.416 192.1 249.393 192.994 249.351 193.882L248.254 192.923L246.1 192.493L245.669 193.497L249.268 195.294C247.086 225.983 221.499 250.202 190.254 250.202C164.475 250.202 142.547 233.714 134.439 210.708H136.103L137.108 211.712L136.534 213.433H140.985L142.134 214.724H145.437L147.304 213.72L150.606 214.581L155.776 216.589L162.956 217.449L163.674 216.876H166.402L170.423 218.453L169.274 217.162L168.987 216.445L170.136 216.015L170.854 215.154L169.562 214.007H167.838L167.12 214.868H164.966L162.956 213.29L163.1 211.282L160.515 210.421H156.925L155.202 208.27L153.909 209.131L153.622 210.708L145.58 210.421V209.417L144.719 208.127L141.99 208.844L140.124 206.979L139.118 206.692L138.4 208.127L137.539 208.413V207.123H135.959L134.811 206.692L133.715 208.516C133.443 207.635 133.191 206.745 132.959 205.847L133.087 205.975L134.38 203.537V200.668L133.087 199.378V197.513L134.811 195.505L134.093 193.927L132.513 191.919L131.093 191.636C131.091 191.437 131.09 191.237 131.09 191.038C131.09 158.362 157.579 131.874 190.254 131.874C220.13 131.874 244.833 154.017 248.848 182.786ZM172.577 216.015L171.285 216.445L173.726 218.453L175.162 217.736V216.445L172.577 216.015ZM180.475 218.453L181.911 217.162L183.922 217.736L185.501 219.601L183.778 220.318L181.48 220.461L180.475 220.031V218.453ZM190.527 217.162L185.645 215.441L184.927 216.589L187.081 218.597L187.512 219.314H188.804V218.597H190.527V217.162ZM191.245 221.465H194.117L197.707 223.903L197.42 225.194L195.984 225.481L193.112 223.186L189.953 222.613L191.245 221.465ZM200.292 218.166L198.138 216.589H195.984L194.548 217.88V219.027H197.707L198.138 219.744H200.005L200.292 218.166ZM200.866 218.453L202.015 217.449L203.451 217.88L203.02 219.027L201.441 219.744L200.866 218.453ZM207.616 215.441H206.61L204.887 217.449L204.456 218.597L207.041 217.593L208.046 216.302L207.616 215.441ZM214.078 221.178L216.232 219.744L217.38 218.166L221.545 217.88L222.55 217.162H225.135L225.565 218.31L223.268 219.314L217.955 220.748L215.944 222.182L212.067 225.051H210.2L210.631 222.182L214.078 221.178ZM132.513 187.903L131.364 189.625L132.369 190.198H132.944L134.38 191.059V192.637L135.816 193.927L137.252 194.214L137.539 192.35L135.529 191.059L135.385 190.055L134.954 189.768V188.334L134.38 187.186L133.518 188.334L132.513 187.903ZM150.463 173.417V174.565L154.196 177.577L156.207 176.573L157.786 177.433L159.797 177.29L162.238 174.278L163.387 174.135L167.264 175.856L171.141 174.852L173.726 171.696L173.439 168.541L175.018 168.254L176.024 167.393L175.306 164.812L177.316 162.804L183.491 163.091L185.07 165.529H182.629V167.393L186.076 171.266L185.07 172.413V173.274L189.522 177.29H185.501L183.922 179.728V185.322H181.48L178.178 188.907L179.039 189.768L179.183 190.342L178.465 190.772L177.89 191.346L179.183 193.067L177.172 194.788L176.742 196.652L171.572 199.378V197.083L170.28 195.075H168.987L167.838 196.509L164.392 193.21L163.674 194.071V195.362L162.669 195.935L161.233 195.218L160.515 196.509L159.222 196.652L159.51 193.497L158.792 192.78L157.356 194.358H155.058V193.354H154.196L153.335 194.358L152.473 193.927L151.899 187.33L148.452 184.891L149.027 184.605V183.601L147.878 182.884L147.734 182.166L148.74 181.593L148.452 180.732L147.016 179.441V176.573L147.878 175.425L148.596 173.561L149.601 172.413L150.463 173.417ZM193.256 180.589V184.748L192.107 185.035L191.532 186.899V189.768L188.804 193.067L189.522 194.358V196.652H192.107L192.968 197.37V202.963L192.107 203.393V205.401H194.548L195.84 204.254V202.39L196.846 201.386L195.84 200.238L195.553 197.943H196.415V195.505L195.553 194.644L197.42 192.78H199.43V194.644L198.282 195.505V197.083L201.154 198.947V201.386L202.446 202.39L203.882 201.386V200.238H206.898L204.313 197.37V195.792L205.174 194.644L200.292 190.055V189.051L201.872 189.768L205.749 187.617L206.467 186.039H208.908L208.477 184.174L206.898 183.888L205.749 185.035H204.313L203.451 186.039L201.584 184.748L199.43 187.33H197.42L196.846 185.609L194.548 184.748V182.023L196.415 179.728H207.616L208.908 180.876L213.216 180.589L216.662 175.856L216.088 173.274L214.796 174.278L213.934 175.425V177.29L212.354 177.72H208.477L206.898 178.294L204.744 177.29H201.584L200.005 175.425H197.851L196.846 177.29L195.553 177.003L193.256 180.589ZM227.719 176.573L228.725 177.72L230.735 174.995L232.315 175.856V176.86L230.448 179.011L232.602 180.158V180.876L231.597 181.449L229.299 180.158L228.294 181.88L231.022 184.748L230.448 185.609L227.001 181.88L226.14 177.864L226.427 174.995L227.719 173.274L228.725 172.7V174.995L227.719 176.573ZM223.986 194.644H221.688L220.683 195.505L221.688 197.226H224.273L225.996 196.796L223.986 194.644ZM233.033 193.067L233.894 194.071L235.761 194.214L237.915 193.067L241.074 194.931L241.649 197.513L240.356 197.8L237.341 195.218L236.048 196.222L234.756 195.935L233.033 194.931L230.448 195.935L229.443 194.214V193.067H233.033Z" fill="url(#paint8_radial_359_78491)"/>
<path d="M88.9879 156.535L91.4282 157.252L93.4378 158.543H99.0361L102.051 161.123V163.704L109.084 167.432V169.439L113.391 172.593L113.965 170.729L115.544 173.884H117.266L118.271 174.744V175.747L120.425 177.898L124.013 178.328L126.023 180.479L124.013 183.776L126.31 185.21L128.176 185.64V188.938L129.755 189.655L128.894 191.088L129.755 191.805L130.76 191.088L132.913 191.518L134.492 193.526L135.21 195.103L133.487 197.11V198.974L134.779 200.264V203.132L133.487 205.569L132.195 204.279L130.76 205.569L129.755 204.279L129.181 206.716L127.171 203.848L119.276 198.257L118.558 195.82L113.104 190.802V187.934L107.936 179.762H106.213L103.63 173.453L102.051 171.59L99.0361 170.873L98.749 167.575L96.0217 164.708H94.012L91.4282 161.984L88.9879 159.116V156.535Z" stroke="#5DE7C1" stroke-width="0.988446"/>
<path d="M133.487 209.153L131.621 209.583L133.2 210.3H136.502L137.507 211.304L136.932 213.024H141.382L142.531 214.315H145.832L147.698 213.311L151 214.171L156.168 216.179L163.345 217.039L164.063 216.465H166.79L170.809 218.042L169.661 216.752L169.374 216.035L170.522 215.605L171.24 214.745L169.948 213.598H168.225L167.508 214.458H165.354L163.345 212.881L163.488 210.874L160.905 210.013H157.316L155.593 207.863L154.301 208.723L154.014 210.3L145.976 210.013V209.01L145.114 207.72L142.387 208.436L140.521 206.573L139.516 206.286L138.798 207.72L137.937 208.006V206.716H136.358L135.21 206.286L133.487 209.153Z" stroke="#5DE7C1" stroke-width="0.988446"/>
<path d="M171.671 216.035L172.962 215.605L175.546 216.035V217.326L174.111 218.042L171.671 216.035Z" stroke="#5DE7C1" stroke-width="0.988446"/>
<path d="M180.857 218.042L182.293 216.752L184.303 217.326L185.882 219.189L184.159 219.906L181.862 220.05L180.857 219.619V218.042Z" stroke="#5DE7C1" stroke-width="0.988446"/>
<path d="M185.307 216.179L186.025 215.032L190.906 216.752V218.186H189.183V218.903H187.891L187.461 218.186L185.307 216.179Z" stroke="#5DE7C1" stroke-width="0.988446"/>
<path d="M191.623 221.053H194.494L198.083 223.491L197.796 224.781L196.36 225.068L193.49 222.774L190.332 222.2L191.623 221.053Z" stroke="#5DE7C1" stroke-width="0.988446"/>
<path d="M198.514 216.179L200.667 217.756L200.38 219.333H198.514L198.083 218.616H194.925V217.469L196.36 216.179H198.514Z" stroke="#5DE7C1" stroke-width="0.988446"/>
<path d="M201.241 218.042L202.389 217.039L203.825 217.469L203.394 218.616L201.815 219.333L201.241 218.042Z" stroke="#5DE7C1" stroke-width="0.988446"/>
<path d="M205.26 217.039L206.983 215.032H207.988L208.418 215.892L207.414 217.182L204.83 218.186L205.26 217.039Z" stroke="#5DE7C1" stroke-width="0.988446"/>
<path d="M214.447 220.766L216.6 219.333L217.749 217.756L221.912 217.469L222.917 216.752H225.5L225.931 217.899L223.634 218.903L218.323 220.336L216.313 221.77L212.438 224.638H210.572L211.002 221.77L214.447 220.766Z" stroke="#5DE7C1" stroke-width="0.988446"/>
<path d="M131.765 189.224L132.913 187.504L133.918 187.934L134.779 186.787L135.353 187.934V189.368L135.784 189.655L135.928 190.658L137.937 191.949L137.65 193.812L136.215 193.526L134.779 192.235V190.658L133.344 189.798H132.769L131.765 189.224Z" stroke="#5DE7C1" stroke-width="0.988446"/>
<path d="M150.856 173.023V174.17L154.589 177.181L156.598 176.177L158.177 177.038L160.187 176.894L162.627 173.884L163.775 173.74L167.651 175.461L171.527 174.457L174.111 171.303L173.824 168.149L175.403 167.862L176.408 167.002L175.69 164.421L177.699 162.414L183.872 162.7L185.451 165.138H183.011V167.002L186.456 170.873L185.451 172.02V172.88L189.901 176.894H185.882L184.303 179.332V184.923H181.862L178.561 188.508L179.422 189.368L179.566 189.941L178.848 190.371L178.274 190.945L179.566 192.665L177.556 194.386L177.125 196.25L171.958 198.974V196.68L170.666 194.673H169.374L168.225 196.106L164.78 192.809L164.063 193.669V194.959L163.058 195.533L161.622 194.816L160.905 196.106L159.613 196.25L159.9 193.095L159.182 192.379L157.747 193.956H155.45V192.952H154.589L153.727 193.956L152.866 193.526L152.292 186.93L148.847 184.493L149.421 184.206V183.203L148.272 182.486L148.129 181.769L149.134 181.196L148.847 180.335L147.411 179.045V176.177L148.272 175.031L148.99 173.167L149.995 172.02L150.856 173.023Z" stroke="#5DE7C1" stroke-width="0.988446"/>
<path d="M193.633 184.35V180.192L195.93 176.608L197.222 176.894L198.227 175.031H200.38L201.959 176.894H205.117L207.27 177.898L208.849 177.324H212.725L214.304 176.894V175.031L215.165 173.884L216.457 172.88L217.031 175.461L213.586 180.192L209.28 180.479L207.988 179.332H196.791L194.925 181.626V184.35L197.222 185.21L197.796 186.93H199.806L201.959 184.35L203.825 185.64L204.686 184.636H206.122L207.27 183.49L208.849 183.776L209.28 185.64H206.839L206.122 187.217L202.246 189.368L200.667 188.651V189.655L205.547 194.242L204.686 195.389V196.967L207.27 199.834H204.256V200.981L202.82 201.985L201.528 200.981V198.544L198.657 196.68V195.103L199.806 194.242V192.379H197.796L195.93 194.242L196.791 195.103V197.54H195.93L196.217 199.834L197.222 200.981L196.217 201.985V203.848L194.925 204.995H192.485V202.988L193.346 202.558V196.967L192.485 196.25H189.901V193.956L189.183 192.665L191.911 189.368V186.5L192.485 184.636L193.633 184.35Z" stroke="#5DE7C1" stroke-width="0.988446"/>
<path d="M228.084 176.177L229.089 177.324L231.099 174.6L232.678 175.461V176.464L230.812 178.615L232.965 179.762V180.479L231.96 181.052L229.663 179.762L228.658 181.482L231.386 184.35L230.812 185.21L227.366 181.482L226.505 177.468L226.792 174.6L228.084 172.88L229.089 172.306V174.6L228.084 176.177Z" stroke="#5DE7C1" stroke-width="0.988446"/>
<path d="M222.055 194.242H224.352L226.362 196.393L224.639 196.823H222.055L221.05 195.103L222.055 194.242Z" stroke="#5DE7C1" stroke-width="0.988446"/>
<path d="M233.395 192.665L234.257 193.669L236.123 193.812L238.276 192.665L241.434 194.529L242.008 197.11L240.716 197.397L237.702 194.816L236.41 195.82L235.118 195.533L233.395 194.529L230.812 195.533L229.807 193.812V192.665H233.395Z" stroke="#5DE7C1" stroke-width="0.988446"/>
<path d="M243.3 187.361L243.013 184.78L245.166 184.35L248.611 182.199L255.789 184.493L255.932 187.361L254.784 188.077L255.214 189.941L253.492 190.802H248.037L246.745 188.651L245.597 187.361H243.3Z" stroke="#5DE7C1" stroke-width="0.988446"/>
<path d="M255.214 191.088H256.219L257.081 193.095L258.516 192.522V194.673L259.521 195.676H261.818L264.976 190.515H268.851L268.995 188.651L271.722 187.074L285.216 192.665V208.006L284.067 210.157L285.359 211.447V220.336L280.909 216.322H276.746L277.321 213.024L275.311 211.017L277.033 210.157L273.732 208.15L272.727 204.995L270.574 202.415L258.947 199.834V197.683L256.219 197.97L254.784 197.11V194.242L253.492 194.959V197.11L251.769 198.974H250.621L249.76 197.397L250.334 196.823L250.908 196.25L249.76 194.959L246.027 193.095L246.458 192.092L248.611 192.522L249.76 193.526L250.621 192.092L252.056 191.805L253.923 192.522L255.214 191.088Z" stroke="#5DE7C1" stroke-width="0.988446"/>
<path d="M275.598 213.024L273.732 212.594L271.435 215.748V217.039H274.306L275.885 215.175L275.598 213.024Z" stroke="#5DE7C1" stroke-width="0.988446"/>
<g filter="url(#filter4_f_359_78491)">
<path d="M88.9879 156.535L91.4282 157.256L93.4378 158.554H99.0361L102.051 161.15V163.746L109.084 167.495V169.514L113.391 172.687L113.965 170.812L115.544 173.985H117.266L118.271 174.85V175.86L120.425 178.023L124.013 178.456L126.023 180.619L124.013 183.936L126.31 185.378L128.176 185.81V189.127L129.755 189.848L128.894 191.29L129.755 192.011L130.76 191.29L132.913 191.723L134.492 193.742L135.21 195.328L133.487 197.347V199.222L134.779 200.52V203.404L133.487 205.856L132.195 204.558L130.76 205.856L129.755 204.558L129.181 207.009L127.171 204.125L119.276 198.501L118.558 196.049L113.104 191.002V188.118L107.936 179.898H106.213L103.63 173.552L102.051 171.678L99.0361 170.957L98.749 167.64L96.0217 164.755H94.012L91.4282 162.015L88.9879 159.131V156.535Z" stroke="#A0FFE5" stroke-width="0.988446"/>
<path d="M133.487 209.461L131.621 209.894L133.2 210.615H136.502L137.507 211.624L136.932 213.355H141.382L142.531 214.653H145.832L147.698 213.643L151 214.508L156.168 216.527L163.345 217.393L164.063 216.816H166.79L170.809 218.402L169.661 217.104L169.374 216.383L170.522 215.95L171.24 215.085L169.948 213.932H168.225L167.508 214.797H165.354L163.345 213.21L163.488 211.192L160.905 210.326H157.316L155.593 208.163L154.301 209.028L154.014 210.615L145.976 210.326V209.317L145.114 208.019L142.387 208.74L140.521 206.865L139.516 206.577L138.798 208.019L137.937 208.307V207.009H136.358L135.21 206.577L133.487 209.461Z" stroke="#A0FFE5" stroke-width="0.988446"/>
<path d="M171.671 216.383L172.962 215.95L175.546 216.383V217.681L174.111 218.402L171.671 216.383Z" stroke="#A0FFE5" stroke-width="0.988446"/>
<path d="M180.857 218.402L182.293 217.104L184.303 217.681L185.882 219.556L184.159 220.277L181.862 220.421L180.857 219.988V218.402Z" stroke="#A0FFE5" stroke-width="0.988446"/>
<path d="M185.307 216.527L186.025 215.374L190.906 217.104V218.546H189.183V219.267H187.891L187.461 218.546L185.307 216.527Z" stroke="#A0FFE5" stroke-width="0.988446"/>
<path d="M191.623 221.431H194.494L198.083 223.882L197.796 225.18L196.36 225.468L193.49 223.161L190.332 222.584L191.623 221.431Z" stroke="#A0FFE5" stroke-width="0.988446"/>
<path d="M198.514 216.527L200.667 218.114L200.38 219.7H198.514L198.083 218.979H194.925V217.825L196.36 216.527H198.514Z" stroke="#A0FFE5" stroke-width="0.988446"/>
<path d="M201.241 218.402L202.389 217.393L203.825 217.825L203.394 218.979L201.815 219.7L201.241 218.402Z" stroke="#A0FFE5" stroke-width="0.988446"/>
<path d="M205.26 217.393L206.983 215.374H207.988L208.418 216.239L207.414 217.537L204.83 218.546L205.26 217.393Z" stroke="#A0FFE5" stroke-width="0.988446"/>
<path d="M214.447 221.142L216.6 219.7L217.749 218.114L221.912 217.825L222.917 217.104H225.5L225.931 218.258L223.634 219.267L218.323 220.709L216.313 222.152L212.438 225.036H210.572L211.002 222.152L214.447 221.142Z" stroke="#A0FFE5" stroke-width="0.988446"/>
<path d="M131.765 189.416L132.913 187.685L133.918 188.118L134.779 186.964L135.353 188.118V189.56L135.784 189.848L135.928 190.858L137.937 192.156L137.65 194.03L136.215 193.742L134.779 192.444V190.858L133.344 189.992H132.769L131.765 189.416Z" stroke="#A0FFE5" stroke-width="0.988446"/>
<path d="M150.856 173.12V174.273L154.589 177.302L156.598 176.292L158.177 177.158L160.187 177.013L162.627 173.985L163.775 173.841L167.651 175.571L171.527 174.562L174.111 171.389L173.824 168.217L175.403 167.928L176.408 167.063L175.69 164.467L177.699 162.448L183.872 162.736L185.451 165.188H183.011V167.063L186.456 170.957L185.451 172.11V172.975L189.901 177.013H185.882L184.303 179.465V185.089H181.862L178.561 188.695L179.422 189.56L179.566 190.137L178.848 190.569L178.274 191.146L179.566 192.877L177.556 194.607L177.125 196.482L171.958 199.222V196.915L170.666 194.896H169.374L168.225 196.338L164.78 193.021L164.063 193.886V195.184L163.058 195.761L161.622 195.04L160.905 196.338L159.613 196.482L159.9 193.309L159.182 192.588L157.747 194.175H155.45V193.165H154.589L153.727 194.175L152.866 193.742L152.292 187.108L148.847 184.657L149.421 184.368V183.359L148.272 182.638L148.129 181.917L149.134 181.34L148.847 180.474L147.411 179.177V176.292L148.272 175.139L148.99 173.264L149.995 172.11L150.856 173.12Z" stroke="#A0FFE5" stroke-width="0.988446"/>
<path d="M193.633 184.512V180.33L195.93 176.725L197.222 177.013L198.227 175.139H200.38L201.959 177.013H205.117L207.27 178.023L208.849 177.446H212.725L214.304 177.013V175.139L215.165 173.985L216.457 172.975L217.031 175.571L213.586 180.33L209.28 180.619L207.988 179.465H196.791L194.925 181.772V184.512L197.222 185.378L197.796 187.108H199.806L201.959 184.512L203.825 185.81L204.686 184.801H206.122L207.27 183.647L208.849 183.936L209.28 185.81H206.839L206.122 187.397L202.246 189.56L200.667 188.839V189.848L205.547 194.463L204.686 195.617V197.203L207.27 200.087H204.256V201.241L202.82 202.25L201.528 201.241V198.789L198.657 196.915V195.328L199.806 194.463V192.588H197.796L195.93 194.463L196.791 195.328V197.78H195.93L196.217 200.087L197.222 201.241L196.217 202.25V204.125L194.925 205.279H192.485V203.26L193.346 202.827V197.203L192.485 196.482H189.901V194.175L189.183 192.877L191.911 189.56V186.676L192.485 184.801L193.633 184.512Z" stroke="#A0FFE5" stroke-width="0.988446"/>
<path d="M228.084 176.292L229.089 177.446L231.099 174.706L232.678 175.571V176.581L230.812 178.744L232.965 179.898V180.619L231.96 181.196L229.663 179.898L228.658 181.628L231.386 184.512L230.812 185.378L227.366 181.628L226.505 177.59L226.792 174.706L228.084 172.975L229.089 172.399V174.706L228.084 176.292Z" stroke="#A0FFE5" stroke-width="0.988446"/>
<path d="M222.055 194.463H224.352L226.362 196.626L224.639 197.059H222.055L221.05 195.328L222.055 194.463Z" stroke="#A0FFE5" stroke-width="0.988446"/>
<path d="M233.395 192.877L234.257 193.886L236.123 194.03L238.276 192.877L241.434 194.751L242.008 197.347L240.716 197.636L237.702 195.04L236.41 196.049L235.118 195.761L233.395 194.751L230.812 195.761L229.807 194.03V192.877H233.395Z" stroke="#A0FFE5" stroke-width="0.988446"/>
<path d="M243.3 187.541L243.013 184.945L245.166 184.512L248.611 182.349L255.789 184.657L255.932 187.541L254.784 188.262L255.214 190.137L253.492 191.002H248.037L246.745 188.839L245.597 187.541H243.3Z" stroke="#A0FFE5" stroke-width="0.988446"/>
<path d="M255.214 191.29H256.219L257.081 193.309L258.516 192.732V194.896L259.521 195.905H261.818L264.976 190.713H268.851L268.995 188.839L271.722 187.252L285.216 192.877V208.307L284.067 210.47L285.359 211.768V220.709L280.909 216.672H276.746L277.321 213.355L275.311 211.336L277.033 210.47L273.732 208.451L272.727 205.279L270.574 202.683L258.947 200.087V197.924L256.219 198.212L254.784 197.347V194.463L253.492 195.184V197.347L251.769 199.222H250.621L249.76 197.636L250.334 197.059L250.908 196.482L249.76 195.184L246.027 193.309L246.458 192.3L248.611 192.732L249.76 193.742L250.621 192.3L252.056 192.011L253.923 192.732L255.214 191.29Z" stroke="#A0FFE5" stroke-width="0.988446"/>
<path d="M275.598 213.355L273.732 212.922L271.435 216.095V217.393H274.306L275.885 215.518L275.598 213.355Z" stroke="#A0FFE5" stroke-width="0.988446"/>
</g>
<path d="M263.772 106.942C261.629 108.648 265.978 113.792 267.952 112.221C269.131 111.282 268.238 109.714 266.936 107.999C264.166 104.231 263.421 100.894 267.039 97.9348C274.188 92.0077 285.05 104.739 277.702 110.433C276.444 108.958 275.525 107.881 274.307 106.454C276.546 104.672 272.599 100.425 270.482 101.875C269.126 102.797 269.9 104.225 270.989 105.833C273.404 109.374 275.614 112.959 271.402 116.313C264.326 121.946 252.824 108.701 260.317 102.893C261.515 104.298 262.554 105.515 263.772 106.942Z" fill="#C7EF86"/>
<path d="M281.63 130.939L283.063 133.272L278.867 135.664L273.15 126.359L277.346 123.967L278.78 126.3L289.123 120.404L287.802 118.254L291.972 115.878L297.463 124.816L293.294 127.193L291.973 125.043L281.63 130.939Z" fill="#C7EF86"/>
<path d="M298.83 148.35L310.23 154.357L310.763 156.252L289.804 161.461C289.296 159.654 288.788 157.848 288.28 156.041L297.595 153.726L291.696 150.471L291.53 149.879L294.954 144.338L285.639 146.653C285.131 144.847 284.623 143.04 284.115 141.234L305.074 136.025L305.624 137.98L298.83 148.35Z" fill="#C7EF86"/>
<path d="M293.825 183.591L296.539 182.419L296.593 173.929L293.896 172.578L293.931 167.194L294.73 167.221L315.668 177.606L315.653 179.975L294.59 189.001L293.79 188.975L293.825 183.591ZM301.255 180.791L306.928 178.486L301.286 175.869L301.255 180.791Z" fill="#C7EF86"/>
<path d="M294.529 201.259C294.903 199.389 295.266 197.579 295.628 195.769L316.646 200.458C316.284 202.268 315.921 204.078 315.547 205.948L307.59 204.173L307.512 204.565C306.431 209.965 310.508 210.591 314.442 211.468C314.073 213.308 313.705 215.149 313.331 217.019C309.037 216.061 305.049 215.297 303.216 210.508L292.821 214.176L291.98 213.989L293.182 207.986L302.249 205.156C302.274 204.405 302.407 203.741 302.546 203.047L294.529 201.259Z" fill="#C7EF86"/>
<g filter="url(#filter5_f_359_78491)">
<path d="M263.772 106.942C261.629 108.648 265.978 113.792 267.952 112.221C269.131 111.282 268.238 109.714 266.936 107.999C264.166 104.231 263.421 100.894 267.039 97.9348C274.188 92.0077 285.05 104.739 277.702 110.433C276.444 108.958 275.525 107.881 274.307 106.454C276.546 104.672 272.599 100.425 270.482 101.875C269.126 102.797 269.9 104.225 270.989 105.833C273.404 109.374 275.614 112.959 271.402 116.313C264.326 121.946 252.824 108.701 260.317 102.893C261.515 104.298 262.554 105.515 263.772 106.942Z" fill="#C7EF86"/>
<path d="M281.63 130.939L283.063 133.272L278.867 135.664L273.15 126.359L277.346 123.967L278.78 126.3L289.123 120.404L287.802 118.254L291.972 115.878L297.463 124.816L293.294 127.193L291.973 125.043L281.63 130.939Z" fill="#C7EF86"/>
<path d="M298.83 148.35L310.23 154.357L310.763 156.252L289.804 161.461C289.296 159.654 288.788 157.848 288.28 156.041L297.595 153.726L291.696 150.471L291.53 149.879L294.954 144.338L285.639 146.653C285.131 144.847 284.623 143.04 284.115 141.234L305.074 136.025L305.624 137.98L298.83 148.35Z" fill="#C7EF86"/>
<path d="M293.825 183.591L296.539 182.419L296.593 173.929L293.896 172.578L293.931 167.194L294.73 167.221L315.668 177.606L315.653 179.975L294.59 189.001L293.79 188.975L293.825 183.591ZM301.255 180.791L306.928 178.486L301.286 175.869L301.255 180.791Z" fill="#C7EF86"/>
<path d="M294.529 201.259C294.903 199.389 295.266 197.579 295.628 195.769L316.646 200.458C316.284 202.268 315.921 204.078 315.547 205.948L307.59 204.173L307.512 204.565C306.431 209.965 310.508 210.591 314.442 211.468C314.073 213.308 313.705 215.149 313.331 217.019C309.037 216.061 305.049 215.297 303.216 210.508L292.821 214.176L291.98 213.989L293.182 207.986L302.249 205.156C302.274 204.405 302.407 203.741 302.546 203.047L294.529 201.259Z" fill="#C7EF86"/>
</g>
<path d="M78.0844 146.382C74.1183 144.695 73.4766 140.906 74.8149 137.988C75.8917 135.683 78.2106 133.784 81.3592 134.442L80.0359 137.328C78.8203 137.384 78.0754 137.97 77.5416 139.134C76.692 140.986 77.6964 142.601 79.4754 143.349C81.404 144.16 83.1789 143.576 83.9759 141.838C84.5172 140.658 84.5472 139.771 83.6738 138.778L82.5535 141.221L79.9765 140.138L82.4652 134.712C83.6591 135.135 84.7731 135.603 85.7232 136.472C87.7746 138.312 87.7057 140.884 86.7358 142.998C85.3975 145.916 82.0656 148.035 78.0844 146.382Z" fill="#B2FFF6"/>
<path d="M82.8728 151.433L74.8704 155.698L80.8189 157.46C80.4612 158.519 80.1035 159.579 79.7516 160.621L67.5951 157.021L67.9701 155.91L75.9956 151.633L70.0643 149.876C70.4163 148.834 70.7682 147.792 71.1201 146.749L83.2421 150.34L82.8728 151.433Z" fill="#B2FFF6"/>
<path d="M76.3331 162.405L76.7285 160.849L79.4988 161.434L77.922 167.639L75.1516 167.054L75.547 165.498L68.7182 164.056L68.354 165.489L65.6013 164.907L67.1159 158.947L69.8686 159.528L69.5044 160.962L76.3331 162.405Z" fill="#B2FFF6"/>
<path d="M66.6392 174.333L66.0845 177.385C65.1198 177.252 64.173 177.121 63.2261 176.99L64.903 167.763C65.8498 167.894 66.7967 168.025 67.7614 168.158L67.21 171.192L76.8571 172.526C76.6669 173.573 76.4766 174.62 76.2864 175.667L66.6392 174.333Z" fill="#B2FFF6"/>
<path d="M75.4105 180.88L68.6747 186.99L74.8742 187.225C74.7832 188.339 74.6922 189.454 74.6026 190.55L61.9332 190.069L62.0286 188.901L68.7839 182.774L62.6024 182.54C62.692 181.443 62.7815 180.347 62.8711 179.25L75.5045 179.73L75.4105 180.88Z" fill="#B2FFF6"/>
<path d="M71.8399 198.954C71.8156 198.017 71.2865 197.078 70.261 197.149L61.9126 197.724C61.8859 196.696 61.8588 195.651 61.8326 194.641L70.235 194.062C73.0058 193.871 74.6693 196.158 74.7367 198.755C74.8036 201.333 73.2655 203.877 70.4947 204.068L62.0923 204.647C62.0661 203.638 62.0385 202.574 62.0123 201.564L70.3607 200.989C71.3862 200.918 71.8643 199.892 71.8399 198.954Z" fill="#B2FFF6"/>
<path d="M68.3464 205.647C76.9603 204.127 78.6953 216.96 70.0814 218.479C61.4852 219.996 59.7502 207.163 68.3464 205.647ZM69.6368 215.191C74.148 214.395 73.2998 208.122 68.7886 208.918C64.3129 209.707 65.1611 215.98 69.6368 215.191Z" fill="#B2FFF6"/>
<path d="M72.9223 230.801C68.7876 231.952 65.9347 229.387 65.173 226.268C64.5524 223.728 65.2516 220.59 68.3814 219.199C68.6424 220.268 68.8735 221.214 69.1346 222.283C68.0094 223.069 67.6808 224.155 68.0018 225.468C68.4512 227.308 70.1175 228.129 72.1306 227.56C73.9182 227.055 75.1891 225.422 74.7528 223.56C74.4276 222.228 73.507 221.346 72.1241 221.381C71.8673 220.33 71.6319 219.367 71.3709 218.298C74.9184 217.782 76.944 220.15 77.5816 222.76C78.3608 225.874 77.0485 229.616 72.9223 230.801Z" fill="#B2FFF6"/>
<path d="M77.5976 237.125C79.0977 236.554 77.824 232.815 76.4419 233.341C75.616 233.656 75.7724 234.715 76.1175 235.934C76.8278 238.595 76.5406 240.633 73.9904 241.643C68.9356 243.683 65.7299 234.41 70.8437 232.541C71.2149 233.614 71.486 234.398 71.8454 235.438C70.2779 236.035 71.5206 239.188 72.9549 238.758C73.8718 238.486 73.7508 237.529 73.4975 236.41C72.9313 233.945 72.4838 231.492 75.4334 230.369C80.3888 228.483 83.8319 238.166 78.617 240.074C78.2635 239.052 77.9571 238.165 77.5976 237.125Z" fill="#B2FFF6"/>
<path d="M78.7962 254.763L80.1756 257.541C79.3132 257.994 78.4668 258.438 77.6204 258.882L73.4501 250.482C74.2966 250.038 75.143 249.594 76.0053 249.141L77.3767 251.903L86.0005 247.378C86.4736 248.331 86.9468 249.284 87.42 250.238L78.7962 254.763Z" fill="#B2FFF6"/>
<path d="M89.7331 254.705L87.9245 263.488L93.1196 260.097C93.7171 261.042 94.3145 261.987 94.9023 262.917L84.2855 269.847L83.6592 268.856L85.4733 260.049L80.2932 263.43C79.7054 262.5 79.1176 261.57 78.5298 260.64L89.1164 253.73L89.7331 254.705Z" fill="#B2FFF6"/>
<path d="M86.8038 273.281C87.5371 272.697 88.2985 272.09 89.06 271.482C90.2201 272.956 90.8002 273.693 91.9492 275.153L93.3452 274.039L90.6902 270.667C91.4376 270.071 92.1849 269.475 92.9323 268.879L95.5872 272.252C96.1654 271.791 96.7294 271.341 97.3216 270.869C96.1726 269.409 95.5033 268.559 94.332 267.071C95.0652 266.486 95.8267 265.879 96.574 265.283C98.4035 267.607 99.7422 269.308 101.549 271.603C98.2497 274.234 94.9501 276.866 91.6788 279.474C89.8716 277.178 88.6333 275.605 86.8038 273.281Z" fill="#B2FFF6"/>
<path d="M97.5678 285.971C102.3 281.473 100.718 282.977 104.614 279.274L101.453 275.959C102.237 275.213 102.773 274.704 103.558 273.959C105.35 275.838 107.192 277.77 108.959 279.624L99.8079 288.32C99.0612 287.537 98.3269 286.767 97.5678 285.971Z" fill="#B2FFF6"/>
<path d="M113.206 282.745L112.727 284.422L116.515 287.651L118.12 286.934L120.522 288.981L120.214 289.335L107.805 294.942L106.748 294.041L110.497 281.051L110.805 280.698L113.206 282.745ZM111.712 287.182L110.645 290.633L113.908 289.054L111.712 287.182Z" fill="#B2FFF6"/>
<path d="M121.077 301.128L123.632 302.887C123.065 303.679 122.509 304.456 121.953 305.234L114.228 299.916C114.784 299.139 115.34 298.362 115.907 297.57L118.447 299.318L124.115 291.399C124.992 292.002 125.868 292.605 126.744 293.209L121.077 301.128Z" fill="#B2FFF6"/>
<path d="M219.597 308.599L216.453 312.493L214.892 306.997L219.597 308.599Z" fill="#B6EF7E"/>
<path d="M210.113 309.425L207.173 313.476L205.332 308.066L210.113 309.425Z" fill="#B6EF7E"/>
<path d="M200.782 310.805L197.235 314.336L196.277 308.703L200.782 310.805Z" fill="#B6EF7E"/>
<path d="M191.325 312.014L188.865 315.529L188.403 308.916L191.325 312.014Z" fill="#B6EF7E"/>
<path d="M189.136 311.399C189.953 320.117 184.024 327.802 175.893 328.563C167.762 329.325 160.509 322.876 159.692 314.158C158.875 305.44 164.804 297.755 172.935 296.993C181.066 296.231 188.319 302.681 189.136 311.399ZM160.164 314.114C160.955 322.552 167.976 328.795 175.846 328.058C183.716 327.32 189.455 319.882 188.664 311.443C187.873 303.005 180.852 296.762 172.982 297.499C165.112 298.237 159.373 305.675 160.164 314.114Z" fill="#B6EF7E"/>
<path d="M169.986 312.236C170.552 311.486 170.994 310.014 169.583 310.005C168.942 310.001 168.475 310.303 168.47 311.089C167.524 311.083 166.963 311.079 166.033 311.074C166.016 308.653 167.658 307.477 169.647 307.441C172.869 307.38 174.261 310.579 172.578 313.15L170.298 316.278L173.633 316.298C173.627 317.276 173.623 317.885 173.617 318.863L165.73 318.815L165.733 318.382L169.986 312.236ZM179.599 307.469C181.924 307.483 183.807 308.905 183.792 311.358C183.784 312.608 183.776 314.035 183.768 315.286C183.753 317.738 181.853 319.137 179.529 319.123C177.252 319.11 175.353 317.687 175.368 315.235C175.376 313.984 175.384 312.557 175.392 311.307C175.407 308.854 177.323 307.455 179.599 307.469ZM179.544 316.574C180.394 316.58 181.054 316.119 181.059 315.205C181.067 314.003 181.075 312.608 181.083 311.39C181.088 310.508 180.433 310.039 179.584 310.034C178.766 310.029 178.122 310.49 178.117 311.372C178.109 312.59 178.101 313.985 178.094 315.187C178.088 316.101 178.727 316.57 179.544 316.574Z" fill="white"/>
<ellipse cx="174.417" cy="312.808" rx="13.918" ry="15.1189" transform="rotate(-5.35282 174.417 312.808)" fill="#29443D" fill-opacity="0.34"/>
<g filter="url(#filter6_d_359_78491)">
<path d="M123.599 96.3721L124.947 93.0026L125.693 95.2032L126.941 97.3196L123.599 96.3721Z" fill="#B2FFF6"/>
<path d="M129.309 78.135C135.33 72.9407 144.318 73.4907 149.385 79.3634C154.451 85.236 153.677 94.2076 147.656 99.4019C141.635 104.596 132.647 104.046 127.581 98.1736C122.514 92.3009 123.288 83.3293 129.309 78.135ZM147.362 99.0611C153.19 94.0333 153.939 85.3493 149.035 79.6648C144.131 73.9803 135.431 73.448 129.603 78.4758C123.775 83.5037 123.026 92.1877 127.93 97.8721C132.834 103.557 141.534 104.089 147.362 99.0611Z" fill="#B2FFF6"/>
<path d="M133.63 90.9351C133.747 90.0029 133.396 88.5065 132.169 89.2025C131.611 89.5189 131.357 90.0132 131.744 90.6964C130.922 91.1631 130.434 91.4399 129.625 91.8987C128.403 89.8089 129.24 87.9703 130.945 86.9477C133.708 85.2882 136.509 87.367 136.332 90.4346L135.916 94.2829L138.817 92.6377C139.299 93.4883 139.6 94.0182 140.082 94.8687L133.222 98.7602L133.008 98.3837L133.63 90.9351ZM141.27 86.6019C141.386 85.6697 141.035 84.1733 139.808 84.8693C139.25 85.1857 138.996 85.68 139.384 86.3632C138.561 86.8299 138.073 87.1067 137.264 87.5655C136.042 85.4757 136.879 83.6371 138.584 82.6145C141.347 80.955 144.148 83.0339 143.972 86.1014L143.556 89.9497L146.456 88.3045C146.939 89.1551 147.239 89.685 147.722 90.5356L140.861 94.427L140.648 94.0505L141.27 86.6019Z" fill="white"/>
<ellipse cx="138.503" cy="88.751" rx="13.2189" ry="13.7304" transform="rotate(-130.784 138.503 88.751)" fill="#29443D" fill-opacity="0.34"/>
</g>
<defs>
<filter id="filter0_d_359_78491" x="147.818" y="55.6982" width="178.908" height="265.369" filterUnits="userSpaceOnUse" color-interpolation-filters="sRGB">
<feFlood flood-opacity="0" result="BackgroundImageFix"/>
<feColorMatrix in="SourceAlpha" type="matrix" values="0 0 0 0 0 0 0 0 0 0 0 0 0 0 0 0 0 0 127 0" result="hardAlpha"/>
<feOffset dy="1.60311"/>
<feGaussianBlur stdDeviation="0.801553"/>
<feComposite in2="hardAlpha" operator="out"/>
<feColorMatrix type="matrix" values="0 0 0 0 0 0 0 0 0 0 0 0 0 0 0 0 0 0 0.25 0"/>
<feBlend mode="normal" in2="BackgroundImageFix" result="effect1_dropShadow_359_78491"/>
<feBlend mode="normal" in="SourceGraphic" in2="effect1_dropShadow_359_78491" result="shape"/>
</filter>
<filter id="filter1_f_359_78491" x="147.017" y="53.2936" width="180.511" height="266.972" filterUnits="userSpaceOnUse" color-interpolation-filters="sRGB">
<feFlood flood-opacity="0" result="BackgroundImageFix"/>
<feBlend mode="normal" in="SourceGraphic" in2="BackgroundImageFix" result="shape"/>
<feGaussianBlur stdDeviation="1.20233" result="effect1_foregroundBlur_359_78491"/>
</filter>
<filter id="filter2_d_359_78491" x="93.6722" y="102.999" width="131.471" height="194.14" filterUnits="userSpaceOnUse" color-interpolation-filters="sRGB">
<feFlood flood-opacity="0" result="BackgroundImageFix"/>
<feColorMatrix in="SourceAlpha" type="matrix" values="0 0 0 0 0 0 0 0 0 0 0 0 0 0 0 0 0 0 127 0" result="hardAlpha"/>
<feOffset dy="1.60311"/>
<feGaussianBlur stdDeviation="0.801553"/>
<feComposite in2="hardAlpha" operator="out"/>
<feColorMatrix type="matrix" values="0 0 0 0 0 0 0 0 0 0 0 0 0 0 0 0 0 0 0.25 0"/>
<feBlend mode="normal" in2="BackgroundImageFix" result="effect1_dropShadow_359_78491"/>
<feBlend mode="normal" in="SourceGraphic" in2="effect1_dropShadow_359_78491" result="shape"/>
</filter>
<filter id="filter3_f_359_78491" x="93.0358" y="102.333" width="133.397" height="194.554" filterUnits="userSpaceOnUse" color-interpolation-filters="sRGB">
<feFlood flood-opacity="0" result="BackgroundImageFix"/>
<feBlend mode="normal" in="SourceGraphic" in2="BackgroundImageFix" result="shape"/>
<feGaussianBlur stdDeviation="1.20233" result="effect1_foregroundBlur_359_78491"/>
</filter>
<filter id="filter4_f_359_78491" x="85.6882" y="153.069" width="202.971" height="75.7354" filterUnits="userSpaceOnUse" color-interpolation-filters="sRGB">
<feFlood flood-opacity="0" result="BackgroundImageFix"/>
<feBlend mode="normal" in="SourceGraphic" in2="BackgroundImageFix" result="shape"/>
<feGaussianBlur stdDeviation="1.40272" result="effect1_foregroundBlur_359_78491"/>
</filter>
<filter id="filter5_f_359_78491" x="248.496" y="87.4921" width="72.4786" height="135.514" filterUnits="userSpaceOnUse" color-interpolation-filters="sRGB">
<feFlood flood-opacity="0" result="BackgroundImageFix"/>
<feBlend mode="normal" in="SourceGraphic" in2="BackgroundImageFix" result="shape"/>
<feGaussianBlur stdDeviation="2.16419" result="effect1_foregroundBlur_359_78491"/>
</filter>
<filter id="filter6_d_359_78491" x="122.951" y="74.5723" width="30.4275" height="29.688" filterUnits="userSpaceOnUse" color-interpolation-filters="sRGB">
<feFlood flood-opacity="0" result="BackgroundImageFix"/>
<feColorMatrix in="SourceAlpha" type="matrix" values="0 0 0 0 0 0 0 0 0 0 0 0 0 0 0 0 0 0 127 0" result="hardAlpha"/>
<feOffset dy="0.647846"/>
<feGaussianBlur stdDeviation="0.323923"/>
<feComposite in2="hardAlpha" operator="out"/>
<feColorMatrix type="matrix" values="0 0 0 0 0.243137 0 0 0 0 0.513726 0 0 0 0 0.447059 0 0 0 1 0"/>
<feBlend mode="normal" in2="BackgroundImageFix" result="effect1_dropShadow_359_78491"/>
<feBlend mode="normal" in="SourceGraphic" in2="effect1_dropShadow_359_78491" result="shape"/>
</filter>
<radialGradient id="paint0_radial_359_78491" cx="0" cy="0" r="1" gradientUnits="userSpaceOnUse" gradientTransform="translate(190.705 190) rotate(-62.8513) scale(134.26 134.46)">
<stop offset="0.677083" stop-color="#BFFD81" stop-opacity="0.12"/>
<stop offset="1" stop-color="#BFFD81" stop-opacity="0.3"/>
</radialGradient>
<radialGradient id="paint1_radial_359_78491" cx="0" cy="0" r="1" gradientUnits="userSpaceOnUse" gradientTransform="translate(190.705 190) rotate(-63.9748) scale(141.651 128.927)">
<stop offset="0.456074" stop-color="#A2E75D" stop-opacity="0"/>
<stop offset="0.551551" stop-color="#A2E75D"/>
</radialGradient>
<radialGradient id="paint2_radial_359_78491" cx="0" cy="0" r="1" gradientUnits="userSpaceOnUse" gradientTransform="translate(190.607 190.073) rotate(52.0115) scale(161.112 160.86)">
<stop offset="0.390625" stop-color="#A2E75D" stop-opacity="0"/>
<stop offset="0.505208" stop-color="#E1FFC2"/>
</radialGradient>
<linearGradient id="paint3_linear_359_78491" x1="173.283" y1="165.043" x2="305.075" y2="100.321" gradientUnits="userSpaceOnUse">
<stop offset="0.161787" stop-color="#6DEACC"/>
<stop offset="0.727459" stop-color="#6DEAD3" stop-opacity="0"/>
</linearGradient>
<radialGradient id="paint4_radial_359_78491" cx="0" cy="0" r="1" gradientUnits="userSpaceOnUse" gradientTransform="translate(188.664 189.28) rotate(172.357) scale(133.018 108.765)">
<stop offset="0.485952" stop-color="#81FDF5" stop-opacity="0.01"/>
<stop offset="0.763451" stop-color="#81FDF5" stop-opacity="0.23"/>
<stop offset="1" stop-color="#81FDDF" stop-opacity="0.3"/>
</radialGradient>
<radialGradient id="paint5_radial_359_78491" cx="0" cy="0" r="1" gradientUnits="userSpaceOnUse" gradientTransform="translate(176.762 198.66) rotate(172.152) scale(101.501 141.46)">
<stop offset="0.453125" stop-color="#A2E75D" stop-opacity="0"/>
<stop offset="0.453225" stop-color="#A2E75D"/>
</radialGradient>
<linearGradient id="paint6_linear_359_78491" x1="178.796" y1="199.243" x2="17.8396" y2="219.047" gradientUnits="userSpaceOnUse">
<stop offset="0.306934" stop-color="#A5CE62"/>
<stop offset="0.580464" stop-color="#89CE62" stop-opacity="0"/>
</linearGradient>
<radialGradient id="paint7_radial_359_78491" cx="0" cy="0" r="1" gradientUnits="userSpaceOnUse" gradientTransform="translate(157.418 190.988) rotate(-123.74) scale(84.6738 95.4199)">
<stop offset="0.390625" stop-color="#A2E75D" stop-opacity="0"/>
<stop offset="0.505208" stop-color="#E1FFC2"/>
</radialGradient>
<radialGradient id="paint8_radial_359_78491" cx="0" cy="0" r="1" gradientUnits="userSpaceOnUse" gradientTransform="translate(254.527 111.768) rotate(127.519) scale(174.537 174.537)">
<stop offset="0.40421" stop-color="#5DE7C6"/>
<stop offset="0.617124" stop-color="#5DE7C3" stop-opacity="0.486621"/>
<stop offset="0.933688" stop-color="#5DE7C1" stop-opacity="0.07"/>
</radialGradient>
</defs>
</svg>
